/* XPM */
static char *result[] = {
/* columns rows colors chars-per-pixel */
"128 128 92 1 ",
"  c #000000",
". c #0B0007",
"X c #02030D",
"o c #0E000A",
"O c #13000D",
"+ c #040515",
"@ c #050719",
"# c #06091D",
"$ c #170010",
"% c #1D0015",
"& c #14051B",
"* c #25001C",
"= c #29001F",
"- c #090D24",
"; c #0A0E28",
": c #130A23",
"> c #0D122E",
", c #0F1433",
"< c #111636",
"1 c #1C1234",
"2 c #121738",
"3 c #1A173A",
"4 c #13193C",
"5 c #240321",
"6 c #2E0023",
"7 c #2B0629",
"8 c #210B2A",
"9 c #2B0A2D",
"0 c #310026",
"q c #36002A",
"w c #38002C",
"e c #360632",
"r c #350A35",
"t c #340F3A",
"y c #261135",
"u c #291136",
"i c #24163B",
"p c #2D163E",
"a c #22193E",
"s c #34123C",
"d c #38153A",
"f c #36193F",
"g c #38193D",
"h c #151B40",
"j c #1C1E46",
"k c #2E1641",
"l c #231A41",
"z c #2F1A47",
"x c #201F49",
"c c #2C1F4C",
"v c #311642",
"b c #311944",
"n c #321F48",
"m c #1B214B",
"M c #1F2756",
"N c #25204C",
"B c #2B204F",
"V c #33234B",
"C c #372A4F",
"Z c #38294E",
"A c #262656",
"S c #2A2251",
"D c #2D2A56",
"F c #252758",
"G c #222A5C",
"H c #292D5C",
"J c #342C54",
"K c #382B50",
"L c #26305F",
"P c #2D325F",
"I c #35345D",
"U c #37385F",
"Y c #273160",
"T c #2B3663",
"R c #2D3865",
"E c #313B66",
"W c #313D68",
"Q c #37446E",
"! c #38466F",
"~ c #3B486F",
"^ c #394770",
"/ c #3C4B72",
"( c #404F75",
") c #425277",
"_ c #445579",
"` c #47587A",
"' c #4A5C7E",
"] c #4D5F80",
"[ c #4F6182",
"{ c #526585",
"} c #546887",
"| c #566A89",
/* pixels */
"*556666565656656656666656656666566566565666=6666567yammmmmmmmjmmmmmmmmmmmhmmmmmmmmmmmmmmjmjmmmjl870=667yajj3y766666=56=*%o      ",
"60qqq00qeeqq0qqqqqq0qqqqq0qq0q0qqqqqw0qqqq0q0q0qw0epNNMMMMMMMMMMmMMMMMMMMMMMMMMmGGFFMMGGMMMMFFAckr0w0wqslAAcpr000q0qqq0=%O      ",
"6qwwerrreeeerrrrrrerrrrrrrrrrrrrrreewwwwwwweerrrddgVDGGLGLGGGLGLLLGLGLGLLGLGLLLLGGYGGGYGGLGGGYHDBvsdddfBSHHSBgdddrrrtre98:#+XX  ",
"6qersvvvvvzvvvvvvvvbbvvvvvvvvvvvvvvtrwwwwwwrdvvVVVZJIPTPTTRTTTTTLTTPTTRTTTTTTYTPTTTTGYTTRTTYTTPEDJZZZZCJIPPIJJZVnbvvvvkli3<>-+  ",
"6qevvnBBBBBBBBNABBBcScBBBBBBnBBBcccvtewwwwesbcBJJJIUEEWERRWRWRQRRQRWRQRRWRRRRRWWWWWWWWWWRWWWWWWWUIIIIIUUUWEEUIIJJVBcScScNmh4>@  ",
"6qrvnAFFFFFFFFFGAAFFAAFFAFFFFFFAFFScvrwwwwrbcSHPEEQWQWQQQQQQQWQQQQRQQQQWQQQQQQQQQWQWQQWWWWWW^WWWQQEQQEUQWQQWQWQIPHFFAAFFMMMj2-  ",
"6qtvSFGGGGGGGGGGGGGGGGGGGGGGGGGGGGFcvrwwwwrbBFLTWQQQQQQQQQQQQQQQQQQQQQQQQQQQQQQQQQQQQQQ^^^^^^W/^QQQQQ~QQQQQQQQQETYGGGGGGGGAm4-  ",
"6qtzSFGGGGGGGGGGGGGGGGGGGGGGGGGGGGAcvrwwwwrbBFGRWQQQQQQQQQQQQQQQQQQQQQQQQQQQQQQQQQQQQQQQ^W^WW/W/QQQQQQQQQQQQQQQWTGGGGGGGGGGm4-  ",
"6qtzSFGGGGGGGGGGGGGGGGGGGGGGGGGGGGFckewwwwtzSFLTWQQQQQQQ!QQQQQ!QQQQQQQQ!QQQQQQQQQQQQQQQQ/W/W^W^WQQ~QQQQQQQQQQQQWTGGGGGGGGMMM4-  ",
"6qrbSFGMGGGGGGGGGGGGGGGGGGGGGGGGGGAcvewwwwrvSFLTEQQQQQQQQQQQQQQQQQQQQQQQQQQQQQQQQQ^QQQQQW/W^^^^^QQQQQQQ~QQQQQQWWTGGGGGGGGGMm4-  ",
"6qtzSFGGGGGGGGGGGGGGGGGGGGGGGGGGGGFcveewwwrvcFGTTQQQQQQ!QQQQQQQQQQQ!QQQQQQQQQQQQQQQQQQQQ/WW^W^W^QQQQQQQQQQQQQQQWRLGGGGGGGGMj4-  ",
"6qrbSGGGGGGGGGGGGGGGGGGGGGGGGGGGGGFcvewwwwrvSFLTRQQQQQQQ!QQQQQQQQQQQQQQQQQQQQQQQQQQQQQQQW/^/W^^^QQQQQQQQQQQQQQQETLGGGGGGGGMM4-  ",
"6qrbSFMGGGGGGGGGGGGGGGGGGGGGGGGGGGFcvrwwwwrbcFLTWQQQQQQQQQ!QQQQQQQQQQQQQQQQQQQQQ^W^Q^^^^/W/W^^WWQQQQQQQQQQQQQ~QETLGGGGGGGGGm4-  ",
"5qszBGGGGGGGGGGGGGGGGGGGGGGGGGGGGGAcvrwwwwrbSFLTTQQQQQQQQQQQQQ!QQ!QQQQ!Q!QQQQQQQ^^^Q^W^WW(W/^W^^QQQWQQQQQQQQQQQWTYGGGGGGGGMm4-  ",
"0qrbBFGGGGGGGGGGGYGGLGGGGGGGGGGGGGFcvrwwwwrbBFLTWQQQQQQQQQQQQQQQQQQQQQQQQQQ!QQQQ^W^^W^/^/W//^///((~(~QQQQQQQQQQWTYGGGGGGGGMm4-  ",
"6qrbSFGGGGGGGGGGYYTYTTTGGGGGGGGGGGFcvewwwwrbSFLYRQQQQQQQQQQQQQQQQQQQQ!QQQQQQQQQQ^^W^W^W/W/W/())_(_(((QQQQQQQQQWWTGGGGGGGMGGm4-  ",
"6qvvBGGGGGGGGGGTTRWRWEETYGGGGGGGGGFckewwwwtvSFLTRQQQQQQQQQQQQQQQQ!Q!QQQQQQQQ^QQQQQQQQQQQQQ^(_']]]]]_)^QQQQQQQQQWTLGGGGGGGGMmh;XX",
"6ervBGGGGGGGGGGTWQQQW^WETHGGGGGGGGFcvewwwwtvcFLTWQQQQ^QQQQQQQQQQQQQQQQQQQQQQQQQQ^QQQQQQ^QQ^)'[{}{{]]_^QQQQQQQQWWTYGGGGGGGGGmh;  ",
"6qvvBGGGGGGGGGTTWWQQ^WWWTGGGGGGGGGABveewwwrvSAGTWQQQQQQQQQQQQQQQQQQQ!QQQQQQQQQQQQQQQQQQQQQ^)]{}|||}]_(QQQQQQQ^QWRLGGGGGGGGMm4-  ",
"6qvzBFGGGGGGGGGRWQQQ^^WWTGGGGGGGGFAcvreqwwtbSFYTRQQQQQQQQQQQQ^QQQQQQQQQQQQQQQQQQQQQQQQQQ^^^_]{}}||{]_(QQQQQQQQQWRGGGGGGGGGMm4-  ",
"6qtzSFGGGGGGGGYRWQ!!W^WWTGGGGGGGGGFcvrwwwwrbSFLTWQQQQQQQQQQQQ^QQQQQQQQQQQQ^QQQ^QQQQQQQQQQQ^_]{||||{]_(QQQQQQQQQWTGGGGGGGGGFm4-  ",
"6qrzSFGGGGGGGGGRWW!^!!WETGGGGGGGFGFBvtwwwwrbcFLTWWQQQQQQ^QQQQQQQQQQQQQQQQQQQQQQQQQQQQQQQQQ/_]{||||{]_(QQQQ^QQQWWRYGGGGGGGMMm4-  ",
"6qtzSFGGGGGGGGGTRWWWQUWEYGGGGGGGGGFcvewwwwrbSFLTRQQQQQQQQQQQQQQQ!QQQQ!QQQQQQQQQQQ^QQQQQQQQ/)_[{{{[[]_^QQQQQQQQQWRLGGGGGGGGMm4-  ",
"6qtkSGGGGGGGGGGFTTEUIIUIYGGGGGGGGGFcvrwwwwrbcFLTWQQQ^QQQQQQQQQQQQQQQQQQQQQQQQQQQQQQQQQQ^^Q^/___]_]_)(^QQQQQQQ^WWTLGGGGGGGGGm4-  ",
"6qrbSFGGGGGGGGFFJKKKKKDSFGGGGGGGGGFcvewwqervSFLTRQQQQQQQQQQQQQQQQQQQQQQQQQQQQQQQQQQQQQQQQQQ^^///^/^^^QQQQQQQQQQWTGGGGGGGGGMmh-  ",
"5qtbSFGGGGGGGGFSnfdddtvzSFGGGGGGGGAckewwqerzBFLTRQQQQQQQQQQQQQQQQQQQQQQQQQQQQQQQQQQQQQQQQQQQWRRERWTWQQQQ^QQQQQWWRGGGGGGGGGMmh;  ",
"0wrbSFGGGGGGGGFcbverrrvzSGGGGGGGGGFcvrwwwwrvBFLTWQQQQQQQQQQQQ^QQQQQQQ!QQQQQQQQQQQQQQQ^QQQQWWRYLLLLYTWWQQQQQQQQQWTLGGGGGGGGMj4-  ",
"60tbSGGGGGGGGGFAzvvvvvzBSGGGGGGGGGFcvewwwwrvBFLTWQQQQQQQQ^QQQQQQQQ!QQQQQQQQQQQQQQQQQQQQQ^QQWRRYTTTTWWQQQQQQQQQQWTLGGGGGGGGMM4-  ",
"6qtvcGGGGGGGGGGFSBBcBBBFFGGGGGGGGGFcvewwwwtvBFGTRQQQQQQQQQQQQQQQQQQQQQQQQQQQQQQQ^QQQQQQQQQQQWWWWWRWWQQQQQQQQQQQWTLGGGGGGGGGm4-  ",
"6qtzSFGGGGGGGGGFFFFFFFFFGGGGGGGGGGFcvrwwwwtvSFLTWQQQQQQQQQQQQQQQQQQQQQQQQQQQQQQQQQQQ^QQQQQQQQWQWQQWQQQQQQQQQQQWWTYGGGGGGGGMm4-  ",
"6qtvSFGGGGGGGGGGGGFGGGGGGGGGGGGGGGAcvrwwwwrvNFLRWQQQQQQQQQQ^QQQQQQQQQQ!QQQQQQQQQQQQQQQQQQQQQQQQQQQQQQQQQQQQQQQQWTYGGGGGGGGMm4-  ",
"6qtvSGMGGGGGGGGGGGGGGGGGGGGGGGGGGGAcvrwwwwtbAGLYRQQQQQQQQQQQQQQQQQ!QQQQQQQQQQQQQQQQQQQQQQQQQQ^QQQQQQQQQQQQQQ^QWWTGGGGGGGMGGm4-  ",
"6qtzSFGGGGGGGMGGGGGGGGGGGGGGGGGMGGGBvewwwwrvSFLTRQQQQQQQQQQQQQQQQQQQQQQQQQ^QQQQQQQQQ^QQQQQQQQQQQQQQQQQQQQQQQQQQRTLGGGGGGGGMmh;X ",
"6qtkSFGGGGGGGGGGGGGGMGGGGGGGGGGGGGFcvewwwwtvBFLTRQQQQQQQQQQQQQ^QQQQQQQQQQQQQQQQQQQQQQQQQQQ^QQQQQQQQQQQQQQQQQQQQWTLGGGGGGGGMmh;  ",
"6qrvBAFFFFGFFFGFFFFFGFFFFFFFFFFFFFScvewwwwtbSFLTWQQQQQQQQQQQQQQQQQQQQQQQQQQQQQQ^QQQQQQQQQQQQQQQQQQQQQQQQQQQQQQQWTLGGGGGGGGMm4-  ",
"6qrsbcSSSBcSSSSSBSSBSSSSScSSBBSSSScvsewwwwrvcFLTRQQQQQQQQQQQQQQQQQQ^QQQQQQQQQQQQQQQQQQQQQQQQQQQQQQQQQQQQQQQQQQQWTLGGGGGGGGGm4-  ",
"6qetsvbvzvbvvvzvbbkbbzzbzzbzvzbvvbvsrqwwwwtvSFGTWQQQQQQQQQQQQQQQQQ^QQQQQQQQQQQQQQQ^QQQQQQQQQQQQQQQQQQQQQQQQQQQQWTLGGGGGGGGFm4-  ",
"6qwerrtrrrtttrrttrtrrrrrrrrtrrrtttreewwwwwrvcFLTRQQQQQQQQQQQ^QQQQQQQQQ^QQQQQQQQQQQQQQQQQQQQQQQ^QQQQQQQQQQQQQQQQWTLGGGGGGGMMm4-  ",
"6qqwwwwwqwwwwwqwwwwwqwwwqwwwqwwwwwwwwwwwwwtvSFLTWQQQQQQQQQQQQQQQQQQQQQQQQQQQQQQQQQQQQQQ^QQQQQQ^^QQQQQQQQQQQQQQQRTLGGGGGGGGMm4-  ",
"6qqwwwwwwwwwwwwwwwwwwwwwwwwwwwwwwwwwwwwwwwrvSFLTWQQQQQQQQQQQQQQQQQQQQQQQQQQ^QQQ^QQQQQQQQQQQQQQQWQ^QQQQ^QQQQQQQQWTYGGGGGGGGGm4-  ",
"6qwwwwwwwwwwwwwwwwwwwwwwwwwwwwwwwwwwwwwwwwrvSFGTRQQQQQQQQQQQQQQQQQQQQQQQQQ^QQQQQQQ^QQQQQ^^^^^W^^QQQQQ^QQQQQQQQQWTGGGGGGGGGMmh-  ",
"6qwwwwwwwwwwwwwwwwwwwwwwwwwwwwwwwwwwwwwwwwtbSFYTRQQQQQQQ!QQQQQQQQQQQQQQQQQQQQQQQQQQQQQQQW^W^^^^WQQQQQQQQQQQQQQQRRGGGGGGGGGMmh;  ",
"6qwqeeeereeeeeeeeereeeeeeereerreeeeeeeeeretbSGLTWQQQQQQQQQQQ!QQQQ^QQQQQQQQQQQQQQQQQQQQQQW^Q^^^^^QQQQQQQQQQQQQQWWTLGGGGGGGGMj4-  ",
"6qerssvvvvvvvvvvvvvsvvbfvvvsvvsvvvvvvvvvvvbcSFGTWWQQQQQQQQQQQQQQQQQQQ^QQQQQQQQQQQQQQQQQQ^QQ^W^W^QQQQQQQQQQQQQQQWTLGGGGGGGGMM4-  ",
"6qesbcccBBBBBccBBBBBBccBcBccNNBVBBcBBBBcccSSAFYTWQQQQQQQQQQQQQQQQQ^QQQQQQQQQQQQQQQQQQQQQQQQWQQQQQQQQQQQQQ^QQQQQWTLGGGGGGGGGm4-  ",
"6qrkcSAAAAAFAAAAFFAAAAAAAAAAAFAAAAASFFAAFAFFGGYTWQQQQQQQQQQQQQ!QQQQQQQQQ^QQQQQQQQQQQQQQQQQQ^^QQQQ^QQQQQQQQQQQQQWTYGGGGGGGGMm4-  ",
"6qsbSHGGGHGGGGHGGGGGGGGYGGGGGLLLGGGLGGGGGLGLLGYTWQQQQQQQQQQQQQQQQQQQQQQQQQQQQQQQQQQQQQ^QQQQQQQQQQQQQQQQQQQQQQQQWTYGGGGGGGGMm4-  ",
"6qsVDTRTTTTTRTTTTTRTTRTTRTTRTTLTRTTTTTTTTTTTTTTWWQQQQQQQQQQQQQQQQQQQQQQQQQQQQQ^QQQQQQQQQQQQQQQQQQQQQ^QQQQQQQQQWWTGGGGGGGMGGm4-  ",
"6qdVIEEERRWRRRRRQRRRQTTRRRRRRRTRWRRRWRRRRRRRRRRWQQQQQQQQQQQ!QQ!QQQQQQQQQQQQQQQQQ^QQQQQQQQQQQQQQQ^QQQQQQQQQQQQQQWTLGGGGGGGGMmh;XX",
"6qgCIWWQQQQQQQRQQQRQQQQQQQQQQQQQQQWQQQQQQQQQQQQQQQQQQQQQQQQQQQQQQQQQQQQQ^QQQQQQQQQQQQQ^QQQQQQQQQQQQQQQQQQQQQQQWWTYGGGGGGGGGmh;  ",
"7qVCIQQQQQQQQQQQQQQQQQQQQQQQQQQQQQQQQQQQQQQQQQQQQQQQQQQQQQQQQQQQQQQQQQQQQQQQQ^QQQQQQQQQQQQQQQ^QQQQQQQQQQQQQQQ^QWRLGGGGGGGGMm4-  ",
"ysVJUQQQQQQQQQQQQQQQQQQQQQQQQQQQQQQQQQQQQQQ!QQQQQQQQQQQQQQQ!QQQQQQQQQQQQQQQQQQQQQQQQQQQQQQQQQQQQQQQQQQ^QQQQQQQQWRGGGGGGGGGMm4-  ",
"acDIEQQQQQQQQQQQQQQQQQQQ!QQQQQQQQQQQQQQQQQQQQQ!QQQQQQQQQQQQQQQQQ^QQQQQQQQQQQQQQQQQQQQQQQQ^QQQQQQQQQQQQQQQQQQQQQWTGGGGGGGGGFm4-  ",
"xNHPEQQQQQQ!Q!QQQQQQQQQQQQQQ!QQQQQQQQQQQQQQQQQQQQQQQQQQQQQQQQQQQQQQQQQQQQQ^QQQQQQQQQQQQQQQQQQQQQQQQQQQQQQQ^QQQWWRYGGGGGGGMMm4-  ",
"mFLTEQQQQQQ!QQQQQQQQQQQQQQQQQQQQQQQQQQQQQ!QQQQQQQQQQQQQQQQQ!QQ!QQQQQQQQQQQQQQQQQQQ^QQQQQQQQQ^QQQQQQQQQQQQQQQQQQWRLGGGGGGGGMm4-  ",
"mMLTEQQQQQQQQQQ!QQQQQQQQQQQQQQQQQQQQQQQQQQQQQ!QQQQQQQQQQQQQQQQQQQQQQQQQ^QQQQQQQQQQQQQQQQQQQQQQQQQQQQQQQQQQQQQ^WWTLGGGGGGGGGm4-  ",
"mMYRRQ!QQQQQQQQQQQQQQQQQ!QQQQQ!QQQQQQ!QQQQQQQQQQQQQQ!QQQQ!QQQQQQQQQQQQQQQQQQQQQQQQQQQQQQQQQQQQQQQQQQQQQQQQQQQQQWTGGGGGGGGGMmh-  ",
"mMYRRQQQQQ!QQQQQQQQQQQQQQQQQQQQQQQQQQQQQQQQQQQ!QQQQQQQQQQQQQQQQQQQQQQQQQQQQQ^QQQQQQQQQQQ^QQQQQQQQQQQQQQQ^QQQQQWWRGGGGGGGGGMmh;  ",
"mMLRRQQQQQQQQQQQQQQQQQQQQQQQQQQQQQQQQQQQQQQQQQQQQQQQQQ!QQQQQQQQQQQQQQQQQQQQQQQQQQQQQQQ^QQQQQQQQQ^QQQ^QQQQQQQQQQWTLGGGGGGGGMj4-  ",
"mMLRRQQQQQQQQ!QQQQQQQQ!Q!QQQQQQQ!QQQQQQQQQQ!Q!QQ!QQQQQQQQ!QQQQ!QQQQQQ^QQQQQQQQQQQQQQQQQQQQQQQQ^QQQQQQQQQQQQQQQQWTLGGGGGGGGMM4-  ",
"mMLTQQQQQQQQQQQQQ!QQQQQQQQ!QQQQQQQ!QQQQQQQQQQQQQQQQQQ!QQQQQQQQQQQQQQQQQQQQQQQQQQQQQ^QQQ^QQQQQQQQQQQQQQQQQQQQQQQWTLGGGGGGGGGm4-  ",
"MMLRRQQQQQQQQQQQQQQQQ!QQQQQQQQ!QQQQQQQQ!QQQQ!QQ!QQQQQQQQQQQQQQQQQQQQQQQQQQQQQQQQQQQQQQQQQQQQQQQQQ^QQQQQQQQQQQQWWTYGGGGGGGGMm4-  ",
"mMYTRQQQQQQQQQQQQQQQQQQQQQQQQQQQQQQQQQQQQQQQQQQQQQ!QQQQQQQQQ!QQQQQ^QQQQQQQQQQQQQQQQQQQQQQQQQQQQQQQQQQQQQQQQQQQQWTYGGGGGGGGMm4-  ",
"mMYRQQQQQ!QQ!QQQQQ!QQQQ!QQQQQQQQQQQQQQQQQQ!QQQQQQQQQQQ!Q!QQQQQQQQQQQQ^QQQQQQQQQ^QQQQQQQQQQQQQQQQQQQQQQQQQQQQ^QWWTGGGGGGGMGGm4-  ",
"MGYTWQQQ^QQQQQQQQQQQQQQQQQQQQQQQQQ^QQQQQQQQQQQQQ^WQQW^^^^^^W^^^^QQQQQQQQQQQQQQQQQQQQQ^QQQQQ^QQQ^QQQQQQQQQQQQQQQRTYGGGGGGGGMmh;XX",
"mGYTRQQQQQQQQQ^QQQQQQQQQQQQQQQQQQQQQQQQQQQQQQQ^Q^^QQ^^W^WW^^W^WWQQQQQQQQQQQQQQQQQQQQQQQQQQQQQQQQQQQQQQQ^QQQQQQQWRGGGGGGGGGGmhh  ",
"mGYTWQQQQQQQQQQQQ^QQQQQ^QQQQQQQQQQQQQQQ^^QQQQQQQQQQQ^^^W^^^^^^Q^QQQQQQQQQQQQQQQQQQQQQQQQQQQQQQQQQQQQQQQQQQQQQQQWRGGGGGGGGGGm4-  ",
"mGYTWQQQQQQQQQQQQQQQQQQQQQQQ^QQQQQQQQQQQQQQQQQQQQQQ^^W^^^WW^^WQQQQQQQQQQ^QQQ^QQQQQQQQQQQQQQQQQQQQQQQQQQQQQQQQQQRTYGGGGGGGGGm4-  ",
"mGGYWQQQQQQQQQQQQQQQQQQQQQQQQQQQQQQQQQQQQQQQQQQQQQQQ^W^W^^^WQ^WQQ^QQQQQQQQQQQQQQQQQQQQQQQQQQQQQQQQQQQQQQQQQQQQQWTYGGGGGGGGFm4-  ",
"mMGYRQQQQQQQQQQQQQQQQQQQQQQQQQQQQQQQQQQQQQQQQQQQQQQQ^^^^^W^^QQ^^QQQQQQQQQ^QQQQQQQQQ^^QQQQQQQQQQQQQQQQQQQQQQQQQQWTYGGGGGGGMMm4-  ",
"MGYTWQQQ^QQQQQQQQQQQQQQQQQQ^^QQQQQQ^QQQQQQQQQQQQQQQQ^WW^/WW/QQQQQQQQQQQ^QQQQQQQQQQQQQQQQQQ^QQQQ^QQQQQQQQQQQQQQQRTYGGGGGGGGMm4-  ",
"mGYTWQQQQQQQQ^QQQQQQQQQQQQQQQQQQQQQQQQQQ^QQQQQQQQ^QQ/W//W/W^QQQQQQQQQQQQQQQQQQQQQQQQQQQQQQQQQQQQQQQ^QQQQQQQQQQQWTYGGGGGGGGGm4-  ",
"mFLTWW/^QQQQQQQQQQQQQQQQQQQ^QQQQQQQQQQQQQQQQQQQQQQQQQQQQQQQQQQQQQQQQQQQQQQQQQQQQQQQQQQQQQQQQQQQQQQQQQQQQQQQQQQQWTGGGGGGGGGMmh-  ",
"mMLTWW^WQQ^QQQQQQQQQQQQQQQQQQQQQQQ^QQQQQQQQQQQ^QQQQQQQQ^QQQQQQQQQQQQQQQQQQQQQ^QQQQQQQQQQQQQQQQQQQQQQQQ^QQQQQQQQRRGGGGGGGGGMmh;  ",
"mGGTWW^^QQQQQQQQQQQQQQQQQQQQQQQQQQQQQQQQQQQQQQQQQQQQQQQQQQQQQQ^QQQQQQQQQQQQQQQQQQQQQQ^QQQQQQQQQQQQQ^QQQQQQQQQQQWTLGGGGGGGGMj4-  ",
"mGGTW^^WQQQQQQQQQ^QQQQQQQQQQQQQQQQQQQQQQQQ^QQQQQQQQQQQQQ^QQQQQQQQQQQ^QQQQQQQQQQQQ^QQQQQQQQ^QQQQQQQQQQQQQQQQQQQWWTLGGGGGGGGMM4-  ",
"mGYTWW^^QQQQQQQQ^QQQ^QQQQQQQQQQQQQQQ^QQQQQQQ^QQQQQQQQQQQQQQQQQQQQQQQQQQQQQQQQQQQQQQQQQQQQQQQQQQQQQQQQQQQQQQQQQQRTLGGGGGGGGGm4-  ",
"mGYRW^W^QQQQQQQQQQQQQQQQQ^QQQQQQQQQQQQQQQQQQQQQQQQQQQQQQQQQQQQQQQQQQQQQQQQQQQQQQQQQQQQQQQQQQQQQQQQQQ^QQQQQQQQQQWTYGGGGGGGGMm4-  ",
"mGYTWW^^QQQQQQQQQQQQQQQQQQQQQQQQQQQ^QQQQQQQQQQQQQQQQQQQQQQQ^QQQQQQQ^^QQQQQQQQQQQQQQ^QQQQQQQQQ^QQQQQQQQQQQ^QQQQQWTYGGGGGGGGMm4-  ",
"mGYRW^^WQ^QQQQQQQQQQQQQQQQQQQQ^QQQQQQQQQQQQQQQQQQQQ^QQQQQQQQQQQQQQQQQQQQQQQQQ^QQQQQQQQQQQQ^QQQQQQQQQQQQQQQQQQQQWTGGGGGGGMGGm4-  ",
"mGGTW^^^W^W^^^W^QQQQQQ^QQQQQQQQQQQQQQQQQQQQQQQQQQQQQQ^QQQQ^QQQQQQQQQ^QQQQQQQQQQQQQQQQQQQQQQQQQQQ^QQQQQQQQQQQQQQWTLGGGGGGGGMmh;XX",
"mMLTWWW^^^^^W^^^QQQQQQQQQQQQQQQQQQQ^QQQQQQQ^QQQQQQQQQQQQQQQQQQQ^QQQQQQQQQQQ^QQQQQQQQQQQQQQQ^QQQQQQQQQQQQQQQQQQWWTYGGGGGGGGGmh;  ",
"mGLTW^QQWW^^/WW^Q^QQQQQQQQQQQQQQQQQQQQQQQQQQQQQQQQQQQQQQQQQQQQQQQQQQQQQQQQQQQQQQQQ^QQQQQQQQQQQQQQQQQQQQQQQQQQ^QWRLGGGGGGGGMm4-  ",
"mGLTWWQQ^^^WW/W^QQQQQQQQQQQQQQQQQQQQQQ^QQQQQQQQQQQQQQQQQQQQQQQQQQQQQQQQQQQQQQQQQQQQQQQQQQQQQQQQQQQQQQQ^QQQQQQQQWRGGGGGGGGGMm4-  ",
"mGYTWWQQ^^^^//^WQQQQQQQQQQQQQQQQQQQQQQQQQQQQQQQ^QQQQ^QQQQQQQQQQQQQ^QQ^QQQQQQQQQQQQQQQQQQQQQQQQQQQQQQQQQQQQQQQQQWTGGGGGGGGGFm4-  ",
"mGYRWQQQ^W^W^W^^QQQQQQQQQQQQQQQQQQQ^QQQQQQQQQQQQQQQ^QQQQQQQQQQQQQQQQQQQQQQQQQQQQ^QQQ^QQQQQQQQQQQQQQQQQQQQQ^QQQWWRYGGGGGGGMMm4-  ",
"mGGTW^^QW^^^^^^WQQQQQQQQ^QQQQQQ^QQQQQQQQQQQQQQQQQQQQQQQQQ^QQQQQ^QQQQQQQQQQQQQQQQQQQQQQQQQQQQQQQQQQQQQQQQQQQQQQQWRLGGGGGGGGMm4-  ",
"mMGTWWQQ^^^W^W^^QQQ^QQQQQQQQQQQQQQQQQQQQ^QQQQQQQQQQQQQQQQQQQQQQQQQQQQQQQQ^QQQQQQQQQQQQQQQ^QQQQQQQQQQQQQQQQQQQ^WWTLGGGGGGGGGm4-  ",
"MFYTEQQQW^^QQQQQQQQQQQQQQQQQ^QQQQQ^QQQQQQQQQQQQQQQQQQQQQ^QQQQQ^QQQQQQQQQQ^QQQQQQQQQQQQQQQQQQ^QQQQQQQQQQQQQQQQQQWTGGGGGGGGGMmh-  ",
"mFYTEQQQW^QQQQQQQ^QQQQQQQQQQQQQQQQQQQQQQQQQQQQQQQQQQQQQQQQQQQQQQQQQQQQQQQQQQQQ^QQQQQQQQQQQQQQQQQQQQQQQQQ^QQQQQWWRGGGGGGGGGMmh;  ",
"xFHTEQQQ^QQQQQQ^^^QQ^^^^^QQQQQQQQQQQQQQQQQQQQQQ^QQQQQ^QQQQQQQQQQQQQ^QQQQQQQQQQQQQQQQQQQQQQ^Q^^^Q^^^^QQQQQQQQQQQWTLGGGGGGGGMj4-  ",
"lNDIEQQQ^QQQQQ^^^^](]^(/^^QQQQQQQQQQQQQQQQQQQQQQQ^QQQQQQQQQQQQQQQQQQQQQ^QQQQQQQQQQQQQQQQQQ^^^)))__((^^QQQQQQQQQWTLGGGGGGGGMM4-  ",
"kkSHEQQQQQQQQQ^](]]]]]]^(^Q^QQQQQQQQQQ^QQQQQQQQQQQQQQQQQQQQQQQQQQQQQQQQQQQQQQQQQQQQQQQQ^QQ^(])]]]]])(^QQQQQQQQQWTLGGGGGGGGGm4-  ",
"9rnJUQQQQQQQQQ^/][[[][]](^QQQQQQQQQQQQQQQQQQQQQQQQQQQQQQQQQQQQQQQQ^QQQQQQQQQQQQQQQQQQQQQ^QQ)]][[][]]_(QQQQQQQQWWTYGGGGGGGGMm4-  ",
"0wvKUWQQQQQQQQ/]]|||||{]]^QQQQQQQQQQQQQQQQQ^QQQQQQQQQQQQQ^QQQQQQQQQQQQQQQ^QQQQQQQQQQQQQQQQ^)][||||}]_^QQQQQQQQQWTYGGGGGGGGMm4-  ",
"0wgKEWQQQQQQQQW]]{||||{](^QQQQQ^QQQQQQQQQQQQQQQQQQQ^QQQQQQQQQQQ^QQQQQQQQQQQQQQQ^^QQQQQQQQQ^]]]|||||]_(QQQQQQ^QWWTGGGGGGGMGGm4-  ",
"60gKUQQQQQQQQQ/`'}||||}'_/QQQQQQQQQQQQQQ!QQQQQ!QQQQQQQQQQQQQQQQQQQQQQQQQ!QQQQ!QQQQQQQQQQQQ!_'{||||{]_(W^QQQQQQQRTLGGGGGGGGMmh;X ",
"6wgKUQQQQQQQQQ/`[}||||{'_~QQQ!QQQQQQQ!QQQQQQQQQQQQQQQQQQQQQQQQQQQQQQQQQQQQQQQQQQQQQQQQQQQQ/_'}||||{]_(Q^QQQQQQQWTLGGGGGGGGGmh;  ",
"6wbKIQQQQQQQQQ~_'{}}|}{'//^QQQQQQQQQQQQQQQQQQQQQQQQ!QQQQQQQQQQQQQQQQQQ!QQQ!QQQQQQQQQQQQQQQ/_'}|}{{[]_^QQQQQQQQQWTLGGGGGGGGMm4-  ",
"ysVJUQQQ~QQQQQ~_`'''''`///!QQQQ!QQ!QQQQQ!QQQQQQQQQQQQQQ!QQQQQQQQQQ!QQQQQQQQQQQQ!QQQQQQQQQ!!/_`'']]]((^QQQQQQQQQWTLGGGGGGGGMm4-  ",
"icDIUQQQQQQQQQQ~~///)/Q~^QQQQQ!QQQQQQQQ!QQ!QQQQQQQQQQQQQQQQQQQQQ!QQQQQQQQ!QQQQQQ!QQQQQQQQQ!!^/////(^^QQQQQQQQQQWTLGGGGGGGGFm4-  ",
"jNHIEQQQQQQQQQQQQQRQUQQQQQQQQQQQQQQQQQQQQQQQQQ!QQQQQQQQQQQQQQQQQQQQQQQQQQQQQQQQQQQQQQQQQQQQQQWQRQWWWQQQQQQQQQQQWTGGGGGGGGMMm4-  ",
"mALTEQQQQQQQQQRRLLLGGGLLQQ!QQQQQQQQQQQQQQQQQQQQQQQQQQQQQQQQQQQQQQQQQQQQQQQQQQQQQQQQQQQQQQQQRTYGGGLLTWQQ^QQQQQQQRTYGGGGGGGGMm4-  ",
"lNDPUQQQQQQQQQQQRPLTLTRQRQQQQQQQQ!QQQQQQQQQQQQQQQQQQQQQQQQQQQQQQ!QQQQ!QQQQ!QQQQQ!QQQQQQQQQQQWTTYTYRRWWQQQQQQQQQRRYGGGGGGGGGm4-  ",
"ikCPUQQQQQQQQQQRQRPLQLLQQQQQQQQQQQQQQQQQQQQQQQQQQQQQQQQQQQQQQQQQQQ!QQQQQQQQQQQQQQQ!QQQQQ!QQQEERERRWWWQQQQQQQQQQWTGGGGGGGGGMmh-  ",
"7tVJIQQQQQQQQQQQQQQQQQQQQQQQQQQQQQQ!QQQQQQQQQ!QQQQQQQQQQQQQQQQQQQQQQQQQQQQQQQQQQQQQQQQQQQQQQWQQWWQWQQQQQQQQQQQQWRGGGGGGGGGMmh;  ",
"6qdZUQQQQQQQQQQQQQQQQQQQQQQQQQQQQQQQQQQQQQQQQQQQQQQQQQQQQQQQQQQ!QQQQQ!QQQQQQQQQQQQQQQ!QQQQQQ!QQQQQQQQQQQ^QQQQQWWTLGGGGGGGGMj4-  ",
"6qgZIQQQQQQQQQQQQQQQQQQQQQQQQQQQ!QQQQ!QQ!Q!QQQQ!QQQQQQ!QQQQQQQQQQQQQQQQQQQQQQQQQQQQQQQQQQQQQQQQQQQQQQQQQQQQQQQQWTLGGGGGGGGMM4-  ",
"6qgKUQQQQQQQQQQQQQQQQQQQQQQQQQQQQQQQQQQQQQQQQQQQQQQQQQQQQQQQQQQQQQQQQQQQQQQQQQQQQQQQQQQQQQQQQQQQQQQQQ^QQQQQQQQQWTLGGGGGGGGGm4-  ",
"6qgZIQQQQQQQQQQQQQQQQQQQQQQQQQQQQQQQQQQQQQQQQQQQQQQQQQQQQQQQQQQQQQQQQQQQQQQQQQQQQQQQQQQQQQQQQ!QQQQQQQQQQQQQQQQWWTYGGGGGGGGMm4-  ",
"6wdCUQQQQQQQQQQQQQQQQQQQQQQQQQQQQQQQQQQQQQQQQQQQQQQQQQQQQQ!QQ!QQQQQQQQQQQQQQQQQQQQQQQQQQQQQQQQQQQQQQQQQQQQQQQQQWRGGGGGGGGGMm4-  ",
"5wdCIEEEEQEEEQRQLQQTRQRQPQRQPQRQWWWWWWWWWWWWWWWWQWWWWWWWWWWWWWWWQRQRRQRQRQRRQTQRQTQWRQRQWWWWWWWWWWWWWWWWWWWWWWWRTGGGGGGGMGGm4-  ",
"0qsVJTRTRRRRTRETLQLQRRRRRRRRTRRRTRRRTRTRRRRRTRRRRTETRRRTRRRRTRETLRRRRRRRRRTRRRTRRTERRRRRRRRRTRRRRRRRTETTETTTETTTYGGGGGGMGGMmh-X ",
"=qsnSHYYYYLYYYLLLLLGLLLLYYYYYYYYYYYYYYYYYYYYYYYYYYLYYYYYYYLYYYLLLLLLLLLLYYYYYYYYLLLYYLLLLYYLYYYYLYYYYYYLYYYYLYYGGGGGGGGGGGGmh-  ",
"00rbSHGGGGGFGGGGGGMGGGGGFGGGFGGGFGGGGGGFFGGGGFGGGGGFGGGFGGGFGGGGGGGGGGGGFGGGGFGGFGGGGGGGGGFGGFGGGGGFGGGGFGGGGGGGGGGGGGGGGGMm4-  ",
"0qevzBSSSSSSSSSSBSANSSBBSSSSSSSSSSSBSSSSSSSSSSSSSSSSSSSSSSSSSSSSSSSBSSBSSSSSSSSSSSSSSSSSSSSSSSSSSSSSSSSSSSSSSSSSSSFGFGGGGGMm4-  ",
"=qwtvbbzzzzzbbnzzzzzzzzzzzzzzzzzzzzzzzzzzzzzzzzzzzzzzzzzzzzzbbnzzzzzzzzzzzzzzzzzzzzzzbbbzzzzzzzzzzzzzzzzzzzzbbnzzzbSSFGGGGGm4-  ",
"0qwerttttttttttttstststtsttttttttstsrssrttttsttttttttttsttttttttssttstsrsttttttttttsststttttsttttttttttsttttttttevvbSFGGGGMm4-  ",
"00wwwwwwwwewwwwwqwwwwwwwwwwwwwqqwwwwwwwwqwwwwwwwwweqwwwwwwewwwwwqwwwwwwwwwwwwwqwwwwwwwwwwwwwewwwwwwwwwwwwwewwwwwewrvcAFGGGMm4-  ",
"*600qqwwwwwwwwwwqqwwwwwwwwwwwwwwwwwwwwwwqewwwwwwwwwwwwwwwwwwwwwwwwwwwwwwwwwwwwwwwwwwwwwwwwwwwwwwwwwwwwwwwwwwwwwwwwwvzcSFFFGm4-  ",
"%*=60qwwwwwwwwwwwwwwwwwwwwwwwwwwwwwwwwwwwwwwwwwwwwwwwwwwwwwwwwwwwwwwwwwwwwwwwwwwwwwwwwwwwwwwwwwwwwwwwwwwwwwwwwwwwwwtsbzBAFMM2-  ",
"OO%*0qwwwwwwwwwwwwwwwwwwwwwwwwwwwwwwwwwwwwwwwwwwwwwwwwwwwwwwwwwwwwwwwwwwwwwwwwwwwwwwwwwwwwwwwwwwwwwwwwwwwwwwwwwwwwwertszSAMm4-  ",
"  O*60wqqwwqqwq0wqqqqwqwqqwqqwqwwqwqwqqq0wwwwwqqqqqwwqqwqwwqqwq0wqqqqwqwqqwqqwwqqwwqwqq0wqqqqwqwqqqqqwwqwqwww0w0wwqqqqevcAAm4-  ",
"  O%*66060600606600606600660066060606006006606006006060660600606600606600660066060606006600606606q660660606060000606069uaxjh,#  ",
"  .O%*********=************************************************=***********************=******************************58134,-@  ",
"  ..OO%O$$$$$$$$O$$$$$$$$$$$$$$$$$$$$$$$$$$$$$$$$$$$O$$$$$$$$$$$O$$$$$$$$$$$$$$$$$$$$$$$O$$$$$$$$$$$$$$$$$$$$$$$O$$$$$$&:;;-@X  ",
"                                                                                                                                ",
"                                                                                                                                "
};
