/* XPM */
static char *corner_top_left1658804959[] = {
/* columns rows colors chars-per-pixel */
"128 128 2 1 ",
"  c #010101",
". c white",
/* pixels */
"................................................................................................................................",
"................................................................................................................................",
"................................................................................................................................",
"................................................................................................................................",
"................................................................................................................................",
"................................................................................................................................",
"................................................................................................................................",
"................................................................................................................................",
"................................................................................................................................",
"................................................................................................................................",
"................................................................................................................................",
"................................................................................................................................",
"................................................................................................................................",
"................................................................................................................................",
"................................................................................................................................",
"................................................................................................................................",
"................................................................................................................................",
"................................................................................................................................",
"................................................................................................................................",
"................................................................................................................................",
"................................................................................................................................",
"................................................................................................................................",
"................................................................................................................................",
"................................................................................................................................",
"................................................................................................................................",
"................................................................................................................................",
"................................................................................................................................",
"................................................................................................................................",
"................................................................................................................................",
"................................................................................................................................",
"................................................................................................................................",
"................................................................................................................................",
"................................................................................................................................",
"................................................................................................................................",
"................................................................................................................................",
"................................................................................................................................",
"................................................................................................................................",
"................................................................................................................................",
"................................................................................................................................",
"................................................................................................................................",
"................................................................................................................................",
"................................................................................................................................",
"................................................................................................................................",
"................................................................................................................................",
"................................................................................................................................",
"................................................................................................................................",
"................................................................................................................................",
"................................................................................................................................",
"................................................................................................................................",
"................................................................................................................................",
"................................................................................................................................",
"................................................................................................................................",
"................................................................................................................................",
"................................................................................................................................",
"................................................................................................................................",
"................................................................................................................................",
"................................................................................................................................",
"................................................................................................................................",
"................................................................................................................................",
"................................................................................................................................",
"................................................................................................................................",
"................................................................................................................................",
"................................................................................................................................",
"................................................................................................................................",
"................................................................................................................................",
"................................................................................................................................",
"................................................................................................................................",
"................................................................................................................................",
"................................................................................................................................",
"................................................................................................................................",
"................................................................................................................................",
"................................................................................................................................",
"................................................................................................................................",
"................................................................................................................................",
"................................................................................................................................",
"..............................................                                                                                  ",
"..............................................                                                                                  ",
"..............................................                                                                                  ",
"..............................................                                                                                  ",
"..............................................                                                                                  ",
"..............................................                                                                                  ",
"..............................................                                                                                  ",
"..............................................                                                                                  ",
"..............................................                                                                                  ",
"..............................................                                                                                  ",
"..............................................                                                                                  ",
"..............................................                                                                                  ",
"..............................................                                                                                  ",
"..............................................                                                                                  ",
"..............................................                                                                                  ",
"..............................................                                                                                  ",
"..............................................                                                                                  ",
"..............................................                                                                                  ",
"..............................................                                                                                  ",
"..............................................                                                                                  ",
"..............................................                                                                                  ",
"..............................................                                                                                  ",
"..............................................                                                                                  ",
"..............................................                                                                                  ",
"..............................................                                                                                  ",
"..............................................                                                                                  ",
"..............................................                                                                                  ",
"..............................................                                                                                  ",
"..............................................                                                                                  ",
"..............................................                                                                                  ",
"..............................................                                                                                  ",
"..............................................                                                                                  ",
"..............................................                                                                                  ",
"..............................................                                                                                  ",
"..............................................                                                                                  ",
"..............................................                                                                                  ",
"..............................................                                                                                  ",
"..............................................                                                                                  ",
"..............................................                                      ............................................",
"..............................................                                      ............................................",
"..............................................                                      ............................................",
"..............................................                                      ............................................",
"..............................................                                      ............................................",
"..............................................                                      ............................................",
"..............................................                                      ............................................",
"..............................................                                      ............................................",
"..............................................                                      ............................................",
"..............................................                                      ............................................",
"..............................................                                      ............................................",
"..............................................                                      ............................................",
"..............................................                                      ............................................",
"..............................................                                      ............................................",
"..............................................                                      ............................................"
};
