/* XPM */
static char *ed4fcd2e05614a00bff1d093e385685dICytNdEDOBPbK4b9[] = {
/* columns rows colors chars-per-pixel */
"128 128 2 1 ",
"  c #010101",
". c white",
/* pixels */
"                                                                                                                               .",
"                                                                                                                               .",
"                                                                                                                               .",
"                                                                                                                               .",
"                                                                                                                               .",
"                                                                                                                               .",
"                                                                                                                               .",
"                                                                                                                               .",
"                                                                                                                               .",
"                                                                                                                               .",
"                                                                                                                               .",
"....................................................................................................................           .",
"....................................................................................................................           .",
"....................................................................................................................           .",
"....................................................................................................................           .",
"....................................................................................................................           .",
"....................................................................................................................           .",
"....................................................................................................................           .",
"....................................................................................................................           .",
"....................................................................................................................           .",
"....................................................................................................................           .",
"....................................................................................................................           .",
"....................................................................................................................           .",
"....................................................................................................................           .",
"....................................................................................................................           .",
"                                                                                                      ..............           .",
"                                                                                                      ..............           .",
"                                                                                                      ..............           .",
"                                                                                                      ..............           .",
"                                                                                                      ..............           .",
"                                                                                                      ..............           .",
"                                                                                                      ..............           .",
"                                                                                                      ..............           .",
"                                                                                                      ..............           .",
"                                                                                                      ..............           .",
"                                                                                                      ..............           .",
"                                                                                                      ..............           .",
"                                                                                                      ..............           .",
"                                                                                                      ..............           .",
"                                                                                                      ..............           .",
"                                                                                                      ..............           .",
"                                                                                                      ..............           .",
"                                                                                                      ..............           .",
"                                                                                                      ..............           .",
"                                                                                                      ..............           .",
"                                                                                                      ..............           .",
"                                                                                                      ..............           .",
"                                                                                                      ..............           .",
"                                                                                                      ..............           .",
"                                                                                                      ..............           .",
"                                                                                                      ..............           .",
"                                                                                                      ..............           .",
"                                                                                                      ..............           .",
"                                                                                                      ..............           .",
"                                                                                                      ..............           .",
"                                                                                                      ..............           .",
"                                                                                                      ..............           .",
"                                                                                                      ..............           .",
"                                                                                                      ..............           .",
"                                                                                                      ..............           .",
"                                                                                                      ..............           .",
"                                                                                                      ..............           .",
"                                                                                                      ..............           .",
"................................................................                                      ..............           .",
"................................................................                                      ..............           .",
"................................................................                                      ..............           .",
"................................................................                                      ..............           .",
"................................................................                                      ..............           .",
"................................................................                                      ..............           .",
"................................................................                                      ..............           .",
"................................................................                                      ..............           .",
"................................................................                                      ..............           .",
"................................................................                                      ..............           .",
"................................................................                                      ..............           .",
"................................................................                                      ..............           .",
"................................................................                                      ..............           .",
"................................................................                                      ..............           .",
"................................................................                                      ..............           .",
"................................................................                                      ..............           .",
"................................................................                                      ..............           .",
"................................................................                                      ..............           .",
"................................................................                                      ..............           .",
"................................................................                                      ..............           .",
"................................................................                                      ..............           .",
"................................................................                                      ..............           .",
"................................................................                                      ..............           .",
"................................................................                                      ..............           .",
"................................................................                                      ..............           .",
"................................................................                                      ..............           .",
"................................................................                                      ..............           .",
"................................................................                                      ..............           .",
"................................................................                                      ..............           .",
"................................................................                                      ..............           .",
"................................................................                                      ..............           .",
"................................................................                                      ..............           .",
"................................................................                                      ..............           .",
"................................................................                                      ..............           .",
"................................................................                                      ..............           .",
"................................................................                                      ..............           .",
"................................................................                                      ..............           .",
"................................................................                                      ..............           .",
"................................................................                                      ..............           .",
"................................................................                                      ..............           .",
"................................................................                                      ..............           .",
"................................................................                                      ..............           .",
"................................................................                                      ..............           .",
"................................................................                                      ..............           .",
"................................................................                                      ..............           .",
"................................................................                                      ..............           .",
"................................................................                                      ..............           .",
"................................................................                                      ..............           .",
"................................................................                                      ..............           .",
"................................................................                                      ..............           .",
"................................................................                                      ..............           .",
"................................................................                                      ..............           .",
"................................................................                                      ..............           .",
"................................................................                                      ..............           .",
"................................................................                                      ..............           .",
"................................................................                                      ..............           .",
"................................................................                                      ..............           .",
"................................................................                                      ..............           .",
"................................................................                                      ..............           .",
"................................................................                                      ..............           .",
"................................................................                                      ..............           .",
"................................................................                                      ..............           .",
"................................................................                                      ..............           .",
"................................................................                                      ..............           .",
"................................................................                                      ..............           ."
};
