/* XPM */
static char *fd730de5caa4463fcd526ff3cb958599dwQ5e2nWYvPvDLAC[] = {
/* columns rows colors chars-per-pixel */
"128 128 2 1 ",
"  c #010101",
". c white",
/* pixels */
".           ..............                                      ................................................................",
".           ..............                                      ................................................................",
".           ..............                                      ................................................................",
".           ..............                                      ................................................................",
".           ..............                                      ................................................................",
".           ..............                                      ................................................................",
".           ..............                                      ................................................................",
".           ..............                                      ................................................................",
".           ..............                                      ................................................................",
".           ..............                                      ................................................................",
".           ..............                                      ................................................................",
".           ..............                                      ................................................................",
".           ..............                                      ................................................................",
".           ..............                                      ................................................................",
".           ..............                                      ................................................................",
".           ..............                                      ................................................................",
".           ..............                                      ................................................................",
".           ..............                                      ................................................................",
".           ..............                                      ................................................................",
".           ..............                                      ................................................................",
".           ..............                                      ................................................................",
".           ..............                                      ................................................................",
".           ..............                                      ................................................................",
".           ..............                                      ................................................................",
".           ..............                                      ................................................................",
".           ..............                                      ................................................................",
".           ..............                                      ................................................................",
".           ..............                                      ................................................................",
".           ..............                                      ................................................................",
".           ..............                                      ................................................................",
".           ..............                                      ................................................................",
".           ..............                                      ................................................................",
".           ..............                                      ................................................................",
".           ..............                                      ................................................................",
".           ..............                                      ................................................................",
".           ..............                                      ................................................................",
".           ..............                                      ................................................................",
".           ..............                                      ................................................................",
".           ..............                                      ................................................................",
".           ..............                                      ................................................................",
".           ..............                                      ................................................................",
".           ..............                                      ................................................................",
".           ..............                                      ................................................................",
".           ..............                                      ................................................................",
".           ..............                                      ................................................................",
".           ..............                                      ................................................................",
".           ..............                                      ................................................................",
".           ..............                                      ................................................................",
".           ..............                                      ................................................................",
".           ..............                                      ................................................................",
".           ..............                                      ................................................................",
".           ..............                                      ................................................................",
".           ..............                                      ................................................................",
".           ..............                                      ................................................................",
".           ..............                                      ................................................................",
".           ..............                                      ................................................................",
".           ..............                                      ................................................................",
".           ..............                                      ................................................................",
".           ..............                                      ................................................................",
".           ..............                                      ................................................................",
".           ..............                                      ................................................................",
".           ..............                                      ................................................................",
".           ..............                                      ................................................................",
".           ..............                                      ................................................................",
".           ..............                                      ................................................................",
".           ..............                                      ................................................................",
".           ..............                                      ................................................................",
".           ..............                                      ................................................................",
".           ..............                                      ................................................................",
".           ..............                                      ................................................................",
".           ..............                                      ................................................................",
".           ..............                                      ................................................................",
".           ..............                                      ................................................................",
".           ..............                                      ................................................................",
".           ..............                                      ................................................................",
".           ..............                                      ................................................................",
".           ..............                                      ................................................................",
".           ..............                                      ................................................................",
".           ..............                                      ................................................................",
".           ..............                                      ................................................................",
".           ..............                                      ................................................................",
".           ..............                                      ................................................................",
".           ..............                                      ................................................................",
".           ..............                                      ................................................................",
".           ..............                                      ................................................................",
".           ..............                                      ................................................................",
".           ..............                                      ................................................................",
".           ..............                                      ................................................................",
".           ..............                                      ................................................................",
".           ..............                                      ................................................................",
".           ..............                                      ................................................................",
".           ..............                                      ................................................................",
".           ..............                                      ................................................................",
".           ..............                                      ................................................................",
".           ..............                                      ................................................................",
".           ..............                                      ................................................................",
".           ..............                                      ................................................................",
".           ..............                                      ................................................................",
".           ..............                                      ................................................................",
".           ..............                                      ................................................................",
".           ..............                                      ................................................................",
".           ..............                                      ................................................................",
".           ..............                                      ................................................................",
".           ..............                                      ................................................................",
".           ..............                                      ................................................................",
".           ..............                                      ................................................................",
".           ..............                                      ................................................................",
".           ..............                                      ................................................................",
".           ..............                                      ................................................................",
".           ..............                                      ................................................................",
".           ..............                                      ................................................................",
".           ..............                                      ................................................................",
".           ..............                                      ................................................................",
".           ..............                                      ................................................................",
".           ..............                                      ................................................................",
".           ..............                                      ................................................................",
".           ..............                                      ................................................................",
".           ..............                                      ................................................................",
".           ..............                                      ................................................................",
".           ..............                                      ................................................................",
".           ..............                                      ................................................................",
".           ..............                                      ................................................................",
".           ..............                                      ................................................................",
".           ..............                                      ................................................................",
".           ..............                                      ................................................................",
".           ..............                                      ................................................................",
".           ..............                                      ................................................................",
".           ..............                                      ................................................................"
};
