/* XPM */
static char *a8750566b3a1479890bad7878c9fadff3yPld2ciWHtxdioP[] = {
/* columns rows colors chars-per-pixel */
"128 64 53 1 ",
"  c #010101",
". c gray5",
"X c #161616",
"o c gray11",
"O c #222222",
"+ c gray15",
"@ c #2A2A2A",
"# c gray18",
"$ c #323232",
"% c #353535",
"& c gray23",
"* c #494949",
"= c gray31",
"- c #515151",
"; c #555555",
": c #585858",
"> c #5D5D5D",
", c #626262",
"< c gray40",
"1 c #686868",
"2 c gray43",
"3 c #727272",
"4 c #777777",
"5 c gray50",
"6 c #818181",
"7 c gray52",
"8 c #898989",
"9 c #8E8E8E",
"0 c gray57",
"q c gray59",
"w c #9B9B9B",
"e c #9F9F9F",
"r c gray63",
"t c #AAAAAA",
"y c gray68",
"u c #B1B1B1",
"i c gray71",
"p c #BBBBBB",
"a c gray74",
"s c gray77",
"d c #CACACA",
"f c #CDCDCD",
"g c gray83",
"h c gray84",
"j c #DADADA",
"k c #E2E2E2",
"l c #E4E4E4",
"z c gray91",
"x c gray93",
"c c gray95",
"v c gray96",
"b c #FBFBFB",
"n c white",
/* pixels */
"nnnnnnnnnnnnnnnnnnnnnnnnnnnnnnnnnnnnb9          $fnnnnnnnnnnnnnnnnnnnnnnnnnnnnnnnnnnnnk=           7vnnnnnnnnnnnnnnnnnnnnnnnnnnn",
"nnnnnnnnnnnnnnnnnnnnnnnnnnnnnnnnnnnv3             snnnnnnnnnnnnnnnnnnnnnnnnnnnnnnnnnnl&             6bnnnnnnnnnnnnnnnnnnnnnnnnnn",
"nnnnnnnnnnnnnnnnnnnnnnnnnnnnnnnnnnn0              ojnnnnnnnnnnnnnnnnnnnnnnnnnnnnnnnnn,               ynnnnnnnnnnnnnnnnnnnnnnnnnn",
"nnnnnnnnnnnnnnnnnnnnnnnnnnnnnnnnnnh                <nnnnnnnnnnnnnnnnnnnnnnnnnnnnnnnna                Oxnnnnnnnnnnnnnnnnnnnnnnnnn",
"nnnnnnnnnnnnnnnnnnnnnnnnnnnnnnnnnn2                 dnnnnnnnnnnnnnnnnnnnnnnnnnnnnnnn;                 ynnnnnnnnnnnnnnnnnnnnnnnnn",
"nnnnnnnnnnnnnnnnnnnnnnnnnnnnnnnnnx                  9nnnnnnnnnnnnnnnnnnnnnnnnnnnnnnl                  >nnnnnnnnnnnnnnnnnnnnnnnnn",
"nnnnnnnnnnnnnnnnnnnnnnnnnnnnnnnnns                  @nnnnnnnnnnnnnnnnnnnnnnnnnnnnnns                   vnnnnnnnnnnnnnnnnnnnnnnnn",
"nnnnnnnnnnnnnnnnnnnnnnnnnnnnnnnnni                   cnnnnnnnnnnnnnnnnnnnnnnnnnnnnnp                   znnnnnnnnnnnnnnnnnnnnnnnn",
"nnnnnnnnnnnnnnnnnnnnnnnnnnnnnnnnny                   xnnnnnnnnnnnnnnnnnnnnnnnnnnnnnp                   znnnnnnnnnnnnnnnnnnnnnnnn",
"nnnnnnnnnnnnnnnnnnnnnnnnnnnnnnnnnp                   bnnnnnnnnnnnnnnnnnnnnnnnnnnnnnd                   vnnnnnnnnnnnnnnnnnnnnnnnn",
"nnnnnnnnnnnnnnnnnnnnnnnnnnnnnnnnnh                  :nnnnnnnnnnnnnnnnnnnnnnnnnnnnnnz                  1nnnnnnnnnnnnnnnnnnnnnnnnn",
"nnnnnnnnnnnnnnnnnnnnnnnnnnnnnnnnnv+                 tnnnnnnnnnnnnnnnnnnnnnnnnnnnnnnn,                 innnnnnnnnnnnnnnnnnnnnnnnn",
"nnnnnnnnnnnnnnnnnnnnnnnnnnnnnnnnnne                .knnnnnnnnnnnnnnnnnnnnnnnnnnnnnnnd                %cnnnnnnnnnnnnnnnnnnnnnnnnn",
"nnnnnnnnnnnnnnnnnnnnnnnnnnnnnnnnnnx@               ennnnnnnnnnnnnnnnnnnnnnnnnnnnnnnnn4               annnnnnnnnnnnnnnnnnnnnnnnnn",
"nnnnnnnnnnnnnnnnnnnnnnnnnnnnnnnnnnnf              <vnnnnnnnnnnnnnnnnnnnnnnnnnnnnnnnnnx-             qnnnnnnnnnnnnnnnnnnnnnnnnnnn",
"nnnnnnnnnnnnnnnnnnnnnnnnnnnnnnnnnnnna.           <xnnnnnnnnnnnnnnnnnnnnnnnnnnnnnnnnnnnx1           rbnnnnnnnnnnnnnnnnnnnnnnnnnnn",
"nnnnnnnnnnnnnnnnnnnnnnnnnnnnnnnnnnnnnh>         qvnnnnnnnnnnnnnnnnnnnnnnnnnnnnnnnnnnnnnvu#       >hnnnnnnnnnnnnnnnnnnnnnnnnnnnnn",
"nnnnnnnnnnnnnnnnnnnnnnnnnnnnnnnnnnnnnnbs5X   *rknnnnnnnnnnnnnnnnnnnnnnnnnnnnnnnnnnnnnnnnnvdw528tjbnnnnnnnnnnnnnnnnnnnnnnnnnnnnnn",
"nnnnnnnnnnnnnnnnnnnnnnnnnnnnnnnnnnnnnnnnnbxzcnnnnnnnnnnnnnnnnnnnnnnnnnnnnnnnnnnnnnnnnnnnnnnnnnnnnnnnnnnnnnnnnnnnnnnnnnnnnnnnnnnn",
"nnnnnnnnnnnnnnnnnnnnnnnnnnnnnnnnnnnnnnnnnnnnnnnnnnnnnnnnnnnnnnnnnnnnnnnnnnnnnnnnnnnnnnnnnnnnnnnnnnnnnnnnnnnnnnnnnnnnnnnnnnnnnnnn",
"nnnnnnnnnnnnnnnnnnnnnnnnnnnnnnnnnnnnnnnnnnnnnnnnnnnnnnnnnnnnnnnnnnnnnnnnnnnnnnnnnnnnnnnnnnnnnnnnnnnnnnnnnnnnnnnnnnnnnnnnnnnnnnnn",
"nnnnnnnnnnnnnnnnnnnnnnnnnnnnnnnnnnnnnnnnnnnnnnnnnnnnnnnnnnnnnnnnnnnnnnnnnnnnnnnnnnnnnnnnnnnnnnnnnnnnnnnnnnnnnnnnnnnnnnnnnnnnnnnn",
"nnnnnnnnnnnnnnnnnnnnnnnnnnnnnnnnnnnnnnnnnnnnnnnnnnnnnnnnnnnnnnnnnnnnnnnnnnnnnnnnnnnnnnnnnnnnnnnnnnnnnnnnnnnnnnnnnnnnnnnnnnnnnnnn",
"nnnnnnnnnnnnnnnnnnnnnnnnnnnnnnnnnnnnnnnnnnnnnnnnnnnnnnnnnnnnnnnnnnnnnnnnnnnnnnnnnnnnnnnnnnnnnnnnnnnnnnnnnnnnnnnnnnnnnnnnnnnnnnnn",
"nnnnnnnnnnnnnnnnnnnnnnnnnnnnnnnnnnnnnnnnnnnnnnnnnnnnnnnnnnnnnnnnnnnnnnnnnnnnnnnnnnnnnnnnnnnnnnnnnnnnnnnnnnnnnnnnnnnnnnnnnnnnnnnn",
"nnnnnnnnnnnnnnnnnnnnnnnnnnnnnnnnnnnnnnnnnnnnnnnnnnnnnnnnnnnnnnnnnnnnnnnnnnnnnnnnnnnnnnnnnnnnnnnnnnnnnnnnnnnnnnnnnnnnnnnnnnnnnnnn",
"                                                                                                                                ",
"                                                                                                                                ",
"nnnnnnnnnnnnnnnnnnnnnnnnnnnnnnnnnnnnnnnnnnnnnnnnnnnnnnnnnnnnnnnnnnnnnnnnnnnnnnnnnnnnnnnnnnnnnnnnnnnnnnnnnnnnnnnnnnnnnnnnnnnnnnnn",
"nnnnnnnnnnnnnnnnnnnnnnnnnnnnnnnnnnnnnnnnnnnnnnnnnnnnnnnnnnnnnnnnnnnnnnnnnnnnnnnnnnnnnnnnnnnnnnnnnnnnnnnnnnnnnnnnnnnnnnnnnnnnnnnn",
"nnnnnnnnnnnnnnnnnnnnnnnnnnnnnnnnnnnnnnnnnnnnnnnnnnnnnnnnnnnnnnnnnnnnnnnnnnnnnnnnnnnnnnnnnnnnnnnnnnnnnnnnnnnnnnnnnnnnnnnnnnnnnnnn",
"nnnnnnnnnnnnnnnnnnnnnnnnnnnnnnnnnnnnnnnnnnnnnnnnnnnnnnnnnnnnnnnnnnnnnnnnnnnnnnnnnnnnnnnnnnnnnnnnnnnnnnnnnnnnnnnnnnnnnnnnnnnnnnnn",
"nnnnnnnnnnnnnnnnnnnnnnnnnnnnnnnnnnnnnnnnnnnnnnnnnnnnnnnnnnnnnnnnnnnnnnnnnnnnnnnnnnnnnnnnnnnnnnnnnnnnnnnnnnnnnnnnnnnnnnnnnnnnnnnn",
"nnnnnnnnnnnnnnnnnnnnnnnnnnnnnnnnnnnnnnnnnnnnnnnnnnnnnnnnnnnnnnnnnnnnnnnnnnnnnnnnnnnnnnnnnnnnnnnnnnnnnnnnnnnnnnnnnnnnnnnnnnnnnnnn",
"&XXXXXXXXXXXXXXXXXXXXXXXXXXXXXXXXXXXXXXXXXXXXXXXXXXXXXXXXXXXXXXXXXXXXXXXXXXXXXXXXXXXXXXXXXXXXXXXXXXXXXXXXXXXXXXXXXXXXXXXXXXXXXXX",
"$                                                                                                                               ",
"$                                                                                                                               ",
"$                                                                                                                               ",
"$                                                                                                                               ",
"$                                                                                                                               ",
"$                                                                                                                               ",
"$                                                                                                                               ",
"$                                                                                                                               ",
"$                                                                                                                               ",
"$                                                                                                                               ",
"$                                                                                                                               ",
"$                                                                                                                               ",
"$                                                                                                                               ",
"$                                                                                                                               ",
"$                                                                                                                               ",
"$                                                                                                                               ",
"$                                                                                                                               ",
"$                                                                                                                               ",
"$                                                                                                                               ",
"$                                                                                                                               ",
"$                                                                                                                               ",
"$                                                                                                                               ",
"$                                                                                                                               ",
"$                                                                                                                               ",
"$                                                                                                                               ",
"$                                                                                                                               ",
"$                                                                                                                               ",
"$                                                                                                                               ",
"$                                                                                                                               "
};
