/* XPM */
static char *d4609375cea64a01a81ea9d9c563fa2dOViC7u9fIZtPunli[] = {
/* columns rows colors chars-per-pixel */
"128 64 54 1 ",
"  c black",
". c #010101",
"X c gray5",
"o c #161616",
"O c gray11",
"+ c #222222",
"@ c gray15",
"# c #2A2A2A",
"$ c gray18",
"% c #323232",
"& c #353535",
"* c gray23",
"= c #494949",
"- c gray31",
"; c #515151",
": c #555555",
"> c #585858",
", c #5D5D5D",
"< c #626262",
"1 c gray40",
"2 c #686868",
"3 c gray43",
"4 c gray44",
"5 c #777777",
"6 c gray50",
"7 c #808080",
"8 c gray52",
"9 c #898989",
"0 c gray56",
"q c gray57",
"w c #959595",
"e c gray61",
"r c gray63",
"t c #AAAAAA",
"y c gray68",
"u c #B1B1B1",
"i c gray71",
"p c #BBBBBB",
"a c gray",
"s c gray77",
"d c #CACACA",
"f c #CDCDCD",
"g c gray83",
"h c gray84",
"j c #DADADA",
"k c gainsboro",
"l c #E2E2E2",
"z c #E4E4E4",
"x c gray91",
"c c #EEEEEE",
"v c #F3F3F3",
"b c gray97",
"n c gray98",
"m c white",
/* pixels */
"%                                                                                                                               ",
"%                                                                                                                               ",
"%                                                                                                                               ",
"%                                                                                                                               ",
"%                                                                                                                               ",
"%                                                                                                                               ",
"%                                                                                                                               ",
"%                                                                                                                               ",
"%                                                                                                                               ",
"%                                                                                                                               ",
"%                                                                                                                               ",
"%                                                                                                                               ",
"%                                                                                                                               ",
"%                                                                                                                               ",
"%                                                                                                                               ",
"%                                                                                                                               ",
"%                                                                                                                               ",
"%                                                                                                                               ",
"%                                                                                                                               ",
"%                                                                                                                               ",
"%                                                                                                                               ",
"%                                                                                                                               ",
"%                                                                                                                               ",
"%                                                                                                                               ",
"%                                                                                                                               ",
"%                                                                                                                               ",
"%                                                                                                                               ",
"%                                                                                                                               ",
"%                                                                                                                               ",
"*ooooooooooooooooooooooooooooooooooooooooooooooooooooooooooooooooooooooooooooooooooooooooooooooooooooooooooooooooooooooooooooooo",
"mmmmmmmmmmmmmmmmmmmmmmmmmmmmmmmmmmmmmmmmmmmmmmmmmmmmmmmmmmmmmmmmmmmmmmmmmmmmmmmmmmmmmmmmmmmmmmmmmmmmmmmmmmmmmmmmmmmmmmmmmmmmmmmm",
"mmmmmmmmmmmmmmmmmmmmmmmmmmmmmmmmmmmmmmmmmmmmmmmmmmmmmmmmmmmmmmmmmmmmmmmmmmmmmmmmmmmmmmmmmmmmmmmmmmmmmmmmmmmmmmmmmmmmmmmmmmmmmmmm",
"mmmmmmmmmmmmmmmmmmmmmmmmmmmmmmmmmmmmmmmmmmmmmmmmmmmmmmmmmmmmmmmmmmmmmmmmmmmmmmmmmmmmmmmmmmmmmmmmmmmmmmmmmmmmmmmmmmmmmmmmmmmmmmmm",
"mmmmmmmmmmmmmmmmmmmmmmmmmmmmmmmmmmmmmmmmmmmmmmmmmmmmmmmmmmmmmmmmmmmmmmmmmmmmmmmmmmmmmmmmmmmmmmmmmmmmmmmmmmmmmmmmmmmmmmmmmmmmmmmm",
"mmmmmmmmmmmmmmmmmmmmmmmmmmmmmmmmmmmmmmmmmmmmmmmmmmmmmmmmmmmmmmmmmmmmmmmmmmmmmmmmmmmmmmmmmmmmmmmmmmmmmmmmmmmmmmmmmmmmmmmmmmmmmmmm",
"mmmmmmmmmmmmmmmmmmmmmmmmmmmmmmmmmmmmmmmmmmmmmmmmmmmmmmmmmmmmmmmmmmmmmmmmmmmmmmmmmmmmmmmmmmmmmmmmmmmmmmmmmmmmmmmmmmmmmmmmmmmmmmmm",
"                                                                                                                                ",
"                                                                                                                                ",
"mmmmmmmmmmmmmmmmmmmmmmmmmmmmmmmmmmmmmmmmmmmmmmmmmmmmmmmmmmmmmmmmmmmmmmmmmmmmmmmmmmmmmmmmmmmmmmmmmmmmmmmmmmmmmmmmmmmmmmmmmmmmmmmm",
"mmmmmmmmmmmmmmmmmmmmmmmmmmmmmmmmmmmmmmmmmmmmmmmmmmmmmmmmmmmmmmmmmmmmmmmmmmmmmmmmmmmmmmmmmmmmmmmmmmmmmmmmmmmmmmmmmmmmmmmmmmmmmmmm",
"mmmmmmmmmmmmmmmmmmmmmmmmmmmmmmmmmmmmmmmmmmmmmmmmmmmmmmmmmmmmmmmmmmmmmmmmmmmmmmmmmmmmmmmmmmmmmmmmmmmmmmmmmmmmmmmmmmmmmmmmmmmmmmmm",
"mmmmmmmmmmmmmmmmmmmmmmmmmmmmmmmmmmmmmmmmmmmmmmmmmmmmmmmmmmmmmmmmmmmmmmmmmmmmmmmmmmmmmmmmmmmmmmmmmmmmmmmmmmmmmmmmmmmmmmmmmmmmmmmm",
"mmmmmmmmmmmmmmmmmmmmmmmmmmmmmmmmmmmmmmmmmmmmmmmmmmmmmmmmmmmmmmmmmmmmmmmmmmmmmmmmmmmmmmmmmmmmmmmmmmmmmmmmmmmmmmmmmmmmmmmmmmmmmmmm",
"mmmmmmmmmmmmmmmmmmmmmmmmmmmmmmmmmmmmmmmmmmmmmmmmmmmmmmmmmmmmmmmmmmmmmmmmmmmmmmmmmmmmmmmmmmmmmmmmmmmmmmmmmmmmmmmmmmmmmmmmmmmmmmmm",
"mmmmmmmmmmmmmmmmmmmmmmmmmmmmmmmmmmmmmmmmmmmmmmmmmmmmmmmmmmmmmmmmmmmmmmmmmmmmmmmmmmmmmmmmmmmmmmmmmmmmmmmmmmmmmmmmmmmmmmmmmmmmmmmm",
"mmmmmmmmmmmmmmmmmmmmmmmmmmmmmmmmmmmmmmmmmncxvmmmmmmmmmmmmmmmmmmmmmmmmmmmmmmmmmmmmmmmmmmmmmmmmmmmmmmmmmmmmmmmmmmmmmmmmmmmmmmmmmmm",
"mmmmmmmmmmmmmmmmmmmmmmmmmmmmmmmmmmmmmmns7o   =rlmmmmmmmmmmmmmmmmmmmmmmmmmmmmmmmmmmmmmmmmmbde639tjmmmmmmmmmmmmmmmmmmmmmmmmmmmmmmm",
"mmmmmmmmmmmmmmmmmmmmmmmmmmmmmmmmmmmmmh,         wbmmmmmmmmmmmmmmmmmmmmmmmmmmmmmmmmmmmmmbu$       ,fmmmmmmmmmmmmmmmmmmmmmmmmmmmmm",
"mmmmmmmmmmmmmmmmmmmmmmmmmmmmmmmmmmmmaX           2cmmmmmmmmmmmmmmmmmmmmmmmmmmmmmmmmmmmc2           rnmmmmmmmmmmmmmmmmmmmmmmmmmmm",
"mmmmmmmmmmmmmmmmmmmmmmmmmmmmmmmmmmmf              1bmmmmmmmmmmmmmmmmmmmmmmmmmmmmmmmmmv;             wmmmmmmmmmmmmmmmmmmmmmmmmmmm",
"mmmmmmmmmmmmmmmmmmmmmmmmmmmmmmmmmmc#               emmmmmmmmmmmmmmmmmmmmmmmmmmmmmmmmn5               ammmmmmmmmmmmmmmmmmmmmmmmmm",
"mmmmmmmmmmmmmmmmmmmmmmmmmmmmmmmmmmr                Xzmmmmmmmmmmmmmmmmmmmmmmmmmmmmmmmd                &vmmmmmmmmmmmmmmmmmmmmmmmmm",
"mmmmmmmmmmmmmmmmmmmmmmmmmmmmmmmmmb@                 tmmmmmmmmmmmmmmmmmmmmmmmmmmmmmmm<                 immmmmmmmmmmmmmmmmmmmmmmmm",
"mmmmmmmmmmmmmmmmmmmmmmmmmmmmmmmmmh                  >mmmmmmmmmmmmmmmmmmmmmmmmmmmmmmz                  2mmmmmmmmmmmmmmmmmmmmmmmmm",
"mmmmmmmmmmmmmmmmmmmmmmmmmmmmmmmmmp                   nmmmmmmmmmmmmmmmmmmmmmmmmmmmmmd                   nmmmmmmmmmmmmmmmmmmmmmmmm",
"mmmmmmmmmmmmmmmmmmmmmmmmmmmmmmmmmy                   cmmmmmmmmmmmmmmmmmmmmmmmmmmmmma                   xmmmmmmmmmmmmmmmmmmmmmmmm",
"mmmmmmmmmmmmmmmmmmmmmmmmmmmmmmmmmi                   vmmmmmmmmmmmmmmmmmmmmmmmmmmmmmp                   xmmmmmmmmmmmmmmmmmmmmmmmm",
"mmmmmmmmmmmmmmmmmmmmmmmmmmmmmmmmms                  #mmmmmmmmmmmmmmmmmmmmmmmmmmmmmmd                   bmmmmmmmmmmmmmmmmmmmmmmmm",
"mmmmmmmmmmmmmmmmmmmmmmmmmmmmmmmmmx                  0mmmmmmmmmmmmmmmmmmmmmmmmmmmmmml                  ,mmmmmmmmmmmmmmmmmmmmmmmmm",
"mmmmmmmmmmmmmmmmmmmmmmmmmmmmmmmmmm4                 dmmmmmmmmmmmmmmmmmmmmmmmmmmmmmmm:                 ymmmmmmmmmmmmmmmmmmmmmmmmm",
"mmmmmmmmmmmmmmmmmmmmmmmmmmmmmmmmmmh                1mmmmmmmmmmmmmmmmmmmmmmmmmmmmmmmma                +cmmmmmmmmmmmmmmmmmmmmmmmmm",
"mmmmmmmmmmmmmmmmmmmmmmmmmmmmmmmmmmmq              Okmmmmmmmmmmmmmmmmmmmmmmmmmmmmmmmmm<               ymmmmmmmmmmmmmmmmmmmmmmmmmm",
"mmmmmmmmmmmmmmmmmmmmmmmmmmmmmmmmmmmn4             smmmmmmmmmmmmmmmmmmmmmmmmmmmmmmmmmmz*             7nmmmmmmmmmmmmmmmmmmmmmmmmmm",
"mmmmmmmmmmmmmmmmmmmmmmmmmmmmmmmmmmmmn0          %fmmmmmmmmmmmmmmmmmmmmmmmmmmmmmmmmmmmml-           8bmmmmmmmmmmmmmmmmmmmmmmmmmmm"
};
