/* XPM */
static char *c575ea9da2e244f5a43372e951ca12264mRQSDu11CfToJxO[] = {
/* columns rows colors chars-per-pixel */
"128 128 2 1 ",
"  c #010101",
". c white",
/* pixels */
"................................................................                                      ..............           .",
"................................................................                                      ..............           .",
"................................................................                                      ..............           .",
"................................................................                                      ..............           .",
"................................................................                                      ..............           .",
"................................................................                                      ..............           .",
"................................................................                                      ..............           .",
"................................................................                                      ..............           .",
"................................................................                                      ..............           .",
"................................................................                                      ..............           .",
"................................................................                                      ..............           .",
"................................................................                                      ..............           .",
"................................................................                                      ..............           .",
"................................................................                                      ..............           .",
"................................................................                                      ..............           .",
"................................................................                                      ..............           .",
"................................................................                                      ..............           .",
"................................................................                                      ..............           .",
"................................................................                                      ..............           .",
"................................................................                                      ..............           .",
"................................................................                                      ..............           .",
"................................................................                                      ..............           .",
"................................................................                                      ..............           .",
"................................................................                                      ..............           .",
"................................................................                                      ..............           .",
"................................................................                                      ..............           .",
"................................................................                                      ..............           .",
"................................................................                                      ..............           .",
"................................................................                                      ..............           .",
"................................................................                                      ..............           .",
"................................................................                                      ..............           .",
"................................................................                                      ..............           .",
"................................................................                                      ..............           .",
"................................................................                                      ..............           .",
"................................................................                                      ..............           .",
"................................................................                                      ..............           .",
"................................................................                                      ..............           .",
"................................................................                                      ..............           .",
"................................................................                                      ..............           .",
"................................................................                                      ..............           .",
"................................................................                                      ..............           .",
"................................................................                                      ..............           .",
"................................................................                                      ..............           .",
"................................................................                                      ..............           .",
"................................................................                                      ..............           .",
"................................................................                                      ..............           .",
"................................................................                                      ..............           .",
"................................................................                                      ..............           .",
"................................................................                                      ..............           .",
"................................................................                                      ..............           .",
"................................................................                                      ..............           .",
"................................................................                                      ..............           .",
"................................................................                                      ..............           .",
"................................................................                                      ..............           .",
"................................................................                                      ..............           .",
"................................................................                                      ..............           .",
"................................................................                                      ..............           .",
"................................................................                                      ..............           .",
"................................................................                                      ..............           .",
"................................................................                                      ..............           .",
"................................................................                                      ..............           .",
"................................................................                                      ..............           .",
"................................................................                                      ..............           .",
"................................................................                                      ..............           .",
"................................................................                                      ..............           .",
"................................................................                                      ..............           .",
"................................................................                                      ..............           .",
"................................................................                                      ..............           .",
"................................................................                                      ..............           .",
"................................................................                                      ..............           .",
"................................................................                                      ..............           .",
"................................................................                                      ..............           .",
"................................................................                                      ..............           .",
"................................................................                                      ..............           .",
"................................................................                                      ..............           .",
"................................................................                                      ..............           .",
"................................................................                                      ..............           .",
"................................................................                                      ..............           .",
"................................................................                                      ..............           .",
"................................................................                                      ..............           .",
"................................................................                                      ..............           .",
"................................................................                                      ..............           .",
"................................................................                                      ..............           .",
"................................................................                                      ..............           .",
"................................................................                                      ..............           .",
"................................................................                                      ..............           .",
"................................................................                                      ..............           .",
"................................................................                                      ..............           .",
"................................................................                                      ..............           .",
"................................................................                                      ..............           .",
"................................................................                                      ..............           .",
"................................................................                                      ..............           .",
"................................................................                                      ..............           .",
"................................................................                                      ..............           .",
"................................................................                                      ..............           .",
"................................................................                                      ..............           .",
"................................................................                                      ..............           .",
"................................................................                                      ..............           .",
"................................................................                                      ..............           .",
"................................................................                                      ..............           .",
"................................................................                                      ..............           .",
"................................................................                                      ..............           .",
"................................................................                                      ..............           .",
"................................................................                                      ..............           .",
"................................................................                                      ..............           .",
"................................................................                                      ..............           .",
"................................................................                                      ..............           .",
"................................................................                                      ..............           .",
"................................................................                                      ..............           .",
"................................................................                                      ..............           .",
"................................................................                                      ..............           .",
"................................................................                                      ..............           .",
"................................................................                                      ..............           .",
"................................................................                                      ..............           .",
"................................................................                                      ..............           .",
"................................................................                                      ..............           .",
"................................................................                                      ..............           .",
"................................................................                                      ..............           .",
"................................................................                                      ..............           .",
"................................................................                                      ..............           .",
"................................................................                                      ..............           .",
"................................................................                                      ..............           .",
"................................................................                                      ..............           .",
"................................................................                                      ..............           .",
"................................................................                                      ..............           .",
"................................................................                                      ..............           .",
"................................................................                                      ..............           .",
"................................................................                                      ..............           ."
};
