/* XPM */
static char *result[] = {
/* columns rows colors chars-per-pixel */
"128 128 84 1 ",
"  c #000000",
". c #0A0006",
"X c #02030D",
"o c #0D0008",
"O c #040514",
"+ c #06091E",
"@ c #170011",
"# c #1D0015",
"$ c #11061C",
"% c #24001C",
"& c #0B0F29",
"* c #0B102A",
"= c #0F1432",
"- c #141637",
"; c #121738",
": c #1F183E",
"> c #200623",
", c #2A0020",
"< c #2A0629",
"1 c #28092B",
"2 c #300025",
"3 c #35022C",
"4 c #38002C",
"5 c #240F32",
"6 c #370632",
"7 c #350B35",
"8 c #380E35",
"9 c #340F3A",
"0 c #241234",
"q c #20163B",
"w c #2C143D",
"e c #20183C",
"r c #371137",
"t c #381036",
"y c #34133D",
"u c #38173C",
"i c #37183D",
"p c #161D43",
"a c #181F47",
"s c #2B1740",
"d c #2F1A46",
"f c #251F49",
"g c #2E1D4A",
"h c #321541",
"j c #321A44",
"k c #311E48",
"l c #192049",
"z c #1F2755",
"x c #2D214E",
"c c #362147",
"v c #35244B",
"b c #38264B",
"n c #36294E",
"m c #382A4F",
"M c #262656",
"N c #292353",
"B c #2D2955",
"V c #252758",
"C c #222A5C",
"Z c #292B5A",
"A c #332750",
"S c #332B54",
"D c #2D315D",
"F c #36345B",
"G c #273060",
"H c #2B3563",
"J c #2F3A67",
"K c #333761",
"L c #313B67",
"P c #323D69",
"I c #37446E",
"U c #39466E",
"Y c #3A486E",
"T c #394770",
"R c #3C4A72",
"E c #404F75",
"W c #425176",
"Q c #455579",
"! c #47587B",
"~ c #4A5C7E",
"^ c #4D5F81",
"/ c #4F6182",
"( c #526585",
") c #566A89",
/* pixels */
"      .@#,,,,,%,,%<1-apq0<%%2%,5qpaaaaaaaaaaaaaaaalaaaaallllplllllllllllpll:01%,%,,%,,%%2%%2,,,%,,%%2%2%,,,,,,,,,,,,,,,,,,%,,%%%",
"      o#,,222333336wsNNfw63,336ygMzzzzzVzzzzzzzzzzzzzzzzzzzzzzzzzzzlzzzzlzlNwr32333333333323233333333234332223233233332323233332",
"   XXO$><666666888udBZZNcittttyjVZCGCCCCCCCCCCCGCGCCCCCCCCCCzCGzGCCCCGGzCCCBxi88866644444444466636666636666666666666666666663442",
"  O+&--qwhhhhhjjkbnSDDDDBnbbbnnnGGHHGHHHHHHHHHHHHGHHHHHHHHHHHHHHHHHHGHHHHHHDSnbcjhh9734444469hhhhhhhhhhihhhhhhhhhhhyhhhhhhyy9342",
"  O*;plfffggxgxBSFFFKPKFFFFFFmFFJJJJJJJJJJJJJJJJJJJHJHJJJJJJJJJJJJJJJJHJJJJFFFFSSAgd9844444thkkggxgggxgxgxgggggNgxgxgfkgxggdu842",
"  +=plzMMMVMMMZGKFPPIIILIFIFLIIIPIPPIPIPIPIPIPIPIJIIIIIIPIIPPIPIIIJIIIIPIPIIIPPKDZMgh944444yjNVVMMVMMMMMVMMVVMVzMMMMVVMMMVVgj942",
"  +;lzCCCCCCCCGHLIIIIIIIYUIIIIIIIIIIIITIIIIIIIIIUIIIIIIIIUIIIIIIIIIIIIIIIIIIIIIPHGVxk944443hkNCCCCCCCCCCCCCCCCCCCCCCCCCCCCCNjy42",
"  +;lzCCCCCCCCCHJIIIIIIIUUIIIIIIIIIIIIIIIIIIIIIIIIIIIIIIIIIIIIIIIIIIIIIIIIIIIIIPJGCNd944443hgVCCCCCCCCCCCCCCCCCCCCCCCCCCCCCNdy42",
"  +;lzCCCCCzCCCHJPIIIIIIUIIIIIIIIIITIIIIIIIIIIIIIIIIIIIIIUIIIIIIIUIIIUIIIIIIIIILHGVNd944444hgMCCCCCCCCCCCCCCCCCCCCCCCzCCCCCNdy32",
"  +;lzCCCCCCCCGHJIIIIUIIIIIUIIIIIIIIIIIIIIIIIIIIIIIIIIIIIIIIUIIIIIIIIIIIIIIIIIIPHGCNd944444hgMCCCCCCCCCCCCCCCCCCCCCCCCCCCCCNd942",
"  +;lzCCCCCCCCGHJIIUIUUIIIIIIIIIIIIIIIIIIIITIIIIIIIIIIIIIIIIIIIIIIIUIIIUIIIIIIILJGVxd944446hgMCCCCCCCCCCCCCCCCCCCCCCCCCCCCCNjy42",
"  +;lzCCCCCCCCCHJIIIIIIIIIIIIIUIIIIIIIIIIIIIIIIIIIIIUIIIIIIIIIIIIIIIIUIIIIIIIIIPJGVNd944444hgMCCCCCCCCCCCCCCCCCCCCCCCCCCCCCNdy42",
"  +;lzCCCCCCCCCHJIIIIIIIIIIIIIIIIITIIIIIIIIIIITIIIIIIIIIIIUIIIIIIIIIIIIIIIIIIIIPJCVNj944444hgMCCCCCCCCCCCCCCCCCCCCCCzCCCCCCNdy42",
"  +;lzCCCCCCCCGHJPIIIUUIIIIIIIIIIIIIIIIIIIIIIIIIIIIIIIIIIUIIUIUIIUIIIIIIIIIIIIIPHGCNjy44444hkMCCCCCzCCCCCCCCCCCCCCCCCCCCCCCNdy42",
"  +;lzCCCCCCCCGHPPIIIIIIIIITTTUYTTTTTIIIIIIIIIIIIIIIIIIIIIIIIIUIIIIIIIIIIIIIIIILJGVNk944446hgMVCCCCCCCCCCCGCCCGGCCCCCCCCCCCNky42",
"  +;lzCCCCCCCCCHJIIIIIIIIITRRWQWQQQRRTIIIITIIIIIIIIIIIIIIIIIIIIIIIIIIIIIIIIIIIIPHGVNd944444hgVCCCCCCCCCCGGHHHHGGCCCCCCCCCCCNdy42",
"  &;lzCCCCCCCCGHPIIIIIITIITWW!^^~~~QETIIIIIIIIIIIITIIIIIIIIIIIIIIUIUIIIIIIIIIIIJJGVNd944446hgMCCCCCCCCCGGLPPLPLLHGCCCCCCCCCMgh42",
"  +;lzCCCCCCCCCHJPIIIIIIIITW^^(((((~QRIIIIITIIIIIIIIIIIIIIITIIIIIIIIIIIIIITIIIIPHGVNd944444hkMCCCCzCCCCGHPPPPPPLHGCCzCCCCCzNg942",
"  +=lzCCCCCCCCGHPIITIIIIIITQ^((())(^!RIIIIIIIIIIIIIIIIIIIIIIIIIIIIIIUIIIIIIIIIIPJGCNk944444ygMCCCCCCCCCHPPIITIPPHGCCCCCCCCCNjy42",
"  &;lzCCCCCCCCCHJPIIIIIIIITQ^())))(^!RIIIIIITIIIIIIIIIITIIIIIIIIIIIIIIIIIIIIIIIJHGCNk944444hgVCCCCCCCCCGLPIIIIEPJGCCCCCCCCCNky42",
"  +;lzCCCCCCCCGHJPIIIIIIIITQ^(())))^!RIIIIIIIIIIIIIIIIIIIIIIIIITIIIIIIIIIIIIIIIPJGCNd944444hkMCCCCCCCCCHJIIIIIIPHGCCCCCCCCCNdh42",
"  +;lzCCCCCCCCGHPIIIPTIIIURQ^/)))))^!RIIIITIIIIIIIIIIIIIIIIIIIIIUIIIIIIIIIIIIIIPHZCgd944446hgMCCCCCCCCCHJPIIIIPPJGCCCCCCCCCNd942",
"  +;lzCCCCCCCCGHJITITTTTIITW^^(((((~QTIIIIIIIIIIIIIIIIIIIIIIIIIIIIIIIIIIITIIIIIJHGCNd944444hgMCCCCCCCCCGKPIPEPPLJGCCCCCCCCCNky42",
"  +;lzCCCCCCCzCHJPIITPPTIITRE!!^!!!QETIIIIIIIIIIITIIIIIIIIITIIIIIIIIIUIIIIIIIIIPPGCNd944446hgMCCCCCCCCCDDFFFFFFKGZCCCCCCCCCNky42",
"  +;lzCCCCCCCCGHHIIIIIIIIIIITRRYTRRRTTTIIIIIIIIIIIIIIIIIIIIIIIIIIIIIIIIIIIITIIIPHGCNj934444hgMCCCCCCCCCCBSmmmmmSZVCCCCCCVzCNd942",
"  +;lzCCCCCCCCCHJIIIIIIIIIIIPLJLJJJPPPIIIIIIIIIIIIIIITIIIIIIIIIIIIIIIIIIIIIIIIIJHGVNd944444hgMCCCCCCCCCMxjuuuuhkxMCCCzCCCCCNdh42",
"  +;lzCCCCCCCCCHJIIIIIIIIIIJHGCZGCGHPIIIIIIIIIIIIIIIIIIIIIIIIIIIIIIIIIIIIIIIIIIPLGVNd944446hgMCCCCCCCCCNgh66667hgMCCCCCCCCCNdy42",
"  +;lzCCCCCCCCGHJIIIIIIITIIPPJHHHHHJPIIIIIITIIIIIIIIIIIIIITIIITIIIIUIIIIIIIIIIIPHGVNk944444hgMCCCCCCCCVMNghhhhhkNVCCCCCCCCzNdy42",
"  +;lzCCCCCCCCZHJIIIIIIIIIIIIHJJJJJJIIIIIIITTIIIIIIIIIIIIIIIIIIIIIIIIITIIIIIIIIJHGVNd944444hgVCCCCCzCCCVMNggxgxNMVCCCCCCCCCNd942",
"  +;lzCCCCCCCCGHJIIIIIIIIIIIIIIIIPIIIIIIIIIIIIIIIIITIITIIIIIIIIIIIIIIIIIIIITIIIPLGVNd944443hgNCCCCCCCCCCVVVVVMVVVVCCzCCCCCCNkh42",
"  +=lzCCCCCCCCCHJIIIIIIIIIIIIIIIIIIIIIIIIIIIIIIIIIIIIITTIIIIIIIIIITIIIIIIIIIIIIPHGVNd944446igNCCCCCCCCCCCCCCCCCCCCCCCCCCCCCNky42",
"  &;lzCCzCCCCCCHJPIIIIIIIIIIIIIIIIIIIIIIIIIIIIIIIIIIIIIIIIIIIIIIIIIIIIIIIIIIIIIJJGVNd944444hgVCCCCCCCCCCCCCCCCCCCCCCCCCCCCCNdy42",
"  +;lzCCCCCCCCGHJPTIIIIIIIIIIIIIITIIIITIIITIIIIIIIIIIIIIIIIIIIIIIIITIIIIIIIIIIIPJGCNd944444hkMCCCCCCCCCCCCCCCCCCCCCCCCCCCCCzdh6<",
"  +;lzCCCCCCCCCHPIIIIIIITIIIIIIIIIIIIIIIIIIIIIIIIIIIIIIIIIIIIIIIIIIIIIIIIIIIIIIPHZCgd944444hgMCCCCCCCCCCCCCCCCCCCCCCCCCCCCCzdh4<",
"  +;lzCCCCCCCCGHPPIIIIIIIIIIIIIIIIIIIIIIIIIIIIIIIIIIIIITIIIIIIIIIIIIIIIIIIIIIIIPHGCNj944446hgMCCCCCCCCCCCCCzCCCCCCCCCCCCCCCzk942",
"  +;lzCCzCCCCCCHPPIIIIIIIIIIIIIIIIIIIIIIIIIIIIIIIITIIIIIIIIIIIIIIIIIIIIIIIIIIIPPJGCNd944444hgMCCCCCCCCCCCCCCCCCCCCCCCCCCzCCzdh42",
"  +;lzCCCCCCCCGHJPTIIIIIIIIIIIITIIIIIIIIIIIIIIIIIIIIIIIIIIIIIIIIIIIIIIITIIIIIIIPHGVNd944444hgMCCCCCCCCCCCCCCCCCCCCCCCCCCCCCNd942",
"  +;lzCCCCCCCCCHPIIITIIIIIIIIIIIIIIIIIIIIIITTIIIIIIIIIIIITIIIIIIIIIIIIIIIUIIIIIPJGVNd944444hgMCCCCCCCCCCCCCCCCCCzCCCCCCCCCCNkh42",
"  +;lzCCCCCCCCGHPPIIIIIIIITIIIIIIIIIIIIIIIIIIIIIIIIITIIIIIIIIIIIIIIIIIIIIIIIIIIPJGCNk944446hgMCVCCCCCCCCCCCCCCCCCCCCCCCCCCCNky42",
"  +;lzCCCCCCCCCHPPIIIIIIIIIIIIIIITIIIITIIIIIIIIIIIIIIIIIIIIIIIITIITIIIIUIIIIIIIPHGVxjy44444hkVCCCCCCCCCCCCCCCCCCCCCCCCCCCCCNdy42",
"  &;lzCCCCCCCCCHPPIIIIIIIIIIIIIIIIIIIIIIIIIIIIIIIIIIIIIIIIIIIIIIIIIIIIIIIIIIITIPJGVNd944446hgVCCCCCCCCzCCCCCCCCCCCCCCCCCCCCNd932",
"  +;lzCCCCCCCCGHJIIITIIIITIIIIIIITIIIIIIIIIIIIIIIIIIIIIIIIIIIITIIIIITIIIIIIIIIPPHGVNd944444hgNCCCCCCCCCCCCCCCCCCCCCCCCCCCCCNd942",
"  +=lzCCCCCCCCCHPPIIIIIIIIIIIITIIIIIIIIIITIIIIIIIIIIIIIIIIIIIIIIIIIIIIIIIIIIIIIPJGVNk944444hgMCCCCCCCCCCCCCCCCCCCCCCCzCCCCCNky42",
"  &;lzCCCCCCCCGHJIIIIIIIIIIIIIIIIIIIIITTIIIIIIITIIIITIIITIIIIIIIIIIIIIIIIIIIIIIPHGVNd944444hgVCCCCCzCCCCCCzCCCCCCCCCCCCCCCzNdy42",
"  +;lzCCCCCCCCCHJPTIIIIIIIIIIIIIIIIIITPPPTIIIIIIIIIIIITIIIIIIIIIIIIIIIIITIIIIIPPHGVNd944446hgMCCCCCCCCCCCCCCCCCCCCCCCCCCCCCNdh42",
"  +;lzCCCCCCCCGHPPIIIIIIIIIIIIIIIIIIIITTTIIIIIIIIITIIIIIIIIIIIIIIIIIIIITIIIIITIPJGVxd944444hgMCCCCCCCCCCCCCCCCCCCCCCCCCzCCCNg942",
"  +;lzCCCCCCCCCHJIIIIIIITIIIIIIIIIIIIIIITPIIPTIIIIIIIIIIIIIIIIIITIIIIIIIIIIIIIIPHGCNd944444hgMCCCCCCCCCCCCCCCCCCCCCCCCCCCCCNjy42",
"  +;lzCCCCCCCCGHJIIIIIIIIIIIIIIITIIIIIIITTITTIIIIIIIIIIIIIIIIIITIIIIIIIIIIIIIIIPJGCNd944444hkMCCCCCCCCCCCCCCCCCCCCCCCCCCCCCNdy42",
"  +;lzCCCCCCCCCHJIIIIIIIIIIIIIIIIIIIIIIIIITIIIITPTTTPTPTTPTIIIIIIIIIIIIIIIIIIIIPHGVNh944446ygMCCCCCCCCCCzCCCCCCCCCCCCCCCCCCMdh42",
"  +;lzCCCCCCCCGHHIIIIIIIIIIIIITIIIIIIITIIIIIIIIIITPTTTPTIITIIIIIIIIIIIITIIIIIIIPPGCNk944443hgMCCCCCCCCCCCCCCCCCCCCCCCCCCCCVMdh42",
"  +;lzCCCCCCCCCHJIIIIIIIITIIIIIIIIIIIIIIIIIIIIIIIIIITPTTIIITIIIIIIIIIIIIIIIIIIIPHGVNd944444hgVCCCCCCCCCCCCCCCCCCCCCCCCzCCCzMjy42",
"  +;lzCCCCCCCCCHJIIIIIIIIIIIIIIIIIIIIIIIIIIIIIIIIIIITTTPIIITIIIIIIIIIIIIIIIIIIIPHGVxd944444hgNCCCCCCCCCCCCCCCCCCCCCCCCCCCCCzdy42",
"  +;lzCCCCCCCCCHJIIIIIIIIIIIIIIIIIIIIIIITIIIIIIIIIIIIIIITTPPTTIIIIIIIIIIIIIIIIIJHGCNd944446ygMCCCCCCCCCCCCCCCCCCCCCCCCCCCCCNd942",
"  +;lzCCCCCCCCGHJIIIIIIIIIIIIIIIIIIIIIIIIIIIIITIIIIIIIIITPTTIPTIITIIIIIIIIIIIIIPJGCNd944444hkMCCCCCCCCCCCCCCCCCCCCCCCCCCCCCNdh42",
"  +=lzCCCCCCCCGHJIIIIIIIIIITIIIIIIIITIIIIIIIIIIIIITTPTIITTIIIIIIIIIIIITIIIIIIIIPHGCNd944446hgNCCCCCCCCCCCCCCCCCCCCCCCCCCCCCNky42",
"  &;lzCCCCCCCCCHJITIIIIIIIIIIIIIIIIIIIIIIIIIIIIIIIPTTIIIPTIIIIIIIIIIIIIIIIIIIIIPJZVNd944444hgVCCzCCCCCCCCCCCCCCCCCCCCCCCCCCNdy42",
"  +;lzCCCCCzCCGHJIIIIIIIIIIIITIIIIIIIIIIIIIIIIIIIIIIIIIIIIIIIIIIIIIIIIIIIITIIIIPJGVNk944444hdVCCCCCCCCCCCCCCCCCCCCCCCCCCCCCNd932",
"  +;lzCCCCCCCCCHJPIITIIIIIIIIIIIIIITIIIIIIIIIIIIIIIITIIIIIIIIIIIIIIIIIIIIIIIIIIPHGVNh944446hdVCCCCCCCCCCzCCCCCCCCCCCCCCzCCCNd942",
"  +;lzCCCCCCCCGHJPIIIIIIIIIIIIIIIIIIIIIIIIIIIIIIIIIIIIIIIIIIIIIIIIIIIIIIIIIIIIIJHGVNd964446hgVCCCCCCCCCCCCCCCCzCCCCCCCCCCCCNky42",
"  +;lzCCCCCCCCCHJIIIIIIITIIIIIIIIIIIITIIITIIITIIIIITIIIITIIIITIIIITIIIIIIIIIIIIPLGVxd94444hhdVCCCCCCCCCCCCCCCCCCCCCCCCCCCCzNdy42",
"  +;lzCCCCCCCCCHJIIIIIIIIIIIIIIIIIIIIIIIIIIIITIIIIIIIIIIIIIIIIIIIIIIIITIIIIIIIIPHGCNd944446hgVCCCCCCCCCCCCCCCCCCCCCCCCCCCCCNdh42",
"  +;lzCCCCCCCCGHJIIIIIIIIIIIIIIIIITIIIIIIIIIIIIIIIIIITIIIIIIITIIIITIIIIIIIIIIIIPHGCNd944444ydVCCCCCCCCCCCCCCCCCCCCCCCCCCCCCNg942",
"  +;lzCCCCCCCCGHJIIITIIIIIIIIIIIIIIIIIIIIIIIIIIIIIIIIIIIIIIIIIIIIIIIIIIIIIIIIIIJLGCNd944446hfVCCCCCCCCCCCCCCCCCCCCCCCCCCCCCNjy42",
"  +;lzCCCCCCCCCHJPIIIIIIIIIITIIIIIIIIIIIIIIIIIIIIIIIIIIIIIIIIIIIIIIIIIIIIIIIIIIPHGVNd944444yzzCzCCzCCCCCCCCCCCCCCCCCzCCCCCCNky42",
"  &;lzCCCCCCCCGHJIIIIIIIIIIIIIIIITIIIIIIIIIIIIIIIIIIIITIIIIIIIIIIIIIIIIIIIITIIIPHGVNd944446hgMCCCCCCCCCCCCCCCCCCCCCCCCCCCCCzdh6<",
"  +=lzCCCCCCCCCHJIIIIIIIIIITIIIIIIIIIITIITIIIIIIIIIIIIIIIITIIIIIIIIITIIIIIIIIIIPJGVNd944444hgMCCCCCCCCCCCCCCCCCCCCCCCCCCCCCzdh42",
"  &*lzCCCCCCCCGHJIIITIIIIIIIIIIIIIIIIIIIIIIIIIIIITIIIIIIIIIIIIIIITIIIIIIIIIITIIPHGVNd944444hgMCCCCCCCCCCCCCCzCCCCCCCCCCCCCzzdh42",
"  &plzCCCCCCCCCHJIIIIIIIIIIIIITIIIIIIIIIIIIIIITIIIIIIIIIIIIIIIITIIIIIIIIIIIIIIPPJGVNd944444hkVCVCCCCCVCCCCCCCCCCCCCCCCCCCCCzdh42",
"  +;lzCCCCCCCCCHJIIIIIIIIIIIIIIIIIIIIIIIIIIIIIIIIIIIIIIIIIIIIIIIIIIIIIIIIIIIIIIPHGVxk944444hgVCCCCCCCCCCCCCCCCCCCCCCCCCCCCCNk942",
"  +;lzCCCCCCCCGHJIIITIIIIITIIIIIIIIIIIIIIIIIIIIIIIIIIIIIIIIIIIIIIIIITIIIIIIIIIIPJGCNk944444hkMCCCCCCCCCCCCCCCCCCCCCCCCCCCCCNdh42",
"  +;lzCCCCCCCCCHJIIIIIIIIIIIIIIIIIIIIIIIIIIIIIIIIIIIIIIITIIIIIIIIIIIIIIIIIIIIIIPHGVNd944446hgMCCCCCCCCCCCCCCCCCCCCCCCCCCCCCNky42",
"  +;lCCCCCCCCCGHJPIIIIIIIIIIIIIIITIIIIITIIIIIIIIIIIIIIIIIIIIIIIIIIIIIIIIIIIIIIIPHGVNd944444hgVCCCCCCCCCCCCCCCCCCCCCCCCzCCCCNky42",
"  +;lzCCCCCCCCGHJIIIIIIIIIIIIIIIIIITIIIIIIIIIIIIIIIIIIIIIIIIIIIIIIIIIIIIIIIIIIIPJGVNd944444hgMCCCCCCCCCCCCCCCCCCCCCCCCCCVzCNd96,",
"  +;lzCCCCCCCCCHJPIIIIIIIIIIIIIIIIIIIIIIIIIIIIIIIIIIIIIIIIIIIIIIIIIIIIIIIIIIIIIPHGCNd944444hgMCCCCCCCCCCCCCCCCCCCCCCzCCCCCCNd942",
"  +;lzCCCCCCCCCHJIIIIIIIIIIIIIITIIIIIIIIIITIIIIIIIIIIIIIIIIIIITIIIITIIIIIIIIIIIPHGVNd944444hgMCCCCCCCCCCCCCCCCCCCCCCCCCCCCCNky42",
"  +;lzCCCCCCCCCGJIIIIIIIIITIIIIIIIIIIIIIIIIIIITITIIIITIIITIIIIIIIIIIIIITIIIIIIIPJGVNd944446hgMCCCCCCCCCCCCCCCCCCCCCCCCCCCCCNky42",
"  +;lzCCCCCCCCGHJIIIIIIIIIIIIIIIIIITIIIIIIIIIIIIIIIIIIIIIIIIIIIIIIIIIIIITIIIIIIPHGVNj944446hgMCCCCCCCCCCCCCCCzCCCCCCCCCCCCCNd942",
"  +;lzCCCCCCCCGHJIIIIIIIIIIIIIIIIIIIITIIIIIITIIIIIIIIIIIIIIIIIIIIIITIIIIIIIIIIIPJGVNky44444hgMCCCCCCCCCCCzCCCCCCCCCCCCzCCCCNdh42",
"  +=lzCCCCCCCCGGJIIIIIIIIIIITIIIIIIIIIIIIIIIIIIIIIITIIIIIIITIIIIIIIIIIIIIIIIIIPPHGVNh944444hgMCCCCCzCCCCCCCCCCCCCCCCCCCCCCCNky42",
"  &;lzCCCCCCCCGHJPIIIIIIIIIIIIIIIIIIIIIIIIIIIIIIIIIIIIIIIIIIIIIIIIIIIIIIIIIIIIIPJGVNk944444hgMCCCCCCCCCCCCCCCCCCCCCCCCCCCCCNdy42",
"  +;lzCCCCCCCCCHJIIIIIIIIIIIIIIIIIIIIIIITIIIITIIIIIIIIIIIIIIIIIIIIIIIIIIIIIIIIPPJGVNd963446hkVCCCCCzCCCCCCCCCCCCCCCCCCCCzCCNdh32",
"  +;lzCCCCCCCCCHHIIIIIIIIIIIIIIIIIIIIIIIIIIIIIIIIIIITIIIIIITIIITIIIIIIIIIIIIIIIPJGVNd944444hkNCCCCCCCCCCCCCCCCCCCCCCCCCCCCCNdh42",
"  +;lzCCCCCCCCGHJIIIIIIIIIIIIIIIIITIIIIIIIIIIIIIIIIIIIIIIIIIIIIIIIIIIIIIIIIITIIPHGCNd944444hgMCCCCCCCCCCCCCCCCCCCCCCCCCCCCCMky42",
"  +;lzCCCCCCCCCHJIIIIIIIIIIIITIIIIIIIIIIIIIIIIIIIIITIIIIIIIIIIIIIITIITIIIIIIIIIPJGCMd944444hgMCCCCCCCCCCCCCCCCCCCCCCCCCCCCCzdy42",
"  +;lzCCCCCCCCGHJIIIIIIIIIIIIIIIIIIIIIIIITIIIIIIIIIIIIIIIIIIIIIIIIIIIIIIIIIIIIIPHGCNd934446hgMCCCCCCCCCCCCCCCCCzCCCCCCzCCCCNdh42",
"  +;lzCCCCCCCCCHJIIIIITIIIIIIIIIIIIIIITIIIIIIIITIIIIIIIIIIIIIIITIIIIIIIIIIIIIIIPPZCgk944444hgMCCCCCCCCCCCCCCCCCCCCCCCCCCCCCNd942",
"  +;lzCCCCCCCCGHJIIIIIIIIIIIIIIIIIITIIIIIIIIIIIIIIIIITIIIIIIIIIIIITIIIIIIIIIIIIJHGCNj944444hgMCCCCCCCCCCCCCCCCCCCCCCCCCCCCCNky42",
"  +;lzCCCCCCCzGHJIIIIIIIIIIIIIIIIIIIIIIIIIIIIIIIIIIIIIIIIITIIIIIIIIIIIIIIIIIIIIPHGCNd944444hgMCCCCCCCCCCCCCCCCCCCCCCCCCCCCCNdy42",
"  &;lzCCCCCCCCGGJIIIIIIIIIIIIIIIIIITIIIIIITIIIIIIIIIIIIIIIIIIIIIIIIIIIIIIIIIIIIPJGCNd944446hgMCCCCCCCCCCCCCCCCCCCCCCCCCCCCCNd942",
"  +;lzCCCCCCCCGHJPIIIIIIIITIIIIIIIIIIIIIIIIIIIIIIIIIIIIIIIIIIITIIIIIITIIIIIIIIIPHGVNd944444hkMCCCzCCCCCCCCCCCCCCCCCCCCCCCCCNd942",
"  +=lzCCCCCCCCCHJIIIIIIIIIIIIIIIIIIIIIIIIIIIIIIIITIIIIIIITIIIIIIIIITIIIIIIIIIIIPLGVNd944444hgMCCCCCCCCCCCCCCCCCCCCCCCCCCCCCNdy42",
"  &;lzCCCCCCCCGHJIIIIIIIIIIIIITIIIIIIIIIIIIIIIIIIIIIIIITIIIIIIIIIIIIIIIITIIIIIIPHGVNd944444hgVCVCCCCCCCCCCCCCCCCCCCCCCCCCCCfdy42",
"  +;lzCCCCCCCCCHJPTIIIIIIIIIIIIIIIIIIIITITIIIITIIIIIIIIIIIIIIIIIIIIIITIIIIIIIIIPHGVNd944444hgVCCCCCCCCCzCCCCCCCCCCCCCCCCCCCNd942",
"  +;lzCCCCCCCCGHJIIIIIIIIIIIIIIIIIIIIIIIIIIIIIIIIIIIIIIIIIIIIIIIIIIIIIIIIIIIIIPPJGVxd944444hkMCCCCCCCCCCCCzCCCCCCzCCCCCCCCCNgy42",
"  +;lzCCCCCCCCCHJIIIIIIIIIIIIIIIIIIIIIIIIIIIIIIIIIIIIITIIIIIIITIIIIIIIIIIIIIITIPHGVNd944446hgMCCCCCCCCCCCCCCCCCCCCCCCCCzCCCNky42",
"  +;lzCCCCCCCCGHJPTIIIIIITIIIIIIIITIIIIIIIIIIIIITIIIIIIIIIIIIIIIIIIIIIIIIIIIIIIPJGVNd944444hgVCCCCCCCCCCCCCCCCCCCCCCCCCVCCCNky42",
"  +;lzCCCCCCCCCHJIIIIIIIIIIIIIIIIIIIIIIIIIIIITIIIIIIIIIIIITIIIIIIIIIIIIIIIIIIIIPHGVNd944444hkMCCCCCCCCCCCCCCCCCCCCCCCCCCCCCNgh6<",
"  +;lzCCCCCCCCGHJIIIIIIIIIIIIIIIIIIIIIIIIIIIIIIIIIIITIIIIIIIIIIIIIIIIIIIIIIIIIIPHGVNd944444hgMCCCCCCCCCCCCCCCCCCCCCCCCCCCCCNdh42",
"  +;lzCCCCCCCCCHHIIIIIIIIIITIIIIIIIIIIIIIIIIIIIIIIIIIIIIIIIIIIIIIIIITIIIITIIIIIPJGCNd944446hgVCCCCCCCCCzCCCCCCCCCCCCCCCCCCCNjy42",
"  +;lzCCCCCCCCCHJIIIITIIIIIIIIIIITIIIIITIIIIIIIIIIIIIIIIIIIIIIIIIIIIIIIIIIIIIIPPHGVNk944444hgMCCCCCCCCCCCCCCCCCCCCCCCCCCCCCNky42",
"  +;lzCCCCCCCCCHJIIIIIIIIIIIIIIIIIIIIIIITIIIIIIIIIIIIIIIIIIIIIIIITIIIIIIIIIIIIIPJGVNd944444hgMCCCCCCCCCCCCCCCCCCCCCCCCCCCCCNdh42",
"  +;lzCCCCCCCCGHJIIIIIIIIIIIITIITRIIIIIIIIIIIIIIIIIIIITIIIIIIIIIIIIIIIIIIIIIIIIPHGVNh944444hgMCCCCCCCCCCCCCCCCCCCCCCCCCCCCCNd942",
"  +=lzCCCCCCCCGHJPIIIIIIIITTTTRRRRRRYYIIIIIIIIIIITIIIIIITIIIIIIIIIIIIIIIIIIIIIIPJGVNk944446hgMCCCCCCCCCCCCGGGGGCCCCCCCCCCCCNky42",
"  &;lzCCCCCCCCCHJIIIIIIIIITRR^R^R!!RRYIIIIIIITIIIIIIIIIIIIIIIIITIIIIITIIIIIIIIIPJGVNjy44444hgMCCCCCCCCCCGHHHHHKHGCCCCCCCCCCNky42",
"  +;lzCCCCCzCCGHJPIIIIIIIIRR^^^^~~~!RRIIIIIIIIIIIIIIIIITIIIIIIIIIIIIIIIIIIIIIIIPHGVNd944446hkVCCCCCCCCCGHJJPKPPHHCCCCCCCVzCNd962",
"  +;lzCCCCCCCCCHPIIIIIIIIIRR^/((())~!RIIIIIIIYIIIIIIIIIIIIIIIIIIIIIIIIIIIIIIIIPPHGVNd944444hgNCCCCCCCCCGJPIIIIPPHGCCCCCCCCCNg942",
"  +;lzCCCCCCCCGHJIIIIIIITITQ^()))))/!RYIIIIIIIIIIIIIIIIIIIIIIIIIIITITIIIITIIIIIPJGVNk944444hgMCCCCCCCCCGJPIIIIIPHHCCCCCCCCzNdy42",
"  +;lzCCCCCCCCCHJPIIUIIIIITQ^()))))/!RYIIIIIIIIIIIIIIIIIIIIIIIIIIIIIIIIIIIIIIIIPHGCNk944444hgVCVCCCCCCCGJPIIIIIPHGCCCCCCCCCNdy42",
"  +;lzCCCCCCCCCHJPUIIIIUIIRQ^/)))))~!RIIIIYIIIIIIIIIIIIIIIIIIIIIIIIIIIIIIIIIPTTPHGVNh944446hgMCCCCCCCCCGJPRTPRIPJGCCzCCCCCCNd942",
"  +;lzCCCCCCCCGHPIIIIIIIIURQ^^))))(~!RIIIIIIIIIITIIIIIIIIIIIIIIIIIITIIIIIIIITIIPHGVNd944444hgMCCCCCCCCCCJPPPRPIIHHCCCCCCCCCNdh42",
"  +;lzCCCCCCCCGHJPIIIIIIIIRR!^//~(/~WRIIIIIIIIIIIIIIIIIITIIIIIIIIIIIIIIIIIIITPPPJGCNd944444hgMCCCCCCCCCCHPPPPIKKHGCCCCCzCCCNky42",
"  +;lzCCCCCCCCCHJIIIIIIIUIRRRQ!Q!!!RRYIIIIIIIIIIIIIIIITIIIIIIIITIIIIIIIIIIIITTTPHGVNk944444hgMCCCCCCCCCCGHHKKKFFZCCCCCCVCCCNky42",
"  &;lzCCCCGzCCCHPPTIIIIIIIITUTTTYYYYYIIIIIIIIYIIIIIIIIIIIIIIIIIIIIIIIIIIIIIIIIIPJGVNd944444hgMCCCCCCCCCVSmvvbbbASVCCCCCCCCCNg932",
"  +;lzCCCCCCCCCHJIIIIIIIIIIPJHHHHHHJJIIIIIIIIIIIIIIIIIIIIIIIIIIIIIIIIIIIIIITIIIPHGVNd944444hkMCCCCCCCCCNgh88t9tjxMCCCCCCCCzNdh42",
"  +=lzCCCCCCCCGHJPIIIIIIIIIPJHCGGCGHJIIIIIIIIIIIIIIIIIIIIIIIIIIIIIIITIIIIIIIIIIPJGVxd944446hgMCCCCCCCCCNgh99989hxMCCCCCCCCCNdy42",
"  &;lzCCCCCCCCCHPIIIIIIITIIPLJHHHHJHIIIIIIIIIIIIIIIIIIIIIIIIIIIIIIITIIIIIIIIIIIJHGCxd944444hgMCCCCCCCCCVNgdhkhdgNVCCCCCCCCCMky42",
"  +;lzCCCCCCCCGHJIIIIIIIIIIIIPPPJJIJJIIIIIIYIIIIIIIIIIIIIIIIIIIIIIIITIIIIIIIIIIPHGCNd944444hgMCCCCCCCCCVVNNxNxxNMVCCCCCCCCCNd942",
"  +;lzCCCCCCCCGHPPIIIITIIIIIIPIIIIIIIIIIIIIIIIIIIIIIIIIIIIIIIIIIIIIIIIIIIIIIIIIPLGCNd944444hgMCCCCCCCCCCVVVVVCVCVVCCCCCCCCCNdh42",
"  +;lzCCCCCCCCCHJIIIIIIIIIIIIIIIYIIIYIIIIIIIIIIIIIIIIIIIIIIIIIIIIIIIIIIIIIIITIIPHGCNd944446igNCCCCCCCzCCCCCCCCCCCCCCCCCCCCCNky42",
"  +;lzCCCCCCCCZHPPIIIIIIIIIIIIIIIIIIIIIIIIIIIIIIIIIIIIIIIIIIIIIIIIIIIIIIIIIIIIPPHGVNd944444hgVCCCCCCCCCCCCCCCCCCCCCCCCCCCCCNdy42",
"  +;lzCCCCCCCCGHJJIIIIIIIIIIIIIIIIIIIIIIIIIIIIIIIIIIIIIIIIIIIIIIIIIIIIIIIIIIIIIPHGVNh944444ygMCCCCCCCCCCCCCCCCCCCCCCCCCCCCCNd942",
"  +;lzCCCCCCCCCHJIIIIIIIIIIIIIIIIIIIIIIIIIIIIIIIIIIIIIIIIIIIIIIIIIIIIIIIIIITIIIPJGCNd944446hgMCCCCCCCCCCCCCCCCCCCCCCCCCCCCCNdh42",
"  +=pMzMMMMMMMZZFLIIJIIIPIPIIIPIIIJIJIIIIJIIJIIIIIIIHIIIIIIIIIIIIJIIJIIIIPPPPPPKDZMkh9444469dNMMMMMMMMMMMMMCMVVVVMVMMMMMMVMxj942",
"  O*;paaffxxgxxnSFFFFHJIJJJJHHPHJJJJJJJJJHJJJHJIIGGIHIHGGIGIGIGIJJJJJHJIJJPPKFFSSAkjh6444449hjgxggNgxgxgNgkgkgggkkfgxgxgdfkdh742",
"  X+&=-qwyhyijijcbvSDDDHHHHHHHHHHHHHHHHHHHHHHHGHHHHHGHHGDHDHHHHHDHHHHHHHHHGFSmbcjjhy764444468yhhhhhhhhhhihhhhhhhhhhhyhhhhyiy9642",
"   XXO$><376666688udxZCCCCCCCCCCCGCGCCCGCCCCGCCCCCCCCGGCCCGCGCCCCCCCCCCCCCCNvh88866344444444436666666666664666666666666666644442",
"      o#%233333233<wclzzzzlzzzzzzzzzzzzzzzzzzzzzzzzzzzzzzzzlzzlzzzzzlVzzVzMfs83332232332322333333232322343332333233233232233333,",
"      .@%%%2%%2%%%<0qpllllllllllaaaaapaaaaapaaaaaaaaaaapllllllllllllllplllae0<%%,,,,,,,,,,,,2%%,,,,,,,,,%,%,,%,,,,,,,,,,,,2%%,%%"
};
