/* XPM */
static char *_177a788214a445bec9729e1441deda9kN5L3Og8cWRjwFUl[] = {
/* columns rows colors chars-per-pixel */
"16 16 28 1 ",
"  c None",
". c black",
"X c #030608",
"o c #04080A",
"O c #164668",
"+ c #104870",
"@ c #6B6D6E",
"# c #CF5C30",
"$ c #E1693B",
"% c #DC8518",
"& c #C7BD00",
"* c #F6BE1E",
"= c #064E82",
"- c #11588A",
"; c #7E8386",
": c #878889",
"> c #8B8C8C",
", c #8F9090",
"< c #A0A0A0",
"1 c #A2A4A6",
"2 c #A4A4A4",
"3 c gray66",
"4 c #A9A9A9",
"5 c #A9ACAE",
"6 c #B1B1B1",
"7 c #E1BA95",
"8 c #FBD083",
"9 c #EEC39A",
/* pixels */
"  .             ",
" .-.            ",
" .==.           ",
"  O=-..         ",
"  OO==&--... #  ",
" .OOOO==-&=.$   ",
".O.27779...  # #",
"...;9.9.2.   $  ",
"  =26>4:1=.  #  ",
" .==@>4;--=.#%%#",
" o-=224;--=-%8*%",
" XOoO=5 =.XOO%# ",
" .9.O-=<=. ..   ",
"  .+=.O-=.      ",
"  .O=.O=-.      ",
"  .........     "
};
