/* XPM */
static char *result[] = {
/* columns rows colors chars-per-pixel */
"128 128 42 1 ",
"  c #13010D",
". c #160110",
"X c #1C0115",
"o c #1F0118",
"O c #23011B",
"+ c #28001F",
"@ c #2E0126",
"# c #310127",
"$ c #30032A",
"% c #340630",
"& c #330932",
"* c #340F3A",
"= c #34123C",
"- c #2F1B47",
"; c #2E1D4B",
": c #321541",
"> c #331B43",
", c #381F43",
"< c #311E49",
"1 c #2C214F",
"2 c #362047",
"3 c #32224B",
"4 c #36294F",
"5 c #38294D",
"6 c #262757",
"7 c #292353",
"8 c #2D2955",
"9 c #252758",
"0 c #222A5C",
"q c #2A2C5A",
"w c #352D54",
"e c #26305F",
"r c #2B315E",
"t c #35355C",
"y c #272F60",
"u c #273060",
"i c #2A3462",
"p c #2E3966",
"a c #333660",
"s c #343B64",
"d c #323E69",
"f c #36426C",
/* pixels */
".O+++++OOO@OO@O@o@oO@OO@OOO@OO@Oo+++O+@o@O@o@@oO@OOO@o@O@o@o@oO@OOO@@OO@oO@OOO@OOO+O+OO@OO@o@@oO@oO@OO@o@OO++O+O@OO+@OO@OO+++Oo ",
"o+###$$$$$$$$$$$$$$$$$$$$$$$$$$$$$$$$$$$@@$$$$$$$$$$$$$$$$$$$$$$$$$$$$$$$$$$$$$$$$&$$&$$$$$$$$$$$$$$$$$$$$$$$$$$$$$$$$$$$$$$@@+o",
"O@#$%&&*&**&&&*&&**&*&&**&&*&*&&&:&&*&&&&&*&*&&&&*&*&*&&&:&&&*&*&*&&*&&**&*&*&&*&&&&*&&&&&&**&&&&*&**&&*&*&*&*&**&&**&&*&&&&$#+O",
"O@$%*=:=::::::::::::::::::::::::::-:-:-::::-::::::::::::::::::::::::::::::::::::::::-:-::::-::::::::::::::::::::::::::::::**%#@O",
"O@$&=--;;1;;11;11;;;1;;;;;1;7;;;;;;;;-7011;;1;1;;;1;7;;;1;17111;1;;;;;;;;;;;;;;;-;;;;-;77;1;1;1;;;;;;;;;;;;;;;;;;;;;;1;;1--=&%#O",
"O$%*-;76766777766666667666666666799999906666797966666666977777776666667666699666770999906676797966669666666666666666666667-:*%@O",
"O#&*-1669909090099996909699999999909090099999909699999990707000099909990069999999090090099999990699099999909990099999999961-=%@O",
"+@&=;7600000000000000000000000000000000000000000000000000000000000000000000000000000000000000000000000000000000000000000067>*$+O",
"O@&=-7900000000000000000000000000000000000000000000000000000000000000000000000000000000000000000000000000000000000000000067-*$@o",
"O@&=-7900000000000000000000000000000000000000000000000000000000000000000000000000000000000000000000y00000000000000000000061-*&@O",
"O@&=;1900000000000000000000000000000000000000000000000000000000000000000000000000000000000000000000000000000000000000000067-=$@o",
"O@&=;7900000000000000000000000000000000000000000000000000000000000000000000000000000000000000000000000000000000000000000061-*&@O",
"O$&=;1900000000000000000000000000000000000000000000000000000000000000000000000000000000000000000000000000000000000000000061-*$@o",
"O@&=-7900000000000y00y00000000000000000000000000000000000000000000000000000000000000000000000000000000000000e00000000000067-*&@O",
"O$&=-790000000000uuuuuyyy0000000000000000000000000000000000000000000000000000000000000000000000000000000yyyuuuee00000000067-*&@o",
"O@&=17900000000euuiiiiuyy00000000000000000000000000000000000000000000000000000000000000000000000000000yyyiiiiiuu00000000061-*&@O",
"O@&=;7900000000eippfppppee0000000000000000000000000000000000000000000000000000000000000000000000000000eeiipfpipeue000000061-=&@O",
"O@&=;790000000eepppfffdpie000000000000000000000000000000000000000000000000000000000000000000000000000eepfffffffru0000000061-*$@o",
"O@&=;190000000eeppfffffppe000000000000000000000000000000000000000000000000000000000000000000000000000eippfffffppue000000067-&&@o",
"o$&=-190000000eipffffffdpue000000000000000000000000000000000000000000000000000000000000000000000000000rpfffffffpie000000067<=&@O",
"O@&=;160000000eipfffffffpuu00000000000000000000000000000000000000000000000000000000000000000000000000eeppfffffppue000000061-=&@o",
"O$&=;760000000erpdffffsfpuu00000000000000000000000000000000000000000000000000000000000000000000000000eerfffffffri0000000067-*$@O",
"O@&=1700000000qeisssfstsir000000000000000000000000000000000000000000000000000000000000000000000000000eertstffftree000000067-&&@o",
"O@&=-7900000000ertttttttrq000000000000000000000000000000000000000000000000000000000000000000000000000errtttttttr00000000061-=&@O",
"O$&=;760000000088445554w8q0000000000000000000000000000000000000000000000000000000000000000000000000000q84445544860000000067-*&@o",
"O@&=-760000000681322=><376900000000000000000000000000000000000000000000000000000000000000000000000000061332,=23160000000061-*$@o",
"O$&=;7600000006612===>><16900000000000000000000000000000000000000000000000000000000000000000000000000964-=>===1166000000067-=&@o",
"O@&=-760000000961-;>>>;-769000000000000000000000000000000000000000000000000000000000000000000000000009613--=231169000000067-*$@O",
"o@&=;7900000000667111177990000000000000000000000000000000000000000000000000000000000000000000000000000661111111690000000061-*$@O",
"O@&=-7900000000096666666990000000000000000000000000000000000000000000000000000000000000000000000000000966666666600000000067-*&@o",
"O@&=-7900000000090909090000000000000000000000000000000000000000000000000000000000000000000000000000000000060099000000000067-*&@o",
"O$&=;7900000000000000000000000000000000000000000000000000000000000000000000000000000000000000000000000000000000000000000061-*&@O",
"O$&=-7600000000000000000000000000000000000000000000000000000000000000000000000000000000000000000000000000000000000000000007-&&@X",
"O@&=;7900000000000000000000000000000000000000000000000000000000000000000000000000000000000000000000000000000000000000000007-*&$X",
"O@&=-790000000000000000000000000000000000000000000000000000000000000000000000000000000000000000000000000000000000000000009;-*$@X",
"O@&=;7900000000000000000000000000000000000000000000000000000000000000000000000000000000000000000000000000000000000000000097-*&$o",
"O@&=;7900000000000000000000000000000000000000000000000000000000000000000000000000000000000000000000000000000000000000000061;*&@X",
"O@&=-7900000000000000000000000000000000000000000000000000000000000000000000000000000000000000000000000000000000000000000067;*&@o",
"O@&=;7600000000000000000000000000000000000000000000000000000000000000000000000000000000000000000000000000000000000000000067:*&@o",
"O$&=-7600000000000000000000000000000000000000000000000000000000000000000000000000000000000000000000000000000000000000000061-*&@o",
"o@&=;9900000000000000000000000000000000000000000000000000000000000000000000000000000000000000000000000000000000000000000067:*&@o",
"o@&=-;900000000000000000000000000000000000000000000000000000000000000000000000000000000000000000000000000000000000000000066:*&@o",
"O$&=;;900000000000000000000000000000000000000000000000000000000000000000000000000000000000000000000000000000000000000000067;*&@o",
"O$$*-9000000000000000000000000000000000000000000000000000000000000000000000000000000000000000000000000000000000000000000067:*&@o",
"O@&=;;000000000000000000000000000000000000000000000000000000000000000000000000000000000000000000000000000000000000000000967-*&@O",
"O$&=;9900000000000000000000000000000000000000000000000000000000000000000000000000000000000000000000000000000000000000000067-*$@o",
"O@&=;;000000000000000000000000000000000000000000000000000000000000000000000000000000000000000000000000000000000000000000061-=&@o",
"O@&=;7900000000000000000000000000000000000000000000000000000000000000000000000000000000000000000000000000000000000000000067-*$@O",
"O$&=-7600000000000000000000000000000000000000000000000000000000000000000000000000000000000000000000000000000000000000000097;*&@X",
"O@&=;760000000000000000000000000000000000000000000000000000000000000000000000000000000000000000000000000000000000000000009;-*$$o",
"O@&=;7600000000000000000000000000000000000000000000000000000000000000000000000000000000000000000000000000000000000000000067-=$@o",
"O$&=-7900000000000000000000000000000000000000000000000000000000000000000000000000000000000000000000000000000000000000000097-*&@o",
"o$$=;7900000000000000000000000000000000000000000000000000000000000000000000000000000000000000000000000000000000000000000967-*&@o",
"O@&=-7900000000000000000000000000000000000000000000000000000000000000000000000000000000000000000000000000000000000000000067-*&@O",
"O$&=;7900000000000000000000000000000000000000000000000000000000000000000000000000000000000000000000000000000000000000000061-=&@o",
"o@&*;7900000000000000000000000000000000000000000000000000000000000000000000000000000000000000000000000000000000000000000067-*$@o",
"O@&=-7900000000000000000000000000000000000000000000000000000000000000000000000000000000000000000000000000000000000000000067-*&@o",
"O$&=;7900000000000000000000000000000000000000000000000000000000000000000000000000000000000000000000000000000000000000000061-*$@O",
"O$&=-7900000000000000000000000000000000000000000000000000000000000000000000000000000000000000000000000000000000000000000067-=&@o",
"O@&=;7900000000000000000000000000000000000000000000000000000000000000000000000000000000000000000000000000000000000000000067-*$@O",
"O@&=;7900000000000000000000000000000000000000000000000000000000000000000000000000000000000000000000000000000000000000000061-*$@o",
"O@&=-7600000000000000000000000000000000000000000000000000000000000000000000000000000000000000000000000000000000000000000067-*&@O",
"O@&=-7600000000000000000000000000000000000000000000000000000000000000000000000000000000000000000000000000000000000000000067-&&@o",
"O$&=;7600000000000000000000000000000000000000000000000000000000000000000000000000000000000000000000000000000000000000000067-=&@O",
"O+&&-7900000000000000000000000000000000000000000000000000000000000000000000000000000000000000000000000000000000000000000007-:$+o",
"O$&:-7900000000000000000000000000000000000000000000000000000000000000000000000000000000000000000000000000000000000000000007-:$$o",
"O$&:-9900000000000000000000000000000000000000000000000000000000000000000000000000000000000000000000000000000000000000000000-*&$o",
"o$$:-7900000000000000000000000000000000000000000000000000000000000000000000000000000000000000000000000000000000000000000009-*&$o",
"o$&:-9900000000000000000000000000000000000000000000000000000000000000000000000000000000000000000000000000000000000000000097-*&@X",
"O$&*-7900000000000000000000000000000000000000000000000000000000000000000000000000000000000000000000000000000000000000000097-*&@X",
"o@&*;900000000000000000000000000000000000000000000000000000000000000000000000000000000000000000000000000000000000000000009;;*&@o",
"O@&:90000000000000000000000000000000000000000000000000000000000000000000000000000000000000000000000000000000000000000000997-*&$o",
"O$&=;7690000000000000000000000000000000000000000000000000000000000000000000000000000000000000000000000000000000000000000097;&&@X",
"o$&=;790000000000000000000000000000000000000000000000000000000000000000000000000000000000000000000000000000000000000000009;-*&@o",
"o$&=;7900000000000000000000000000000000000000000000000000000000000000000000000000000000000000000000000000000000000000000077-*&@o",
"O$&*;7900000000000000000000000000000000000000000000000000000000000000000000000000000000000000000000000000000000000000000097-*&@o",
"o@&=;7990000000000000000000000000000000000000000000000000000000000000000000000000000000000000000000000000000000000000000067-*&@o",
"O@&=-7900000000000000000000000000000000000000000000000000000000000000000000000000000000000000000000000000000000000000000091;*$@o",
"O$&=;7900000000000000000000000000000000000000000000000000000000000000000000000000000000000000000000000000000000000000000067:=$@O",
"o@&*;7900000000000000000000000000000000000000000000000000000000000000000000000000000000000000000000000000000000000000000091;*&@o",
"O@&=-7900000000000000000000000000000000000000000000000000000000000000000000000000000000000000000000000000000000000000000097;&&@o",
"O$&=;790000000000000000000000000000000000000000000000000000000000000000000000000000000000000000000000000000000000000000009;-*&@o",
"O@&=-7900000000000000000000000000000000000000000000000000000000000000000000000000000000000000000000000000000000000000000067-*&@o",
"O@&=;7900000000000000000000000000000000000000000000000000000000000000000000000000000000000000000000000000000000000000000097-*&@o",
"O$&=;7900000000000000000000000000000000000000000000000000000000000000000000000000000000000000000000000000000000000000000067:*&@O",
"O@&=-7600000000000000000000000000000000000000000000000000000000000000000000000000000000000000000000000000000000000000000067-*$@o",
"O@&=-7600000000000000000000000000000000000000000000000000000000000000000000000000000000000000000000000000000000000000000067-=&@o",
"O$&=;7600000000000000000000000000000000000000000000000000000000000000000000000000000000000000000000000000000000000000000067-*$@O",
"o@&=;9900000000000000000000000000000000000000000000000000000000000000000000000000000000000000000000000000000000000000000067-*&@o",
"o@&=-;900000000000000000000000000000000000000000000000000000000000000000000000000000000000000000000000000000000000000000061-*$@O",
"O$&=;;900000000000000000000000000000000000000000000000000000000000000000000000000000000000000000000000000000000000000000067-=&@o",
"O$$*;9900000000000000000000000000000000000000000000000000000000000000000000000000000000000000000000000000000000000000000067-*$@O",
"O@&=-;000000000000000000000000000000000000000000000000000000000000000000000000000000000000000000000000000000000000000000061-*&@o",
"O$&=;9000000000000000000000000000000000000000000000000000000000000000000000000000000000000000000000000000000000000000000067-*$@O",
"O@&=;;000000000000000000000000000000000000000000000000000000000000000000000000000000000000000000000000000000000000000000067-&&@o",
"O@&=;7900000000000000000000000000000000000000000000000000000000000000000000000000000000000000000000000000000000000000000067-=&@O",
"O$&=-7600000000000000000000000000000000000000000000000000000000000000000000000000000000000000000000000000000000000000000007-*&@o",
"O@&=;7600000000000000000000000000000000000000000000000000000000000000000000000000000000000000000000000000000000000000000001-*$@o",
"O$&=;7600000000000000000000000000000000000000000000000000000000000000000000000000000000000000000000000000000000000000000067-=$@o",
"O@&=-7900000000000000000000000000000000000000000000000000000000000000000000000000000000000000000000000000000000000000000067-*&@O",
"o@&=;7900000000000000000000000000000000000000000000000000000000000000000000000000000000000000000000000000000000000000000067-*&@o",
"O@&=-790000000000ueuu00ee00000000000000000000000000000000000000000000000000000000000000000000000000000000uuuyy0y00000000061-*&@o",
"O$&=;7900000000euiuuuuuue0000000000000000000000000000000000000000000000000000000000000000000000000000000uuuiuuuu00000000061-=&@O",
"o$&&;7900000000uiipppppiue0000000000000000000000000000000000000000000000000000000000000000000000000000uuippippiue0000000067-*$@o",
"O@&=-790000000uuipffddspiu000000000000000000000000000000000000000000000000000000000000000000000000000uuidddfddpiu0000000067-*$@o",
"O$&=;190000000uuppffffddiu0000000000000000000000000000000000000000000000000000000000000000000000000000upddffffdii0000000067:*&@O",
"O@&=;7900000000ipffffffdpu000000000000000000000000000000000000000000000000000000000000000000000000000erpdfffffdpue000000067-*&@o",
"O@&=;790000000uipdfffffspuu000000000000000000000000000000000000000000000000000000000000000000000000000upffffffdpi0000000067-*&@o",
"O$&=-790000000uipdffffffpiu00000000000000000000000000000000000000000000000000000000000000000000000000uupdfffffdpie000000061-*&@O",
"O@&=;7900000000rpdsfffssiu000000000000000000000000000000000000000000000000000000000000000000000000000urppdfffssie0000000067-*$@o",
"O$&=-1600000000rtassstsaiy0000000000000000000000000000000000000000000000000000000000000000000000000000eitssststtr0000000067-=$@o",
"O@&=;79000000000qwwwwwwwq000000000000000000000000000000000000000000000000000000000000000000000000000000qwwwwwwwtqq000000067-*&@O",
"O@&=;7900000009613222,22769000000000000000000000000000000000000000000000000000000000000000000000000009872,,,,22799000000097-*$@O",
"O@&=;790009000974-,=>>>316900000000000000000000000000000000000000000000000000000000000000000000000000q67<>>,=>3769000000097:*&@o",
"O@&=;190000000661->=::>-7690000000000000000000000000000000000000000000000000000000000000000000000000096;->:=>>-7q9000000067;=$@O",
"O@&=-19000000006771--;;1860000000000000000000000000000000000000000000000000000000000000000000000000000977;1-;-1790000000067>*&@o",
"O@&=;19000000006966676669000000000000000000000000000000000000000000000000000000000000000000000000000009q6676676690000000061-*$@O",
"O$&=;7900000000099996699900000000000000000000000000000000000000000000000000000000000000000000000000000099999669000000000067-*&@o",
"O@&=17900000000000000000000000000000000000000000000000000000000000000000000000000000000000000000000000000000000000000000067-*&@O",
"O@&=-7900000000000000000000000000000000000000000000000000000000000000000000000000000000000000000000000000000000000000000061-*&@o",
"O$&=<7900000000000000000000000000000000000000009000000000000000000000009000000000000000000000000000000000000000000000000067-*&@o",
"O@%=<;796666666666666666q9666666996966996666669699666666666666666666669600999999999666996666666666666666666666666666666667;-&&@o",
"O@&*:;171171717777777177777777777777717777777777777777777777777777777777997777;7777771777777777777771777177777777177771771;:&$@o",
"O@$&=::;;-;;-;------------>-----:;><>;;:;>----;>------;:--->-->-------;:--------:;><>;;:----->------;-->;->;-------2-----:==&$@O",
"O#$%%&**&=*&*=***=**=&=**=*=****==*=*=*=****=**=***=****=**=*=*=*********&**&***==*=*=*=****=&=**=*=*******&*=*=*==********%%##O",
"O###%&&&&&&&$&$&$&&&&$&&&$&$&&&$%$&$&$&$&$&&&$$&&&&$&&$&&$$&&$&$&$&&&&&&&&&&$&&&%$&$&$&$&$&&&$&&&$&$&&&$&$&&&$&$&$&&%%&%$%%$%#+O",
"X++#@@#@@@@@##+#@@@#@@@@#@@@@@@@@+@@@#@@@@@@@@@@@@@@@@@@@@@@@@@@@@@@@@@$$@$$@@@@@+@@@#@@@@@@@@@@@@@@@@@@@@@@@#@@@@@@+@@@###+#+OX",
" XXoOoOOOoOoOOOoOoOOOoOoOOoOOoOOOoOOoOoOOoOOoOoOoOOoOOoooOOoOOOoOoOOoooooXoooooXOoOOoOoOOoOOOoOoOOOoOOoOOoOOoOoOOooXOOOOOOXOOO. "
};
