/* XPM */
static char *result[] = {
/* columns rows colors chars-per-pixel */
"128 128 78 1 ",
"  c #000000",
". c #090006",
"X c #0E0009",
"o c #13000E",
"O c #170011",
"+ c #1C0014",
"@ c #1F0118",
"# c #23001A",
"$ c #29001F",
"% c #2C0022",
"& c #2B0529",
"* c #2A082C",
"= c #310026",
"- c #350029",
"; c #38002C",
": c #250F31",
"> c #360733",
", c #350A35",
"< c #380F35",
"1 c #350D38",
"2 c #241134",
"3 c #281135",
"4 c #241539",
"5 c #2C153D",
"6 c #22183E",
"7 c #34133D",
"8 c #38173C",
"9 c #36193E",
"0 c #38193E",
"q c #191F47",
"w c #2D1A45",
"e c #271E49",
"r c #2C1F4D",
"t c #321641",
"y c #301945",
"u c #321F49",
"i c #1B224C",
"p c #1F2654",
"a c #23224F",
"s c #2B214F",
"d c #362147",
"f c #34244B",
"g c #38264A",
"h c #36294F",
"j c #382A4F",
"k c #262657",
"l c #2B2150",
"z c #2D2955",
"x c #262758",
"c c #222A5C",
"v c #292C5A",
"b c #312751",
"n c #342C54",
"m c #382B50",
"M c #302F59",
"N c #26305F",
"B c #2D315D",
"V c #35355C",
"C c #37385F",
"Z c #273160",
"A c #2B3663",
"S c #2F3B66",
"D c #323761",
"F c #313B66",
"G c #313D68",
"H c #37446E",
"J c #38466F",
"K c #3A486F",
"L c #394770",
"P c #3C4A71",
"I c #404F75",
"U c #425176",
"Y c #445479",
"T c #4A5B7E",
"R c #4D5F81",
"E c #526585",
"W c #546887",
"Q c #566A89",
/* pixels */
"@$%%%%%%%%%%%%%%%%%%%%%%%%%%%%%%%%%%%%%$%%%%%%%%%%%%%%%%%%%%%%%%%%%%%%%%%%%%%%%%%%%%%%%%%%%%%%%%%%%%%%%%%%%%%%%%%%%%%%%%%%$%%%$#",
"$%--&=-=&----&--%-&--&---%--%-=&>*&--&--=--%--&=-==-==-=&>&---=-%-=--&&--=-===-=;&-&---&==-=--&--==-==-=&>&----&==-=&-=-==-==-=$",
"%-;;>>>>>>>>>>,>,>>>>>>>,>,>>,>>>>>t>>>,>,,>>>>>>>>>>>>>>>>>>>>>,>>,>>>>>>>>>>>>>>tt>,>>>>>>>,,>>>>>>>>>>>>>>>,>>>>>>>>>>,>>;;-%",
"$=;,77tttyttttttttttttytttttttttttttttttttttttytttwttwttttwtttwtttttttttttwtttwttttyttttttwtttttttwttttwttytttttttwtttytttt71>-%",
"$->1trrrlrrrellkrrsrsrrrrrssrrrrlllllapprrrrrrrrrrrrssrrllrrrrpirrrrrrllrrrrssrralrrlappsrrrrrssrrrrsserrrrrrrapserrrrrrrrry7>-%",
"$->7wlkkxxkkkkkpxkxxkkkkkkkxxxkxkkkkkcpckckkkkkckkkkkkkkkpkkkcpckkkckkkkkkkkkkkkkkkkkccckkkkkkxxkxkxkkkkkpkkkkccxkkkxxkkxxlut,-=",
"$->trkcccccpccccccccccccccccccccccccccccccccpcccpcccccccccccccccpNccccccpccccccccccccccccccccpcccccccccccccccccccccccccccccsy1-%",
"$->7rkccccccccccccpcccccccpcccccccccccccccccccccccccccccccccccccNpccccccccccccccccccccccccccpNcccccccccccccccccccccccccccccly1-=",
"$->7rkcccccccccccccccccccccccccccccccccccccccccccccccccccccccccccccccccpcccccccccccccccccccccccccccccccccccccccccccccccccccsy1;%",
"$->trkccxcccccccccccccccpcccccccccccccccccccccccccccccccccccccccccccccccccccccccccccccccccccccccpcccccccccccccccccccccccccxsy1;%",
"$->trkccccccccccccccccccccccccccccccccccccccccccccccccccccccccccccccccccccccccccccccccccccccccccccccccccccccccccccccccccpccsw1;%",
"$->trkcccpcccccccccccccccccccccccccccccccccccccccccccccccccccccpcccccccccccccccccccccccccccccccccccccccccccccccccccccccccccsw1;%",
"$->tukccccccccccccccccccccccccccccccccccccccccccccccccccccccccccpcccccccccccccccccccccccccccccccccccccccccccccccccccccccccxry1;%",
"$->tukcccccccccccccccccccccccccccccccccccccccccccccccccccccccccccccccccccccccccccccccccccccccccccccccccccccccccccccccccccccly1;%",
"$->trkcccccccccccNcccZccccccccccccccccccccccccccccccccccccccccccccccccccccccccccccccccccccccccccccccccccccNNcNcNccccccccccclw1;%",
"$->7rkccccccccccZZAZAAAZccccccccccccccccccccccccccccccccpccccccccccccccccccccccccccccccccccccccccccccccccZAAAAZZccccccpcccxly1;%",
"%->trkcccccccccZASSSGGFSZZcccccccccccccccccccccccccccccccccccccccccccccccccccccccccccccccccccccccccccccZAGGGGGDDZccccccccckly,>%",
"$->trkcccccccccASGGHGLGGZZcccccccccccccccccccccccccccccccccccccccccccccccccccccccccccccccccccccccccccccZFGGGGGGFAccccccccccay,;%",
"$->trkcccccccccASGHHLGGFAZccccccccccccccccccccccccccccccccccccccccccccccccccccccccccccccccccccccccccccZAGGGLLLGFAZcccccccccaw1-%",
"%=>trkcccccccccASHHHGIGFSZcccccccccccccccccccccccccccccccccccccccccccccccccccccccccccccccccccccccccccccZGGLLLGIGAZcccccccccpy1;&",
"$=>trkcccccccccASHGLLLIFAccccccccccccccccccccccccccccccccccccccccccccccccccccccccccccccccccccccccccccccAGGLGHHHFAAccccccccxly1-%",
"%=>trkccccccccZASGLLLGGFAccccccccccccccccccccccccccccccccccccccccccccccccccccccccccccccccccccccccccccccAGGLLHHGFAZcccccccccly1;%",
"$->trkcccccccccASGGGGLGFAZccccccccccccccccccccccccccccccccccpcccccccccccccccccccccccccccccccccccccccccZBDHGGHHGDAZccccccccxly1;%",
"$->tlpcccccccccxAAFDDCCVZcccccccccccccccccccccccccccccccpccccccccccccccccccccccccccccccccccccccccccccccBVDCFCCDDZccccccccccly1;%",
"$->tukcccccccccxnmjjjjblvxcccccccccccccccccccccccccccccccccccccccccccccccccccccccccccccccccccccccccccccczmmjjjmnxccccccccpxsy1;%",
"$->trkccccccccclft888ttylxccccccccccccccccccccccccccccccccccccccccccccccccccccccccccccccccccccccccccccckutt888tulpcccccccccsy1;%",
"$->trkccccccccpkut>>>>ttlxccccccccccccccccccccccccccccccccccccccccccccccccccccccccpcccccccccccccccccccklwt>>>>1ylxcccccccccsw1-%",
"$->7ukcccccccccprttttttrlxcccccccccccccccccccccccccccccccccccccccccccccccccccccccccccccccccccccccccccckklwtttttukxcccccccccsy1;%",
"$->7rkccccccccxklllrrrrlkcccccccccpccccccccccccccccccccccccccccccccccccccccccccccccccccccccccccccpccccckllrrrrrkkxccccccccxly1;%",
"$->trkccccccccccxxxxkpkccccccccccccccccccccccccccccccccccccccccccccccccccccccccccccccccccccccccccccccccccckkkkkcxxcccccccccsy1;%",
"%->trkcccccccccccccccccccccccccccccccccccccccccccccccccccccccccccccccccccccccccccccccccccccccccccccccccccccccpcccccccccpccclw1;%",
"$=>7rkccccccccccccccccccccccccccccccccccccccccccccccccccccccccpcccccccccccccccccccccccccccccccccccccccccccccccccccccccccccxly1;%",
"%->7rkcccccccccccccpccccccccccccccccccccccccccpcccccpcccccccccccccpcccccccccccccccccccccccccccccccccccccccccpcccpccccccccpclw1-%",
"$->trkcccccccccccccccccccccpccccccccccccccccccccccccccccccpcccccccNccccccpccccccccccccccccccccccccccccccccccccccccccccccccxly1-=",
"%->7rlxckckckckxxxcxccxxcxcxcxcxxcckcxcxccxcxxcxxxcxccxxxxcxxcxcccxxxccxccxxxcxxckxccxxxckkxkccccckkccccxcxxcxxxxxccxccxcxkry,-%",
"$-;7trsssssssssssssslllsllllssrssrlrssrsrrrsllllsssslllsllrksssrsssslrrllllsssslrrssssssssssssssalrlrlrrsllslllllsssssrlllry7,-=",
"$-;,7tyytytyttwyyyyyyyyyyyyyyywyyywyyywyyyyyyyyyyyyyyyyyyyyyytyyyyytyytwyyyyyyyywyyyyyywttwwyyyyyyyytttwwyyyyyyyyyyytywyyyy71>-=",
"%=;>>,1,1111111,1,,11,1,1,1,1,1,1,,11,1,,1,1,11,1,,1,1,1,111,111,111111,1,,1111,11,,1,,1111,1,,1,1,1>tt>,1,1,11111111,,11,,>>;-%",
"$--;;;;;;;;;;;;;;;;;;;;;;;;;;;;;;;;;;;;;;;;;;;;;;;;;;;;;;;;;;;;;;;;;;;;;;;;;;;;;;;;;;;;;;;;;;;;;;;;;;;>;;;;;;;;;;;;;;;;;;;;;;;-=",
"%=;;;;;;;;;;;;;;;;;;;;;;;;;;;;;;;;;;;;;;;;;;;;;;;;;;;;;;;;;;;;;;;;;;;;;;;;;;;;;;;;;;;;;;;;;;;;;;;;;;;;;;;;;;;;;;;;;;;;;;;;;;;;-%",
"$-;;;;;;;;;;;;;;;;;;;;;;;;;;;;;;;;;;;;;;;;;;;;;;;;;;;;;;;;;;;;;;;;;;;;;;;;;;;;;;;;;;;;;;;;;;;;;;;;;;;;;;;;;;;;;;;;;;;;;;;;;;;;-=",
"%-;;;;;;;;;;;;;;;;;;;;;;;;;;;;;;;;;;;;;;;;;-;;;;;;;;;;;;;;;;;;;;;;;;;;;;;;;;;;;;;;;;;;;;;;;;;;;;;;;;;;;;;;;;;;;;;;;;;;;;;;;-;;-%",
"$-;>>>>>>>>>>,>>>>>>>>,>>>>>>>>>>>>>>>>>>>,>>,>>>>>>>>,>>>>>>>>>>>,>>>>>>>>>>>>>>>,>>>>>>>>>>>>>>,>>>>>>>,>>>>>>>>>>>>>>>>>>>;-=",
"%=;,17ttttttt7wtttttttttttttttttyttttttttttttttttttttttttttttyttttttttttttttttttttttttttttttttttttttttttttttttttytttttttttt7<;-%",
"$=>1turrrrrrrrrrlrrrrrrrssrrerrrrrrrlrrrrrrrrrrrlrrrrrrssrrrsrrrrrrrsrrrlrrrrrrlrrrrsrrrrrrrrrrsrrrrrrrrrrrrrrrrrrrrrrrrrruy7>-%",
"$->7ulkkxkkkkkkxxxkkxxxxkkkkcckxkkkxxxkkxxxxkkxkxxkkkxxxkkkckkkkxxxxkkkkkxkkkkkxkkxxkkkkkxxkkkkckkxxxxkxkxxxxxkkkkxkxxxxkkkrt,;%",
"$->tlxcccNNNcNccNccccNNccNcvcZcZNcvNNccccNNccNccNcccvNNcccccNNcNcccNZccccNcccNcccNNNcNcccZZcccNcccNccNcNccNccNcNNcvNNccccZxlu,;%",
"$->ybBAAAAAAAAAAAAAAAAAAAAAAAAAZAAAAAAAAAAAAAAAAAAAAAAAAAAAAAZAAAAAAAAAAAAAAAAAAAAAAAAAAAAAAAAAZAAAAAAAAAAAAAAAAAAAAAAAAAAAzd7;%",
"$-<dnCSSASSSSSSSSSSSSASSASSSSSSSSFSFSFSFSSSSSSSSSSSSSSSSSSSSSSSSGASFASSAFSSSSAFSSSSASSSSSASSASSASASASASSSASSSSSSSSFSFSGSFSDVg8-=",
"$-,dVDHHHHHHHHSHHHSHHHHHHHHHHHSHHGGHHGHHHHGHGHHHHGGHHHHGHHHGHHHGHHHHHHHHHHSHHHHHHHHHHHHSHHHHHHHHHHHHHHHHHHHSHHHHGHGHGHHGHHGCgt-%",
"&-8hVGHHHHHHHHHHHHHHHHHHHHHHHHHHHHHHHHHHHHHHHHHHHHHHHHHHHHHHHHHHHHHHHHHHHHHHHHHHHHHHHHHHHHHHHHHHHHHHHHHHHHHHHHHHHHHHHHHHHHGDmy>&",
":5uhVFHHHHHHHHHHHHHHHHHHHHHHHHHHHHHHHHHHHHHHHHHHHHHHHHHHHHHHHHHHHHHHHHHHHHHHHHHHHHLHHHHHHHHHHHHHHHHHHHHHHHHHHHHHHHHHHHHHHHHDVf73",
"4esBCGHHHHHHHHLHHHHHHHHHLHHHHHHHHHHHHHHHLHHHHLHHHHHHHHHHHLHHLHHHHHHHHHHHHHHHHHHHHHHHHHHHHHHHHHHHHHHHHHHHHHHHHHHHHHHHHHHHHHHGVzr6",
"qavBFHHHLHHHHHHHHHHHHHHHHHHHHHLHHHHHHHHHHHHHHHHHHHHHHHHHHHHHHHHHHHHHHHHHHHHHHHHHHHHHHHHHHHHHHHHHHHHHHHHHHHHHHHLHHLHHHHHHHHHFBvlq",
"qpcAFGHHHHHHHHHHHHHHHHHHHHHHHHHHHHHHHHHHHHHHHHHHHHHHHHHHHHHHHHHHHHHHHHHHHHHHHHHHHHHHHHHHHHHHHHHHHHHHHHHHHHHHHHJHHHHHHHHHHHHAANci",
"qpNBSHHHHHHHHHHHHHHHHHHHHHHHHHHHHHHHHHHHHHHHHHHHHHHHHHHHHHHHHHHHHHHHHHHHHHHHHHHHHHHHHLHHHHHHHHHHHHHHHHHHHHHHHHHHHHHHHHLHHHHHAZpi",
"qpcASHHHHHHHHHHHHHHHHHHHHHHHHJHHHHHHHHHHHHHLHHHHHHHHHHHHHHHHHHHHHHHHHHHHHHHHHHHHHHHHHHHHHHHHHHHHHHJHHHHHHJHHHHHHHHHJHJHHHHHFANci",
"qpNBSGHHHHHHHHHHHHHHHHHHJHHHHHHHHHHHHHHHHHHHHLHHHHHHHHHHHHHLLHHHHJHHHHHHHHHHHHHJHHHHHJHHHHHHHHHJJHHHHHHHHHHHHHHHHHHHHHHHHHHFANpi",
"ippASHHHHHHHHHHHHHHHHHHHHJHHHHHHHHHHHHHHHHHHHHHHHHHHHHHHHHHHHHHHHHHHJHHHHHHHHHHHJHHHHHHLJHHHHHHHHHHHHHHHHHHHHHHHHHHHHHHHHHHFANpi",
"qpZASGHHHHHHHHLHHHHHJHHHHHHHHHHJHHHHHLHHHHHHHHHHHHHHLHHHHHHHHHHHHHHHHHJHHHHHHHHHHHHHHHHHHHHJHHHHHHHHHHHJHHHHHJHHHHHHHHHHHHHFANci",
"qpNZSHHHHHHHHHHHHHJHHHHHHHHHHHHHHHHHHHHHHHHHHHHHHHHHHHHHHHHHHHHHHHJHHHHHHJHHHHHHJHHHHHHHHHHHHHHHHHHHHHHHHHHJHHHHJHHHHHHHHHHSAZci",
"qpcAAHHHHHHHHHHHHJHHHHHHHHHHHHHHHLHHLHHHHHHHHHHHLHHHHHHHHHHHHHHHHHHHHHHHHHHHHJHHHHHHHHHHHHJHJHHHHHHHHHHJHHHHHJHHHHHHHHHHHHHSAZpi",
"qpcASHHHHHHHHHHHHHHHHHHHHHJHJHHHHHHHHHHHHHHHHLHHHHHHLHHHHLHHHHLHHHHHHHHHHHHHJHHHHHHHHHHJHHHHHHHHHJHHHHHHHHHHHHHHHHHHHHHHHHHSAZpi",
"iiNZSHHHHHHHHHHHHHHHHHHJHHHHHHHHHHHHHHHHHLHHHHHHHHHHHHHHHHHHHHHHJHHHJHHHHHHHHHHHHHHHJHHHHHHHHHHHHHJHHHHHHHJHHHHHHJHHHHHHHHHHAApi",
"icZASSHHHHHHHHHHHHHHLHHHHHHHHHHHHHHHHHHHHHHHHHHHHHHHHHHHHHHHHHHHHHHHJHHHHHHHHHHHHHHHHHHHHHHHHLLHLHHHHHHHHHHHHHHHHHHHHHHHHHHAANci",
"iccASHHHHHHHHHHHHHHHHHHHHHHHHHHHHHHHLHHHHHHHHHHHHHHHHHHHHHHHHHHHHHHHHHHHHHHHJHHHHHHHHHHHHHHHHHHHHHHHHLHHHHHHHHHHHHHHLHHHHHHHANci",
"qpcZSHHHHHHHHLHHHLHHHHHHHHHHHHHHHHHHHHHHHHLHHHHHHHLHHHHHHHHHHHHHHHHHHHHHHHHHHJHHLHHHHLHHHHLHHHHHHHHHHHHHHHHHHHHHHHHHHHHHHHHSANci",
"qpZZAHHHHHHHHHHHHHHHHHHHHHHLHHHHHHHHHHHHHHHHHHHHHHHHHHHHHHLHHHHLHHJHHHHHJHHHHHHHHHHHHHHHHHHHHHHHHHHHHHHHHLHHHHHHHHHHHHHHHHHHAcpi",
"qpcNSHHHHHLHHHHHHHHHHHHHHHLHHHHHHHHHHHHHHHHLHHHLHHHHHLHHHHLHHHHHHHHHHHJHHHHHHHHHHHHHHHHHHHHHHHHHHHHHHHHLHHHHHHHHHHHHHHHHHHHSANci",
"qpcZSHHHHHHHHHHHHHHHHHHHHHHHLHHHHHHHHLHHHHHHHHHHHHHHHHHHHHHHHHHHHHHHHJHHHHHHHHHHHHHHHHHLHHHHHHHHHLHHHHHHHHHHHHHHHHHHHHHHHHHHANci",
"qccASHHHHHHHLHHHHHHHHLHHHHHHHHHHHHHHHHHHHHHHHHHHHHHLHHHHHHHHHHHHHJHHHHHHHHHLHHJHHHHHHHHHHHHHHHHHHHHHHHHHHHHHHHHHHHHHHHHHHHHSANci",
"qccASHHHHHHHHHHHLHHHHHHHHHHHHHHHHHHHHHHHHHHHHHHHHHHHHHHHHHHHHHHHHHHHHHHHHHHHHHHHLHHHHHHHHHLHHHHLHHHHHHHHHHHLHHHHHHHHHLHHHHHSANpi",
"qccASHHHHHHLHHHHHHHHHHHHHHHHHHHHHHHHHHHHHHHHHHHHHHHHLHHHHHHHHHHLHHHHHHHHHHHHHHHLHHHHHHHHHHHHHHHHHHHHHHHHHHLHHHHHHHHHHHHHHHHHNNci",
"qpNZSHHHHHHHHHHHHHHHHLHHHHHHHLHHHHLHHHHHLHHHHHHLHHHHHHHHHHHLHHHHHHHHHHHHHHHHHHHHHHHHLHHHHHHHLHHHHHHHHHHHHHHHHHLHHHHHHHHHHHHSANpi",
"qpcZSHHHHHHHHHHHHHHHHHHHHHHHHHHHHHHHHHHHHHHHHHHHHHHHHHHHHHHHHHHHHHHHHLHHLHHHHHHHHHHHHHHHHHHHHHHHHHHHHHHLHHHHHHHHHHHHHHHHHHHSANci",
"qpcNSSHHHHHHHHHHHHHHHHHHHHHHHHHHHHHHHHHHHHHHHHHHHHHHHHHHHHHHHHHHHHHHHHHHHHHHHHHHHHHLHHHHHHHHHHHHHHLHHHHHHHHHHHHHHHHHHHHHHHHSANpi",
"qccASSHHHHHHHHHHHHHHHHHLHLHHHHHHHHHHHHLHHHHHHHHHHHHHHHHHHHHHHHHHHHLHHHHHHHHHHHHHHHHHHLHHHHHHHHHHHHLHHHHHHHHHHHHHHHHHHHHHHHHAANci",
"qccASHHHHLHHHHHHHHHHHHHHHHHHHHHLLHHHHHHHHHHHHHHHHHHHHHLHHHLHHHHHHHHHHLHHHHLHHHHLHHHHHHHHHLHHHHHHHHHHHHHHHHHHHHHHHHHHHHHHHHHHANci",
"qpcASHHHHHHHHHHHHHHHHHHHHHHHHHHHHHHHHHHHHHHHHHHHHHHHHHHHHHHHLHHHHHHHHHHHHHHHHHHHHHHHHHHHHHHHHHHHHHHHHHHHHLHHHHHHHHHHHHHHHHHSANci",
"qpcZSHHHHHHHHHHHHHHHHHHHHHHHHHHHHHHHHHHHLHHHHHHHHLHHHHHHHHHHHHHHHHHHHHHHHHHHHHHHHHHHHHHHHHHHHLHHHHHHHHHHHHHHHHHLHLHHHHHHHHHSAcci",
"qpcZSGHHHHHHHHHHHLHHHHHLHHHHHHHHHHHHHHHHHHHHLHHHHHHHHHHHHHHHHLHHHHHHHHHHHHHHHHHHHLHHHHLHHHHHHHHHHHHHHHHHHHHHHHHHHHHHHHHHHHHSANci",
"qpNZSHHHHHHHHLHHHHHHHHHHHHHHHHHHHHHHHHLHHHHHHHHHHHHHHHHHHHHHHHHHHHHHHHHHHHHLHHHHHHHHHHHHHHLHHHHHHHHLHHHHHHHHHHHHHHHHHHHHHHHSANci",
"ipNZSGHHHHHHHHHHHHHHHHHHHHHHHHHHHHHHHHHHHHHHHHHHLHHHHLHHHHLHHHHHHHHLLHHHHHHHHHHHHHHHHHHHHHHHHHHHHHHHHHHHHHHHHHHHHHHHHHHHHHHSANpi",
"qpNASHHHHHHHHHHHHHHHHHHHHHHHHHHHHHHHHHHHHHHHHHHHHHHHHHHHHHHHHHHHHHHHHHHHHHHHHHHHHHHHHHHHHHHHHHHHHHHHHHHHHHHHLHHHLHHHLHHHHHHHANci",
"qpNZSGHHHHHHHHHHLHHHHLHHHHHHHHHHHHHHHHHHHHHHHHHHHHHHHHHHHHHHHHHHHHHHHHHHHLHHHHHHLHHHHHHHHHHHHHHHHHHHHHHHHHHHHHHHHHHHHHHHHHHHANci",
"qpNZSHHHHHHHHHHHHHHHHHHHHHHHHHLHHLHHHHHHHHHHHLHHHHHHHHHHHHHHHHHHHHHHHHHHHHHHHLHHHHHHHHLHHHHHHHHHHHHHHHLHHHHLHHHLHHHHHLHHHHHSANpi",
"qpcASHHHHHHHHHHLHHHHHHHHHHHHHHHHHHHHHHHHHHHLHHHHHHHHHHHHHHHHHHHHHHHHHHHHHHHHHHHHHHHHHHHHHHHHHHHHHHHHHHHHHHHHHHHHHHHHHHHHHHHSANci",
"ipcNSGHHHHHHHHHHHHHHHHHHHLHHHHHHHHHHHHLHHHHHHHHHHHHHLHHHHHLHHHHLHHLHHHHHHHHHHHHHHHHHHHHHHHHHHHHHHHLHHHHHHHHHHHHHHHHHHHHHHHHSANci",
"ipcASGHHLHHHHHHHHHHHHHHHHHHHHHHLHHHHLLHHHHHHHHHLHHHHHHHHHHHHHHHHHHLHHHHHHHHHHHHHHHHHHHHHHHHLHHHHHHHHHHHHHHHHKHHHHHHHHHHHHHHHNNpi",
"qkcASHHHHHHHHHLHHHHHHHHLHLHHHHHHHHHHHHHHHHHHHHHHHHHHHHHHHHHHHHHHHHHHHHLHHHHHHHHHHHHHHHHHHHHHHHHLHHHHHLHHHHHHHHLHHHHKKHHHHHHANNpi",
"qicAFHHHHHHHHHHHLLLHLLLLLHHHHHHHHHHHLHHHLHHHHHHHHHHLHHLHHHHHLHHHHHHHHHHHHHHHLHHHHLHHHHHHHHHHHHHHHHHHHHHLLLLLLLLLKHHHHHHHHHHHNNci",
"6elMFGHHHHHHHHLLIYYYYYIILLHHHHHHLHHHHHHHHHHHHHHHHHHHHHHHHHHHHHHHHHHHHHHHHHHHHHHHHHHHHHLHHHHHHHHHHHHHHHLLPYYYYYUIPKHHHHHHHHHAVzai",
"2tfnDGHHHHHHHHLIYTTRRRTYILLLHHHHHHHHHHHHHHHHHHHHHHHHLHHHHLHHHHHHHHHHHHHHLHHHHHHHHHHHLHHHHHHHHHHHHHHHHHLPYYRTTTTYIKHHHHHHHHHDMf54",
"&*7hVGHHHHHHHHLUYRWRRWRTYLLLHHHHHHHHHLHHHHLHHHHLHHHHHHHHHHHHHHHHHHHHHHHHHHHHLHHHHHHHHHHHHHHHHHHHHHHHHHLUTREEWEETYPHHHHHHHHHCnd1*",
"%=<fAHHHHHHHHHLYTWQQQQQRYIHHHHLHHHHHHHHHHHHHHHHHHHHHHHHHHHHHHHHHHLHHHHHHHHHHHHHHHHHHHHHHHHLHHHHLHHHHHHLYTEQQQQWRYIHHHHHHHHHVm0-%",
"$-<gAHHHHHHHHHLYRWQQQQQRYLHHHHHHHHHHHHHHHHHHHHHHHHHHHHHHHHHHLHHHHHHHHHHLHHHHHHHHHHHHHHHHHHHHHHHHHLHHHHPUTEQQQQWRYIHHHHKHHHHCm0-%",
"%=<gVHKHHHHHHHLYREQQQQWTTPHHHHHHHHHHHHHHHHHHHHHHHLHHHHLHGLLLLLLLHHHHHHHHHHLHHHHHHHHHHHHHHHHHHHHHHHHHHHPYTEQQQQWRYPKHHHHHHHHCj8-=",
"%=<gVDHHHHHHHHLYTEQQWWWTYUHHHHHHHHHHHHHHHHHHHHHHHHHHHHHHLLLGLGGLHHHHHHHHHHHHHHHHHHHHHHHHHHHHHHHHHHHHHHPUREQQQQWRYIHHHHHHHHGCj8-=",
"&-8gVHHHHHHHLHLUTEEEEEETYPKHHHJHHHHHHHHHHHLHHHHHHHHHHHHHGLLLLLLLHLHHLHHHHHHHHHHHHHHHHHHHHHHHLHHHHHHHHHLURREEEEERYPHHHHKHHHHCmy;&",
":5wnVDHHHHHHHHLPIYTTTTTYUKHHHHHHHHLHHLHHHHHHHHHHHHHHHHHHLLGLLGLGHHHHHHHHHHHHHHHHHHLHHHHHHHHHHHHHHHHHHHLPUYTRTTYYILHHHHHHHHHDVf73",
"4elMCDKKHHHHHHHLKPPPUKKKKJHHHJHHHHHHHHHHHHHHHHLHLHHHHHHHLLGGGLLLHHHHHLHHHHHHHHHLHHLHLHHHHLHHHHHHHHHHHHLLPPPPPPPPLLHHHHHHHHHFVze4",
"qlxBFHHHHHLHHHHHGFFFFFSHHHHHHHHHHHHHHHHHHHHHHHHHHHHHHHLHLGLLLLGGHHHHHHHHHHHHHHHHHHHHHHHHHHHHHHHHHHHHHHHHGGGSSSGGGHHHHHHHHHHFBBaa",
"qacADHHHHHHHHHHFAAccNNNASHHHHHHHHHHHHHHHHHHLHHHHHHHHHHHHLLLGLLLLLHHHHHHHHHHHHHHHHHHHHHHHHHHHHHHHHHHHHHGGAZccZcZAGHHHHHHHHHHFAvki",
"6elVDGHKHHHHHHLGGAAABAZSSHHHJHHHHHHLHHHHHHHHHHHHHHHHHHHHGLLLLGLGHHHHHHHHHHHLHHHHHHHHHHHHHHHHLHHHHLHHHLHGSSAAAASGGHHHHHHHHHHFBzs6",
":5snVHHHHHHHHHHGHASASASSHHHHHHHHLHHHHHHHHHHHHHHHHHHHHHHHHHHLLLLLHHHLHHHHHHHHHHHHHHHHHHHHHHHHHHHHHHHHHHHGGGSSGGGGGHHHHHHHHHHCnfw3",
"&*9jmIHHHKHHHHHHHHHHHHHHHHHHHHHHHHHHHHLHLHHHHHHHHHHHHHHHHHHHGLGLHHHHHHHHHHHHHHHHHHHHHHHLHHHHHHHHHHHHHHHHHHGGGGGGHHHHHHHHHHHCmd1*",
"$-<gVCHHHHHHHHHHHHHHHHHHHHHHHHHHHHHHHHHHHHHHHHHHHLHHHHHHHHHHGLGLHHHHHHHHHHHLHHLHHHHHHHHHHHHHHHHHHHHHHHLHHHLLLLLGLHHHHHHHHHHVm0-%",
"%=<gVDHHHHHHHHHHHHHHHHHHHHHHHHHHHHHHHHHHHHHHHHHHHHHHHHHHHHHHLLLLHHHHHHHHHHHHHHHHLHHHHHHHHHHHHHHHHHHHHHHHHHHHLGLLHHLHHHHLHHHVm0-%",
"$=<gVGHHHHHHHHKHHHHHHHHHHHHHHHHHHHHHHHHHHHHHHHHHHHHHHHHHHHHHHHLGLGGLLHHHHHHHHHHHHHHHHHHHHHHHHHHHHHHHHHHHHHHHHHLLHHHHHHHHHKHCm0-=",
"%-<gVDHHHHHHHHHHHHHHHHHHHHHHHHHHHLHHHHHHHHHHHHHHHHHHHHHHHHLHHHLLLLLLHHHHHHHHHHHHHHHHHHLHHHHHHHHHHHHHHHHHHHHLHHGLHHHHHHHHHHGCm0-%",
"$=<gVGKHHHHHHHHHHHHHHHHHHGHHHHHHHGHHHGHHHHHHHHHHHHHHHHHHHHGHHGLGGLGLLGGLGLHHHGHHHGHHHHHHHHHHHHHHHHHHHHGHHHGHGLGLGLHGHHHHHGGVj0-=",
"$-<dmCGGFFFFGGAGSFGAGFSGFSHFSSSSGGFGGGGFSGGFFGFGSGSSSGSGGGGGGGGGGGGGGGGGGGGGGGGGGGGSSGGSGGSFGFGGGGGFSGGGGGGGGGGGGGGGGGDGGGFVg8-%",
"$->unVAAAAAAAAAAAAAAAAAAAFAAAAAAAAAAAAAAAAAAAAAAAFAAAAFAFAAAAAFAAAAAAAAAAAAAAAFAAAAAAAAAAAAAAAAAAAAAAAAAAAAAAAAASAAAAAAAAAAnf7-=",
"$->tlxAcAcANZZZvZNZZNcAcNNAccAvNNvAcNANcAcNAAccAvNNNcAccccAcAcNcZZZZAccAcANcAccNNvAcNAZcAccANvZZAcAcAcAcAcAcANNvNNZZZcANZZvlu1-%",
"$->trlcxckxxcccxxxccxcxccxxccxccxcccxcxcxcxxxcxccccxcxxccxxccxcxxcccxcxccxxcxccxxcccxcxcxccxxcxcckxccxcxckckxxcccxxxxccxxxxly1-=",
"$-;7trlllrllsslllsssllllssllssllllrlllssslllllllssslllllllsllsllllllllllssllllllllrlllsssllllllllssllslllsllllllsllllslllssw7>-%",
"$-;,7tyywyyyyyyywyyyyyyyyyyyyyyyyyyyyyyyywyyyyyyyyyyyyuyyyyyyyyyyyyyyyyyyyyyyyyyyyyyyyyyyyyyyyyyyyyyyyyywyyyyyyyyyuyyywyyyyt1>-=",
"$-;>>,11111111111111111111111111111111111111111111111111111111111111111111111111111111111111111111111111111111111111111111>>>;-%",
"$=;--;;;;;;;;;;;;;;;;;;;;;;;;;;;;;;;;;;;;;;;;;;;;;;;;;;;;;;;;;;;>;;;;;;;;;;;;;;;;;;;;;;;;;;;;;;;;;;;;;;;;;;;;;;;;;;;;;;;;;;----%",
"#$==-;;;;;;;;;;;;;;;;;;;;;;;;;;;;;;;;;;;;;;;;;;;;;;;;;;;;;;;;;;;>;;;;;;;;;;;;;;;;;;;;;;;;;;;;;;;;;;;;;;;;;;;;;;;;;;;;;;;;;---=%#",
"O+#%=-;;;;;;;;;;;;;;;;;;;;;;;;;;;;;;;;;;;;;;;;;;;;;;;;;;;;;;;;;;;;;;;;;;;;;;;;;;;;;;;;;;;;;;;;;;;;;;;;;;;;;;;;;;;;;;;;;;;;--%$#O",
"XoO#%-;;;;;;;;;;;;;;;;;;;;;;;;;;;;;;;;;;;;;;;;;;;;;;;;;;;;;;;;;;;;;;;;;;;;;;;;;;;;;;;;;;;;;;;;;;;;;;;;;;;;;;;;;;;;;;;;;;;;-=$@oX",
"  .+$=------;-----;----;----;-------;------;;---------------;-------;---------------;------;;----;----------;------;;---;--%#o  ",
"  .O#$%=%%=%=%=%%=%%%=%%%=%=%%%=%%=%%=%=%=%%=%%%%=%==%%=%%=%%=%=%==%%=%%=%=%=%%=%%=%=%=%%=%%%=%%%%%==%%=%%=%%=%=%=%%=%%%=%%#OX  ",
"   oO@#####################################################################################################################+o.  ",
"   .XooooooooooooooooooooooooooooooooooooooooooooooooooooooooooooooooooooooooooooooooooooooooooooooooooooooooooooooooooooooX..  ",
"                                                                                                                                ",
"                                                                                                                                "
};
