/* XPM */
static char *result[] = {
/* columns rows colors chars-per-pixel */
"32 32 5 1 ",
"  c #566A89",
". c #38002C",
"X c black",
"o c #222A5C",
"O c #37446E",
/* pixels */
"................................",
".oooooooooooooooooooooooooooooo.",
".oooooooooooooooooooooooooooooo.",
".oooooooooooooooooooooooooooooo.",
".oooOOooooooooooooooooooooOOooo.",
".oooOOooooooooooooooooooooOOooo.",
".ooo..oooooooooooooooooooo..ooo.",
".oooooooooooooooooooooooooooooo.",
".oooooooooooooooooooooooooooooo.",
"................................",
"................................",
".oooooooooooooooooooooooooooooo.",
".OOOOOOOOOOOOOOOOOOOOOOOOOOOOOO.",
"oOOOOOOOOOOOOOOOOOOOOOOOOOOOOOOo",
"oOOOOOOOOOOOOOOOOOOOOOOOOOOOOOOo",
"oOOOOOOOOOOOOOOOOOOOOOOOOOOOOOOo",
"oOOOOOOOOOOOOOOOOOOOOOOOOOOOOOOo",
"oOOOOOOOOOOOOOOOOOOOOOOOOOOOOOOo",
"oOOOOOOOOOOOOOOOOOOOOOOOOOOOOOOo",
"oOOOOOOOOOOOOOOOOOOOOOOOOOOOOOOo",
"oOOOOOOOOOOOOOOOOOOOOOOOOOOOOOOo",
"oOOOOOOOOOOOOOOOOOOOOOOOOOOOOOOo",
"oOOOOOOOOOOOOOOOOOOOOOOOOOOOOOOo",
".OOO  OOOOOOOOOOOOOOOOOOOO  OOO.",
".OOO  OOOOOOOOOOOOOOOOOOOO  OOO.",
"oOOOooOOOOOOOOOOOOOOOOOOOOooOOOo",
".OOOOOOOOOOOOOOOOOOOOOOOOOOOOOO.",
".OOOOOOOOOOOOOOOOOOOOOOOOOOOOOO.",
".oooooooooooooooooooooooooooooo.",
"................................",
"X..............................X",
"XXXXXXXXXXXXXXXXXXXXXXXXXXXXXXXX"
};
