/* XPM */
static char *result[] = {
/* columns rows colors chars-per-pixel */
"32 32 5 1 ",
"  c black",
". c #38002C",
"X c #222A5C",
"o c #37446E",
"O c #566A89",
/* pixels */
"  ...XXXXXXXXXXXXXX.............",
" XXXooooooooooooooooX..XXXXXXXX.",
" XXXooooooooooooooooX..XXXXXXXX.",
" XXXooooooooooooooooX..XXXXXXXX.",
" XXXoooOOoooooooooooX..XXXooXXX.",
" XXXoooOOoooooooooooX..XXXooXXX.",
" XXXoooXXoooooooooooX..XXX..XXX.",
" XXXooooooooooooooooX..XXXXXXXX.",
" XXXooooooooooooooooX..XXXXXXXX.",
" XXXooooooooooooooooX...........",
" XXXooooooooooooooooX...........",
" XXXooooooooooooooooXXXXXXXXXXX.",
" XXXooooooooooooooooooooooooooo.",
" XXXoooooooooooooooooooooooooooX",
" XXXoooooooooooooooooooooooooooX",
" XXXoooooooooooooooooooooooooooX",
" XXXoooooooooooooooooooooooooooX",
" XXXoooooooooooooooooooooooooooX",
" XXXoooooooooooooooooooooooooooX",
" XXXoooooooooooooooooooooooooooX",
" XXXoooooooooooooooooooooooooooX",
" XXXoooooooooooooooooooooooooooX",
" XXXoooooooooooooooooooooooooooX",
" XXXoooOOoooooooooooooooooOOooo.",
" XXXoooOOoooooooooooooooooOOooo.",
" XXXoooXXoooooooooooooooooXXoooX",
" XXXooooooooooooooooooooooooooo.",
" XXXooooooooooooooooooooooooooo.",
" XXXXXXXXXXXXXXXXXXXXXXXXXXXXXX.",
" XX.............................",
" X............................. ",
"                                "
};
