/* XPM */
static char *result[] = {
/* columns rows colors chars-per-pixel */
"32 32 5 1 ",
"  c black",
". c #38002C",
"X c #222A5C",
"o c #37446E",
"O c #566A89",
/* pixels */
".............XXXXXXXXXXX..X...  ",
".XXXXXXXX..XooooooooooooooooXXX ",
".XXXXXXXX..XooooooooooooooooXXX ",
".XXXXXXXX..XooooooooooooooooXXX ",
".XXXooXXX..XoooooooooooOOoooXXX ",
".XXXooXXX..XoooooooooooOOoooXXX ",
".XXX..XXX..XoooooooooooXXoooXXX ",
".XXXXXXXX..XooooooooooooooooXXX ",
".XXXXXXXX..XooooooooooooooooXXX ",
"...........XooooooooooooooooXXX ",
"...........XooooooooooooooooXXX ",
".XXXXXXXXXXXooooooooooooooooXXX ",
".oooooooooooooooooooooooooooXXX ",
"XoooooooooooooooooooooooooooXXX ",
"XoooooooooooooooooooooooooooXXX ",
"XoooooooooooooooooooooooooooXXX ",
"XoooooooooooooooooooooooooooXXX ",
"XoooooooooooooooooooooooooooXXX ",
"XoooooooooooooooooooooooooooXXX ",
"XoooooooooooooooooooooooooooXXX ",
"XoooooooooooooooooooooooooooXXX ",
"XoooooooooooooooooooooooooooXXX ",
"XoooooooooooooooooooooooooooXXX ",
".oooOOoooooooooooooooooOOoooXXX ",
".oooOOoooooooooooooooooOOoooXXX ",
"XoooXXoooooooooooooooooXXoooXXX ",
".oooooooooooooooooooooooooooXXX ",
".oooooooooooooooooooooooooooXXX ",
".XXXXXXXXXXXXXXXXXXXXXXXXXXXXXX ",
".............................XX ",
" .............................X ",
"                                "
};
