/* XPM */
static char *result[] = {
/* columns rows colors chars-per-pixel */
"32 32 6 1 ",
"  c #566A89",
". c #8BABBF",
"X c #38002C",
"o c black",
"O c #222A5C",
"+ c #37446E",
/* pixels */
"oooooooooooooooooooooooooooooooo",
"o..............................o",
"X..............................X",
"O                              O",
"O++++++++++++++++++++++++++++++O",
"O++++++++++++++++++++++++++++++O",
"O+++  ++++++++++++++++++++  +++O",
"O+++  ++++++++++++++++++++  +++O",
"O+++OO++++++++++++++++++++OO+++O",
"O++++++++++++++++++++++++++++++O",
"O++++++++++++++++++++++++++++++O",
"O++++++++++++++++++++++++++++++O",
"O++++++++++++++++++++++++++++++O",
"O++++++++++++++++++++++++++++++O",
"O++++++++++++++++++++++++++++++O",
"O++++++++++++++++++++++++++++++O",
"O++++++++++++++++++++++++++++++O",
"O++++++++++++++++++++++++++++++O",
"O++++++++++++++++++++++++++++++O",
"X++++++++++++++++++++++++++++++X",
"XOOOOOOOOOOOOOOOOOOOOOOOOOOOOOOX",
"XXXXXXXXXXXXXXXXXXXXXXXXXXXXXXXX",
"XXXXXXXXXXXXXXXXXXXXXXXXXXXXXXXX",
"XOOOOOOOOOOOOOOOOOOOOOOOOOOOOOOX",
"XOOOOOOOOOOOOOOOOOOOOOOOOOOOOOOX",
"XOOOOOOOOOOOOOOOOOOOOOOOOOOOOOOX",
"XOOO++OOOOOOOOOOOOOOOOOOOO++OOOX",
"XOOO++OOOOOOOOOOOOOOOOOOOO++OOOX",
"XOOOXXOOOOOOOOOOOOOOOOOOOOXXOOOX",
"XOOOOOOOOOOOOOOOOOOOOOOOOOOOOOOX",
"XOOOOOOOOOOOOOOOOOOOOOOOOOOOOOOX",
"XXXXXXXXXXXXXXXXXXXXXXXXXXXXXXXX"
};
