/* XPM */
static char *result[] = {
/* columns rows colors chars-per-pixel */
"32 32 6 1 ",
"  c black",
". c #38002C",
"X c #222A5C",
"o c #37446E",
"O c #566A89",
"+ c #8BABBF",
/* pixels */
"                                ",
" +++++++++++++++++++++++++++++O ",
".++++++++++++++++++++++++++++OX ",
"XOOOOOOOOOOOOOOOOOOOOOOOOOOOOXX ",
"XoooooooooooooooooooooooooooXXX ",
"XoooooooooooooooooooooooooooXXX ",
"XoooOOoooooooooooooooooOOoooXXX ",
"XoooOOoooooooooooooooooOOoooXXX ",
"XoooXXoooooooooooooooooXXoooXXX ",
"XoooooooooooooooooooooooooooXXX ",
"XoooooooooooooooooooooooooooXXX ",
"XoooooooooooooooooooooooooooXXX ",
"XoooooooooooooooooooooooooooXXX ",
"XoooooooooooooooooooooooooooXXX ",
"XoooooooooooooooooooooooooooXXX ",
"XoooooooooooooooooooooooooooXXX ",
"XoooooooooooooooooooooooooooXXX ",
"XoooooooooooooooooooooooooooXXX ",
"XoooooooooooooooooooooooooooXXX ",
".oooooooooooooooooooooooooooXXX ",
".XXXXXXXXXXXooooooooooooooooXXX ",
"...........XooooooooooooooooXXX ",
"...........XooooooooooooooooXXX ",
".XXXXXXXX..XooooooooooooooooXXX ",
".XXXXXXXX..XooooooooooooooooXXX ",
".XXXXXXXX..XoooooooooooOOoooXXX ",
".XXXooXXX..XoooooooooooOOoooXXX ",
".XXXooXXX..XoooooooooooXXoooXXX ",
".XXX..XXX..XooooooooooooooooXXX ",
".XXXXXXXX..XooooooooooooooooXXX ",
".XXXXXXXX..XooooooooooooooooXXX ",
".............XXXXXXXXXXX..X...  "
};
