/* XPM */
static char *result[] = {
/* columns rows colors chars-per-pixel */
"128 128 39 1 ",
"  c #010101",
". c #010A07",
"X c #010B0A",
"o c #01110E",
"O c #011413",
"+ c #011917",
"@ c #011D1B",
"# c #01211E",
"$ c #012422",
"% c #012926",
"& c #012D2A",
"* c #01312E",
"= c #013532",
"- c #013936",
"; c #013D3A",
": c #01413E",
"> c #014541",
", c #014945",
"< c #014D49",
"1 c #01524E",
"2 c #015651",
"3 c #015A55",
"4 c #015E59",
"5 c #01625D",
"6 c #016661",
"7 c #016B65",
"8 c #016E68",
"9 c #01736D",
"0 c #017671",
"q c #007C75",
"w c #007F78",
"e c #8A4E7C",
"r c #00847D",
"t c #AC639B",
"y c #008780",
"u c #008B84",
"i c #008F88",
"p c #00958D",
"a c #009890",
/* pixels */
"eeeee                                                                                                                      . X  ",
"ttttt                                                                                                                     ..Xo  ",
"ttttt                                                                                                                      ..X  ",
"ttttt                                                                                                                      .XX  ",
"ttttt                                                                                                                        .  ",
"ttttt                                                                                                                        X  ",
"ttttt                                                                                                                        .  ",
"ttttt                                                                                                                           ",
"ttttt                                                                                                                           ",
"ttttt                                                                                                                           ",
"ttttt                                                                                                                           ",
"ttttt                                                                                                                           ",
"ttttt                                                                                                                           ",
"ttttt                                                                                                                           ",
"ttttt                                                                                                                           ",
"ttttt                                                                                                                           ",
"ttttt                                                                                                                           ",
"ttttt                                                                                                                           ",
"ttttt                                                                                                                           ",
"ttttt                                                                                                                           ",
"ttttt                                                                                                                           ",
"ttttt                                                                                                                           ",
"ttttt                                                                                                                           ",
"ttttt                                  X$%@                    .+%=-;>>>,,::-&#X                                                ",
"ttttt                                  $:1,@o               X+$&:2589qwrwwq073,=@X.                                             ",
"ttttt                                  &198<&.              &>269qruipppappiyr95,$X                                             ",
"ttttt                                  &2ru03;%O.      .+%->37wupppapaaaappaappy92=+                                            ",
"ttttt                                  &2rpir93:&%$%$%&=;36qruippaaaaaaaaaaaaappuq4-                                            ",
"ttttt                                  *2yaapiw9642224570wyppaaaaaaaaapaaaaaaaaappq2                                            ",
"ttttt                                  &2raaaappirrqwrupaapaaaaaaaapappppppppaaaapp6                                            ",
"ttttt                                  %<rpaaaapppppppppaaaaaaaappppiyrq0qwyipppapp7                                            ",
"ttttt                                  @-9iaaaaaaaappaaaaaaaaaappyq96431<2347qypaap7                                            ",
"ttttt                                   .19ippaaaaaaaaaaaaaaapuuw82-+       %<7ripp7                                            ",
"ttttt                                    &,6ruppppaaaappppppyq73,-%@X       +%-<8ru7                                            ",
"ttttt                                     #;38qriipppppuur9851:%o             .$>5q4                                            ",
"ttttt                                       X=169qwrrwq964<*+                   X%3,                                            ",
"ttttt                                       .O%*-;;;:;;-=&$O.                   .O%$                                            ",
"ttttt                                                                                                                           ",
"ttttt                                                                                                                           ",
"ttttt                                                                                                                           ",
"ttttt                                                                                                                           ",
"ttttt                                                                                                                           ",
"ttttt                                                                                                                           ",
"ttttt                                                                                                                           ",
"ttttt                                                                                                                           ",
"ttttt                                                                                                                           ",
"ttttt                                                                                                                           ",
"ttttt                                                                                                                           ",
"ttttt                                   .                                                                                       ",
"ttttt                                  .XX.                     Xo++@###$##@+OX                                                 ",
"ttttt                                  +-;*.                 ..o%;<2356777541:*+                                                ",
"ttttt                                  &<42&+               O$&-160wuippppiur92:%O                                              ",
"ttttt                                  &2wr5:@X.        .X+#;27wyipppppaaapppiuq5-@.                                            ",
"ttttt                                  &2rpr94>%O.....X+%:259ruppaaaapaaaaaapppir7,%                                            ",
"ttttt                                  &2yaapr61>-===-;,16wipaaaaaaaaaaaaaaaaaaapp8>                                            ",
"ttttt                                  &2raapppuw08880wyuippaaaaaaaaaapaaapaaaaaapu5                                            ",
"ttttt                                  &2yaaaaappuuuuiipaaaaaaaaaaappiuuruiipppaaap7                                            ",
"ttttt                                  %,wpaaaaaaaaaaaaaaaaaaaaaaiiurq98789qrippaap6                                            ",
"ttttt                                  X#5rpaaaaaaaaaaaaaaaapaapuw72;*&%%%&*>5qpppp7                                            ",
"ttttt                                    ;4qupapaaaaaaapaaaaiuw95<;%o.      #-17wii7                                            ",
"ttttt                                     &19rupppaapapppuurw72=+             .*3qy6                                            ",
"ttttt                                     .O%>5qyippppiuw94>*#+X.              X$;72                                            ",
"ttttt                                       .$;<23454442<:-#o                   .+:=                                            ",
"ttttt                                                   .                                                                       ",
"ttttt                                                                                                                           ",
"ttttt                                                                                                                           ",
"ttttt                                                                                                                           ",
"ttttt                                                                                                                           ",
"ttttt                                                                                                                           ",
"ttttt                                                                                                                           ",
"ttttt                                                                                                                           ",
"ttttt                                                                                                                           ",
"ttttt                                                                                                                           ",
"ttttt                                  X+$+                    .O$%*=-;:;---*%+.                                                ",
"ttttt                                  $,,:                    o=<580rrryrw083;@                                                ",
"ttttt                                  &188<&X             .%>269wrripppappirr95<%X                                             ",
"ttttt                                  &2ru02;%+.      .O%=;27wupppapaaaaapapppu91&+                                            ",
"ttttt                                  &2ypiy91&o      +*<8wuippppaaaaaaaaaaaappir3=                                            ",
"ttttt                                  &2raapuw9642223570wyippaaaaaaaappaapaaaaappw2                                            ",
"ttttt                                  &2yaaaappurwwwryippaaaaaaaaaappppppppaaaaaai6                                            ",
"ttttt                                  &2yaaaaaaappppppaaaaaaaaaaaappurwqqripaaaaai7                                            ",
"ttttt                                  @-9uaaaaaaaaaaaaaaaaaaaaapuw9753212348quiaap7                                            ",
"ttttt                                  .+29upaaaaaaaaaaaaaaaaiurq82:&%#@@@@$-27wupi7                                            ",
"ttttt                                    $>6ripapaapaaappaapuw81-&$O.       X#&<8ui7                                            ",
"ttttt                                     #-27wrippppppiur0851;%O             .$,5q4                                            ",
"ttttt                                     .O$;269qqwww99751-&@+X               X+=4>                                            ",
"ttttt                                       .O$&==----==*%#O.                    o%@                                            ",
"ttttt                                                                                                                           ",
"ttttt                                                                                                                           ",
"ttttt                                                                                                                           ",
"ttttt                                                                                                                           ",
"ttttt                                                                                                                           ",
"ttttt                                                                                                                           ",
"ttttt                                                                                                                           ",
"ttttt                                                                                                                           ",
"ttttt                                                                                                                           ",
"ttttt                                                                                                                           ",
"ttttt                                  +*;*                    .$;,<345565531:&O                                                ",
"ttttt                                  %,52=+.              @&->269qruuuiurrq83,*+.                                             ",
"ttttt                                  &1qr5-O..         ..X-27qyiipppaaappppiu03=+                                             ",
"ttttt                                  &2rpr92;#.      o$-258qyppaaaaaaaaaaaaaair7:$                                            ",
"ttttt                                  &1uppur82,:;;;;><270yippaaaaaaaaaaaaaaaappy8,                                            ",
"ttttt                                  *2upappiuw977790ryupppaaaaaaaapapppaaaaaappu4                                            ",
"ttttt                                  &1raapppppiuyuuipaaaaaaaaaaaappuuuuupaaaaapp7                                            ",
"ttttt                                  $,qppaaaappppppaaaaaaaaapppirrq988890yuipapp7                                            ",
"ttttt                                  O%7rppaapaaaaaaaaaaaaapppuw85<>;---;>27wippp7                                            ",
"ttttt                                   .:5qipppaaaaaaaaapaapyw952>&o.      @;28rpi8                                            ",
"ttttt                                    +-29ruippaaappppiurq74>&#+X        .O$;5qr5                                            ",
"ttttt                                     O%:280ruuiiiyrw962,;&@X              +*192                                            ",
"ttttt                                       .%:1345665542,;$O                   .@>-                                            ",
"ttttt                                        XO+@$$$$$@@@+o.                     .+X                                            ",
"ttttt                                                                                                                           ",
"ttttt                                                                                                                           ",
"ttttt                                                                                                                           ",
"ttttt                                                                                                                           ",
"ttttt                                                                                                                           ",
"ttttt                                                                                                                           ",
"ttttt                                                                                                                           ",
"ttttt                                                                                                                           ",
"ttttt                                                                                                                           ",
"ttttt                                                                                                                           ",
"ttttt                                                                                                                           ",
"ttttt                                                                                                                           ",
"ttttt                                                                                                                           ",
"ttttt                                                                                                                           ",
"ttttt                                                                                                                           ",
"ttttt                                                                                                                           ",
"ttttt                                                                                                                           "
};
