/* XPM */
static char *result[] = {
/* columns rows colors chars-per-pixel */
"128 128 39 1 ",
"  c #010101",
". c #010907",
"X c #010B0A",
"o c #01110F",
"O c #011312",
"+ c #011917",
"@ c #011D1B",
"# c #01211E",
"$ c #012422",
"% c #012926",
"& c #012D2A",
"* c #01312E",
"= c #013532",
"- c #013936",
"; c #013D3A",
": c #01423E",
"> c #014542",
", c #014945",
"< c #014D49",
"1 c #01524D",
"2 c #015551",
"3 c #015A55",
"4 c #015E59",
"5 c #01635D",
"6 c #016661",
"7 c #016A64",
"8 c #016E68",
"9 c #01736C",
"0 c #007770",
"q c #007B74",
"w c #007F78",
"e c #00847D",
"r c #A76096",
"t c #AC639B",
"y c #008780",
"u c #008B84",
"i c #008F88",
"p c #00958D",
"a c #009890",
/* pixels */
"                                                                                                                      .XXXoooO++",
"                                                                                                                      ..XXooooo+",
"                                                                                                                      .XXXXooooo",
"                                                                                                                      .XXXXXXooo",
"                                                                                                                      .XXXXXXXoo",
"                                                                                                                       XXXXXXXXo",
"                                                                                                                      .XXXXXXXXX",
"                                                                                                                      ..XXXXXXXX",
"                                                                                                                      .XXXXXXXXX",
"                                                                                                                      .XXXXXXXXX",
"                                                                                                                      ..XXXXXXXX",
"                                                                                                                      .XXXXXXXXX",
"                                                                                                                      .XXXXXXXXX",
"                                                                                                                      ..XXXXXXXX",
"                                                                                                                      .XXXXXXXXX",
"                                                                                                                      .XXXXXXXXX",
"                                                                                                                      .XXXXXXXXX",
"                                                                                                                      ..XXXXXX.X",
"                                                                                                                      .XXXXXXXXX",
"                                                                                                                      .XXXXXXXXX",
"                                                                                                                      .XXXXXXXXX",
"                                                                                                                       XXXXXXXXX",
"                                                                                                                      .XXXXXXXXX",
"                                                                                                                      ..XXXXXXXX",
"                                                                                                                      .X.XXXXXXX",
"                                                                                                                      ..XXXXXXXX",
"                                                                                                                      .XXXXXXXXX",
"                                                                                                                      .XXXXXXXXX",
"                                                                                                                      .XXXXXXXXX",
"                                                                                                                      ..XXXXXXXX",
"                                                                                                                      .XXXXXXXXX",
"                                                                                                                      .XXXXXXXX.",
"                                                                                                                      .XXXXXX.XX",
"                                                                                                                      ..XXXXXXXX",
"                                                                                                                      .XXXXXXXXX",
"                                                                                                                      .XXXXXXXXX",
"                                                                                                                      .XXXXXXXXX",
"                                                                                                                       XXX.XXXXX",
"                                                                                                                      .XXXXXXXXX",
"                       O$&&&&&%O                 X@&&&&&&$X              o$&&*&&&+               @%&&&&&$o            ..XXXXXXXX",
"                       &<12111<*.                +;122121:@              $,122221=O              -<12221>$.           .XXXXXXXXX",
"                       =3qeeeee7,#               #>6eeueeq3-            .%19eyyee8<X             ;5eyeeyq5;O          .XXXXXXXXX",
"                       %1qipaape7:+              +-5eppaaiq2%.           #>9ppaaay9-@            =4eppaaie4=O         .XXXXXXXXX",
"                        %3epaaaae3*               X;8uaaaap9,O            O2qpaaaay4=.            -6ypaapp01$         .XXXXXXXXX",
"                        +=7ypaappq,.              .#<epaaaae6#.           .=3ipaaapq<+            @;0iaaapu8-.        .XXXXX.XXX",
"                         X1qpaaape5&o              .*5epaaap0:#            o>qiaaapp5=.           .+4epaaapq1$.       .XXXXXXXXX",
"                          -5yaaapi9>#               #<9iaaape5=            .&3eaaaap9<O            .>8iaaaau5;o       .XXXXXXXXX",
"                          @1epaaaie3$               o*5iaaapu9:             +=qpaaaae5+             $4upaaai0,O        XXXXXXXXX",
"                          .:qiaaape6&                @2ypaaaiq<             .+9iaaaau7@             X1epaappw2@       .XXXXXX.XX",
"                           =8ypaapi7*                +<qiaaaae1              .6yaaaai0@              >0ipaapy3@       ..XXXXXXXX",
"                           =5ypaaap9=                O,9ipaapu1              .5epaaap0#              :9upaaau3@       .XXXXXXXXX",
"                           =5epaaai9=                +>0iaaaai1              .3eaaaaa0$              :8uaaapi4@       .XXXXXXXXX",
"                           *7epaapp9=                O,9iaaapi2              .5eaaaaaq$              :9upaaau4@       .XXXXXXXXX",
"                           =7ypaapp9*                +<qiaaapu1              .5ypaaap0@              >0uaaapi3@        XXX.XXXXX",
"                           -9ipaapi7*                +1eppaape1              X7iaaaai9#              <qpaaapy3+       .XXXXXXXXX",
"                          X:qpaaapy6&               .$3epaaaie<             X@9paaaau8@             O2eppaape2+       ..XXXXXXXX",
"                          @<eaaaape3&               X=5ppaaai0,             +=qaaaaay6+             %4uaaaaiq<+       .XXXXXXXXX",
"                          =6ypaaapq1$               #,9ppaapu7;            .&3yaaaaaq3+            .>8iaaaai8>O       .XXXXXXXXX",
"                          ,9iaaaai8:@               &5epaaape3*            .;8uaaaap9,o            X3qpaaaae5=X       .XXXXXXXXX",
"                          3epaaaay4&X               =9ipaaapq;#            X,ypaaaap6*.            X6upaaaae1#X       .XXXXXXXXX",
"                        O=7uaaaape1O              .#<qaaaapi9%X           .&4iaaaapu2#            @-0iaaapp0>X        .XXXXX.XXX",
"                        $<9iaaaai9>               X*5eaaaape5@            X,8paaaaiq,X            *3epaaapy6=         .XXXXXXXXX",
"                        &6epaaape5=               o>9iaaaap0<O            O4epaaaay6-.            ;9upaaapq3$         .XXXXXXXXX",
"                       .-0ppaaaaq<#               +1epaaaai6*X           .@8iaaaaae;$.           .<eppaapp8;+          XXXXXXXXX",
"                       $,epaaapi9;X              O*5uaaappe2O            +;qpaaaai0$X            %3ipaaapy4%.         .XXXXXXXXX",
"                       =4yaaappe4&               #>9iaaaai0,            .&2waaaaay6O             :7iaaaapq<@          .XXXXXXXXX",
"                       >8iaaaai9,$               %3qpaaapy5-            .=6yaaaaaq<X             <0paaaay6;O          .XXXXXXXXX",
"                       <9ipaaai5=O               &4epaaape<%            .-0iaaaaa7-.             3wpaaaae3%X           XXXXXXXXX",
"                       1wppaape2O.               =7upaaapq=X            X:qpaaaap4@              5ypaaapw>o.          .XXXXXX.XX",
"                       2epaaape,                 =8paaapy9%.            X>epaaapu2o              6ipaapp0-            .XXXXXXXXX",
"                       3upaaai0,                 -9paaapy7$             o,yaaaapw<X              7ipaaau8=            .XXXXXXXXX",
"                       3uaaaai9:                 -9ppaape6$             X,uaaapiq<.              7paaapy6=            ..XXXXXXXX",
"                       3iaaaau9:                 -0aaaapw4$             X<ipaaai0,.              9ppaaay6&            .XXXXXXXXX",
"                       3epaaai9:                 -9paappe6$             X,ypaappq<.              7ipaapy7=            .XXX.XXXXX",
"                       3epaaai9>                 =8iaaapy6$             X,epaaapw<X              7ipaapy8=            .XXXXXXXXX",
"                       1epaaape,                 =8ipaapu8&             X>epapppu2X              6ypaaap0-            .XXXXXXXXX",
"                       <9iaaapu3$o               %5epaaapq:+            X=9iaaaap5&              3qppaapw<@.          .XXXXXXXXX",
"                       ;5uaaapi7>@               $10ppaape3=            .*5eaaaaa0,X             ,9paaaay6-O          ..XX.XXXXX",
"                       %1epaaape5&               +-6ipaaai0,.            #>qpaaaae6+.            *5iaaaaiq<@          .XXXXXXXXX",
"                       o;9ipaapp0,@              .#1wpaaapy4&.           X%7iaaaapq;@            O<wppaapu6-O         .XXXXXXXXX",
"                        $30paaaae6-X              .-7ypaaap01@            X10paaaay6:O            =5epapppw3&.        .XXXXXXXXX",
"                        O&5epapapw2$X             .+,0pppapu9-+           .&3yppappy3&.           @=8ippapp9,+.       .XXX.XXXXX",
"                        .O:6eppppu91$              .%19ipppie5-            O=4epppiiq2O           .+,9ippppe7:O       .XXXXXXXXX",
"                          @:4766663:+               O=<6677651&             +-3777773>X             %,5776752*X       .XXXXXXXXX",
"                                                                                                                       XXXXXXXXX",
"                                                                                                                      .XXX.XXXXX",
"                                                                                                                      ..XXXXXXXX",
"                                                                                                                      ..XXXXXXXX",
"                                                                                                                      .XXXXXXXXX",
"                                                                                                                      .XXXXXXXXX",
"                                                                                                                      .XXXXXXXXX",
"                                                                                                                      .XXXXXXXXX",
"                                                                                                                      .XXXXX.XXX",
"                                                                                                                      .XXXXXXXXX",
"                                                                                                                      .XXXXXXXXX",
"                                                                                                                       XXXXXXXXX",
"                                                                                                                      .XXXXXXXXX",
"                                                                                                                      .XXX.XXXXX",
"                                                                                                                      .XXXXXXXXX",
"                                                                                                                      .XXXXXXXXX",
"                                                                                                                       XXXXXXXXX",
"                                                                                                                      .XXX.XXXXX",
"                                                                                                                      ..XXXXXXXX",
"                                                                                                                      ..XXXXXXXX",
"                                                                                                                      .XXXXXXXXX",
"                                                                                                                      .XXXXXXXXX",
"                                                                                                                      .XXXXXXXXX",
"                                                                                                                      .XXXXXXXXX",
"                                                                                                                      .XXXXX.XXX",
"                                                                                                                      .XXXXXXXXX",
"                                                                                                                      .XXXXXXXXX",
"                                                                                                                       XXXXXXXXX",
"                                                                                                                      .XXXXXXXXX",
"                                                                                                                      .XXX.XXXXX",
"                                                                                                                      .XXXXXXXXX",
"                                                                                                                      .XXXXXXXXX",
"                                                                                                                       XXXXXXXXX",
"                                                                                                                      .XXX.XXXXX",
"                                                                                                                      ..XXXXXXXX",
"                                                                                                                      ..XXXXXXXX",
"                                                                                                                      .XXXXXXXXX",
"                                                                                                                      .XXXXXXXXX",
"                                                                                                                      ..XXXXXXXX",
"rttttttttttttttttttttttttttttttttttttttttttttttttttttttttttttttttttttttttttttttttttttttttttttttttttttttttttttttttttttttttttttttt",
"rttttttttttttttttttttttttttttttttttttttttttttttttttttttttttttttttttttttttttttttttttttttttttttttttttttttttttttttttttttttttttttttt",
"rttttttttttttttttttttttttttttttttttttttttttttttttttttttttttttttttttttttttttttttttttttttttttttttttttttttttttttttttttttttttttttttt",
"rttttttttttttttttttttttttttttttttttttttttttttttttttttttttttttttttttttttttttttttttttttttttttttttttttttttttttttttttttttttttttttttt",
"rttttttttttttttttttttttttttttttttttttttttttttttttttttttttttttttttttttttttttttttttttttttttttttttttttttttttttttttttttttttttttttttt"
};
