/* XPM */
static char *result[] = {
/* columns rows colors chars-per-pixel */
"128 128 38 1 ",
"  c #010101",
". c #010B07",
"X c #010B0A",
"o c #01110D",
"O c #011413",
"+ c #011816",
"@ c #011C1A",
"# c #01211F",
"$ c #012422",
"% c #012926",
"& c #012D2A",
"* c #01312E",
"= c #013532",
"- c #013936",
"; c #013D3A",
": c #01413D",
"> c #014541",
", c #014A45",
"< c #014D49",
"1 c #01524E",
"2 c #015651",
"3 c #015B56",
"4 c #015E59",
"5 c #01625D",
"6 c #016660",
"7 c #016A64",
"8 c #016E69",
"9 c #00736C",
"0 c #007770",
"q c #007B74",
"w c #007F78",
"e c #00837C",
"r c #AC639B",
"t c #008780",
"y c #008C84",
"u c #008F88",
"i c #00958D",
"p c #009890",
/* pixels */
"+OoXXX                                                                                                                     rrrrr",
"OOX.XX                                                                                                                     rrrrr",
"ooX..                                                                                                                      rrrrr",
"oXXX                                                                                                                       rrrrr",
".X.                                                                                                                        rrrrr",
" .X                                                                                                                        rrrrr",
"XX                                                                                                                         rrrrr",
"X                                                                                                                          rrrrr",
"                                                                                                                           rrrrr",
"                                                                                                                           rrrrr",
"                                                                                                                           rrrrr",
"                                                                                                                           rrrrr",
"                                                                                                                           rrrrr",
"                                                                                                                           rrrrr",
"                                                                                                                           rrrrr",
"                                                                                                                           rrrrr",
"                                                                                                                           rrrrr",
"                                                                                                                           rrrrr",
"                                                                                                                           rrrrr",
"                                                                                                                           rrrrr",
"                                                                                                                           rrrrr",
"                                                                                                                           rrrrr",
"                                                                                                                           rrrrr",
"                                                O*<36789887631:&.                    =:;@                                  rrrrr",
"                                             X+=<59etuippiuywq73>;&+               @=451&                                  rrrrr",
"                                             O=5euippppppppipiiut93-.             O:7te2&                                  rrrrr",
"                                            &<9eiippppppppppppppiyew93>%O      X%,50yie2&                                  rrrrr",
"                                            ,9ipippppppppppppppppppiyw941,>:::><39eippe2&                                  rrrrr",
"                                            6uippppippppppppppppppppppipyeq900etiippppt2&                                  rrrrr",
"                                            7ipppppiueeetyuippppppppppppiiiuyuiippppppt2&                                  rrrrr",
"                                            7ippiutw9775679qetuipppppppppppppppppppppu0>$                                  rrrrr",
"                                            7ipiu02*       +>40yppippppppppppppppppipe4X                                   rrrrr",
"                                            7iy03>&+       X$=>250eipppppppppppippie91=                                    rrrrr",
"                                            5e91&.             O*<49wetuiiiipiiiyeq7>%                                     rrrrr",
"                                            16&X                   @-170eeyiitte93;o                                       rrrrr",
"                                            %=O.                   X+%=::>,,,,>:-*+.                                       rrrrr",
"                                                                                                                           rrrrr",
"                                                                                                                           rrrrr",
"                                                                                                                           rrrrr",
"                                                                                                                           rrrrr",
"                                                                                                                           rrrrr",
"                                                                                                                           rrrrr",
"                                                                                                                           rrrrr",
"                                                                                                                           rrrrr",
"                                                                                                                           rrrrr",
"                                                                                                                           rrrrr",
"                                                                                                                           rrrrr",
"                                                                                                                           rrrrr",
"                                                                                                                           rrrrr",
"                                                O&;<23454432<>-$.                    &=*+                                  rrrrr",
"                                              .+*<7qtiiiiiutw94>&#OX               X@<3<&                                  rrrrr",
"                                             O&40tuiiippppiiiyytw72=.             o-5ew1&                                  rrrrr",
"                                            $>7wuippppppppppppppieq95<-$X      X$;27eie2&                                  rrrrr",
"                                            :7uipppppppppppppppppppiy05<;*&&%&*=,7eippt2&                                  rrrrr",
"                                            5ypppppppppppppppppppppppiuyew99789etuiippe2&                                  rrrrr",
"                                            7iippppiiyyttyipipppppppppppiiyyttyippppppt1&                                  rrrrr",
"                                            7iipiiytw98780wtyuiippppppppippppppppppppie,%                                  rrrrr",
"                                            7iipiw5,*&&%&&=;27wupppppppppppppppppppppe5#X                                  rrrrr",
"                                            7iuw71-#      .X&;259wtippppppppppppppiyq5;                                    rrrrr",
"                                            6tq3*X             O-17eeyyuiipippiiiye91&                                     rrrrr",
"                                            27;$X              .X+#*>59etyiiiiyt06,%OX                                     rrrrr",
"                                            =:+.                   o#-:123455432,;$.                                       rrrrr",
"                                                                                                                           rrrrr",
"                                                                                                                           rrrrr",
"                                                                                                                           rrrrr",
"                                                                                                                           rrrrr",
"                                                                                                                           rrrrr",
"                                                                                                                           rrrrr",
"                                                                                                                           rrrrr",
"                                                                                                                           rrrrr",
"                                                                                                                           rrrrr",
"                                                                                                                           rrrrr",
"                                                X+&*-;:::;;-=&$O.                    @##X                                  rrrrr",
"                                                #:39eetyytew961-X                    >1,%                                  rrrrr",
"                                             X&<7qeyiippipiiyte073,&.             X*1991&                                  rrrrr",
"                                            +=20yippppppppippppiie83>=&OX      .O&:3wyt2&                                  rrrrr",
"                                            -3eippppppppppppppppiiiut92=+      O*20yipe1&                                  rrrrr",
"                                            3eipppppppppiippppppppppiyew97553568weiippt2&                                  rrrrr",
"                                            7ippppppiuuyiiipppppppppppppiyteeeeippppppt2*                                  rrrrr",
"                                            7ipppppiteq0qetiippippppppppppipipipppppppe1&                                  rrrrr",
"                                            7iiiut942,,>,<2370eippippppppppppppppppppt8*+                                  rrrrr",
"                                            7iitq6>&      XO=160eeiippppppppppppppiie8<o                                   rrrrr",
"                                            7yt7=o             @:5wtiiippppppppppiie3=                                     rrrrr",
"                                            302-+.             X@=:158wttiipiiite93>*+                                     rrrrr",
"                                            :1%X                   O&>25789009873,*o                                       rrrrr",
"                                                                                                                           rrrrr",
"                                                                                                                           rrrrr",
"                                                                                                                           rrrrr",
"                                                                                                                           rrrrr",
"                                                                                                                           rrrrr",
"                                                                                                                           rrrrr",
"                                                                                                                           rrrrr",
"                                                                                                                           rrrrr",
"                                                                                                                           rrrrr",
"                                                                                                                           rrrrr",
"                                                                                                                           rrrrr",
"                                                @-15990wq09863,*o                    ->:#                                  rrrrr",
"                                             X@;27qeyiipiiiyew961,=$              .%:671&                                  rrrrr",
"                                            .+;7tipppppppppppppiuq4:OXX         ..+>9yt2&                                  rrrrr",
"                                            *1wtippppppppppppppiiuye06,&O      o&,7eyie2&                                  rrrrr",
"                                            19iippppppppppppppppppppie07521<<11370yippt2&                                  rrrrr",
"                                            7ipppppppipiiippppppppppppppiteq0qeyippippe2&                                  rrrrr",
"                                            7iippppiytewetyippppppppppppiiiuiuipppppppe1&                                  rrrrr",
"                                            7iipiyw0753245790etipppppppppppipppppppppu0:#                                  rrrrr",
"                                            7iiit91&      .+;39euuippppppppppppppppii03X                                   rrrrr",
"                                            7uy91=$O       X+%=>29eypppppippppppppie7,%                                    rrrrr",
"                                            4w7<$.             O&>279weyiiiiipiytq85:$                                     rrrrr",
"                                            ,5&o                   @=1590etttee073-X                                       rrrrr",
"                                            +$X                    .o+%&&======&&@o.                                       rrrrr",
"                                                                                                                           rrrrr",
"                                                                                                                           rrrrr",
"                                                                                                                           rrrrr",
"                                                                                                                           rrrrr",
"                                                                                                                           rrrrr",
"                                                                                                                           rrrrr",
"                                                                                                                           rrrrr",
"                                                                                                                           rrrrr",
"                                                                                                                           rrrrr",
"                                                                                                                           rrrrr",
"                                                                                                                           rrrrr",
"                                                                                                                           rrrrr",
"                                                                                                                           rrrrr",
"                                                                                                                           rrrrr",
"                                                                                                                           rrrrr",
"                                                                                                                           rrrrr",
"                                                                                                                           rrrrr",
"                                                                                                                           rrrrr",
"                                                                                                                           rrrrr"
};
