/* XPM */
static char *result[] = {
/* columns rows colors chars-per-pixel */
"128 128 40 1 ",
"  c #010101",
". c #010907",
"X c #010B0A",
"o c #01100F",
"O c #011412",
"+ c #011917",
"@ c #011D1B",
"# c #01211E",
"$ c #012422",
"% c #012926",
"& c #012D2A",
"* c #01312E",
"= c #013532",
"- c #013936",
"; c #013D39",
": c #01423E",
"> c #014542",
", c #014A46",
"< c #014D49",
"1 c #01524E",
"2 c #015551",
"3 c #015A55",
"4 c #015E59",
"5 c #01625D",
"6 c #016661",
"7 c #016A64",
"8 c #016E68",
"9 c #00736D",
"0 c #017770",
"q c #007B74",
"w c #007F78",
"e c #00847D",
"r c #955587",
"t c #AC639B",
"y c #008780",
"u c #008C84",
"i c #008F88",
"p c #00958D",
"a c #009790",
"s c #009890",
/* pixels */
"rttttttttttttttttttttttttttttttttttttttttttttttttttttttttttttttttttttttttttttttttttttttttttttttttttttttttttttttttttttttttttttttt",
"rttttttttttttttttttttttttttttttttttttttttttttttttttttttttttttttttttttttttttttttttttttttttttttttttttttttttttttttttttttttttttttttt",
"rttttttttttttttttttttttttttttttttttttttttttttttttttttttttttttttttttttttttttttttttttttttttttttttttttttttttttttttttttttttttttttttt",
"rttttttttttttttttttttttttttttttttttttttttttttttttttttttttttttttttttttttttttttttttttttttttttttttttttttttttttttttttttttttttttttttt",
"rttttttttttttttttttttttttttttttttttttttttttttttttttttttttttttttttttttttttttttttttttttttttttttttttttttttttttttttttttttttttttttttt",
"                                                                                                                      .XXXXXXXXX",
"                                                                                                                      ..XXXXXXXX",
"                                                                                                                      ..XXXXXXXX",
"                                                                                                                      .XXXXXXXXX",
"                                                                                                                      .XXXXXXXXX",
"                                                                                                                      .XXXXXXXXX",
"                                                                                                                      .XXXXXXXXX",
"                                                                                                                      .XXXXXXXXX",
"                                                                                                                      .XXXXXXXXX",
"                                                                                                                      .XXXXXXXXX",
"                                                                                                                      .XXXXXXX.X",
"                                                                                                                      .XXXXXXXXX",
"                                                                                                                      .XXXXXXXXX",
"                                                                                                                      .XXXXXXXXX",
"                                                                                                                      .XXXXXXXXX",
"                                                                                                                       XXXXXXXXX",
"                                                                                                                      .XXXXXXXXX",
"                                                                                                                      .XXXXXXXXX",
"                                                                                                                      .XXXXXXXXX",
"                                                                                                                      .XXXXXXXXX",
"                                                                                                                       XXXXXXXXX",
"                                                                                                                      .XXXXXXXXX",
"                                                                                                                      .XXXXXXXXX",
"                                                                                                                      .XXXXXXXXX",
"                                                                                                                      .XXXXXXXXX",
"                                                                                                                      .XXXXXXXXX",
"                                                                                                                      .XXXXXXXXX",
"                                                                                                                      .XXXXXXXXX",
"                                                                                                                      .XXXXXXXXX",
"                                                                                                                      .XXXXXXXXX",
"                                                                                                                      .XXXXXXXXX",
"                                                                                                                      ..XXXXXXXX",
"                                                                                                                      .XXXXXXXXX",
"                                                                                                                      .XXXXXXXXX",
"                                                                                                                      ..XXXXXXXX",
"                                                                                                                      .XXXXXXXXX",
"                                                                                                                      .XXXXXXXXX",
"                                                                                                                      .XXXXX.XXX",
"                                                                                                                      .XXXXXXXXX",
"                         .$>4777762:@               O*<576764<&.           .#-2777773:@            X&<5777751=o       .XXXXXXXXX",
"                        .@:6epippe91$              .&10ipppie6;X           @-5eippiu02$           .$,9yppppe7:O       .XXXXXXXXX",
"                        +=5epssppq2$X             .@,0ppappu8;@           o=5epppppe5*o          .@:8yppppi9<@.       .XXXXXXXXX",
"                       X&3qipsspe7;X              X;7ypsspp01#.           $10issspy7:@           o-5epssppq4*.        .XXXXXXXXX",
"                       @>9ypsspi0,@              .$1wpaaapy4&X           o=7esssap9<$.           $1qppssay6;O         .XXXXXXXXX",
"                      X&2epsssie4*.              +;7uaaapu9,O           .$<esssspe5&.           o-6ypsspi02#.         .XXXXXXXXX",
"                      +:7ypsssu8>@               $10pssspe3=.           o-5epsssp9<@            @,9issapy6;O          .XXXXXXXXX",
"                      @<9iasspe5$O              .&5epssppq>@            O:9upsssi6-X            #3qpssapw<#.          .XXXXXXXXX",
"                      #2eppsppq1                .=7ipsspu8&             +,epssppe3$             $5epssai0;             XXXXXXXXX",
"                      $2eppspi0,                 -9ppsspy6&             +<epsspiq1$             %6ysaapu8;            .XXXXXXXXX",
"                      %4yppspi9>                .-0pssspe4$.            +2essssi01@             %7isaaiy7-            .XXXXXXXXX",
"                      $4yssspu8>                .;0pssppe4$             #2epsspu9<@             &7isaaay6-            .XXXXXXXXX",
"                      $4yssspi9>                 ;0pssspe5$.            +2essssu0<#             %7ipsspy6-            .XXXXXXXXX",
"                      $4yppspi9<                .;9pssspe7&             +1epsssiw2$             %7uasspu8;            .XXXXXXXXX",
"                      $3epssapq1                 =8pssspu8&.            #1epssspe3$             %6upsspi8>            .XXXXXXXXX",
"                      @2qpssspe3O.              .=7upsspp0-O            +,0ipsspu5&.            $5epssapw<O.          .XXXXXXXXX",
"                      @<0issspe6=O               =4ypasspq<$.           +:9ussssp7:O            #2qpssspe3&X          XXXXXXXXXX",
"                      +>8ypassi9<$               %3wpasspy4-.           o:7epsssp01#            @10pssspy7;+          .XXXXXXXXX",
"                      O-5eaasape4&               $,8iaaspu0,X           X*3epssspe5&            O>7isssai02#          .XXXXXXXXX",
"                      .%2qpasspu9;X              +=5uaasape2@.          .#,0pssspi9;o           .=5ysssppe5&.          XXXXXXXXX",
"                       +:9ipssspw<$               #1epssssi5*o           .*8ipssspw1$.           #1epssspi9:@         .XXXXXXXXX",
"                       o-5epssspe5=               o>9issssi91#            %5epssspe6:O           O:9esssppq2&         .XXXXXXXXX",
"                       X%10pssspi9>               .=5esssspe5#            @<9issspi0<@           X=4epssspe7-         .XXXXXXXXX",
"                        +;7yassspq1O.             .#<eppsssi7*O           o=5upssppe4%.          .#:8issppp0>o        .XXXXXXXXX",
"                         #3eppsspy5&X              .-9ppsssp0:#            @1eppsssi7-O            &5esssspe1$.       ..XXXXXXXX",
"                         @,9isssau7>@               &5epssspe4*.           +,8upsssp9<@            #2eissspe5-o       .XXXXXXXXX",
"                         O;5epsspi02$               #<9psssse7:X           o*4epssspq3%            +>9issspy9,O       .XXXXXXXXX",
"                         X%2eassppe5&               o=5issspu9,o           .@,0pssspe5*            X*5essssp01@       ..XXXXXXXX",
"                          @,0pasapy7*               .$3ypssspq1o            X-9pssspy7*            .$2eppsppe1@       .XXXXXXXXX",
"                          O:9ipsapy7*                @1eppsppe1O             *7ypsssi9=             +1qppsppe5#       .XXXXXXXXX",
"                          O;7ypsssi9=                +,qppsspy2O             &5eppssp9-             +,9ipsspy5#       .XXXXX.XXX",
"                          o-5epsspp9=                O,0issspy2+             %5epsssi9-             O>9ussspy5#       .XXXXXXXXX",
"                          o-5epsspp9=                O,9ipsssy2O             %5epsssp9-             O>8ypsspu5$       .XXXXXXXXX",
"                          o-6epsspi9*                +,0ipsssy1O             %4epssai9-             O,9ypsppe5#       .XXXXXXXXX",
"                          O;7upsspi7*                @1qppsppe1O             &5epsssi8=             +<0ussspy4@       .XXXXXXXXX",
"                          +>9ppsppy6*                #2epssppq<O            .=8ipsspy7*             #1epssppe2@       .XXXXXXXXX",
"                         .$2wpsssiq4%               O=6ipsspi8>o           .@,0pssspe4&            .&4ypsspi9<@       .XXXXXXXXX",
"                         O;6ypsssi9,#               #<9pssspe4=.           X=4epsssp91#            @>9issspy7-O       .XXXXXXXXX",
"                         $<qppsspe5%O              .=7ypsssp0>$.          .@<0ipssay7-O           .%4epssspq2$.       .XXXXXXXXX",
"                       .@;7ypssai0<.              .$<qppsppe6%.           O-5ypssppq1$           .#>9issspu7:.        .XXXXXXXXX",
"                       X=3wpaaspe5*               X:9yssssi9,O            %3qpsssse5-O           O;7epsssp01%          XXXXXXXXX",
"                     .X&20ipsspe7:@              @;5epssppq2&X          .$<9ipsspy7:#.          O-5epssppq4=O         .XXXXXXXXX",
"                      O=40eeeew7,#               #>7eeyye04-.           X*29eeeye71#            O:5qeyye05:O          .XXXXXXXXX",
"                      O&,12222,*.                @;112221:@             .%,12122<-+             O-<12221>%.           .XXXXXXXXX",
"                      .O$&&&&&%O                 .@&&&&&&$X              O$&&&&&&@.             .@$&&&*&$O            .XXXXXXXXX",
"                                                                                                                      .XXXXXXXXX",
"                                                                                                                      .XXXXXXXXX",
"                                                                                                                      .XXXXXXXXX",
"                                                                                                                      XXXXXXXXXX",
"                                                                                                                      .XXXXXXXXX",
"                                                                                                                      .XXXXXXXXX",
"                                                                                                                       XXXXXXXXX",
"                                                                                                                      .XXXXXXXXX",
"                                                                                                                      .XXXXXXXXX",
"                                                                                                                      .XXXXXXXXX",
"                                                                                                                      .XXXXXXXXX",
"                                                                                                                      ..XXXXXXXX",
"                                                                                                                      .XXXXXXXXX",
"                                                                                                                      .XXXXXXXXX",
"                                                                                                                      ..XXXXXXXX",
"                                                                                                                      .XXXXXXXXX",
"                                                                                                                      .XXXXXXXXX",
"                                                                                                                      .XXXXX.XXX",
"                                                                                                                      .XXXXXXXXX",
"                                                                                                                      .XXXXXXXXX",
"                                                                                                                      .XXXXXXXXX",
"                                                                                                                      .XXXXXXXXX",
"                                                                                                                      .XXXXXXXXX",
"                                                                                                                      .XXXXXXXXX",
"                                                                                                                      .XXXXXXXXX",
"                                                                                                                      .XXXXXXXXX",
"                                                                                                                      .XXXXXXXXX",
"                                                                                                                       XXXXXXXXX",
"                                                                                                                      .XXXXXXXXX",
"                                                                                                                      .XXXXXXXXX",
"                                                                                                                      .XXXXXXXXX",
"                                                                                                                      .XXXXXXXXX",
"                                                                                                                      .XXXXXXXXX",
"                                                                                                                      .XXXXXXXXX",
"                                                                                                                      .XXXXXXXXO",
"                                                                                                                      XXXXXXXXOo",
"                                                                                                                      .XXXXoOOoO",
"                                                                                                                      .XXXoooooO",
"                                                                                                                      .XXooOoOO+"
};
